<?xml version="1.0" encoding="UTF-8" standalone="no"?>
<!DOCTYPE svg PUBLIC "-//W3C//DTD SVG 1.1//EN"
 "http://www.w3.org/Graphics/SVG/1.1/DTD/svg11.dtd">
<!-- Generated by graphviz version 2.43.0 (0)
 -->
<!-- Title: circuit Pages: 1 -->
<svg width="669pt" height="263pt"
 viewBox="10.80 10.80 658.40 252.40" xmlns="http://www.w3.org/2000/svg" xmlns:xlink="http://www.w3.org/1999/xlink">
<g id="graph0" class="graph" transform="scale(1 1) rotate(0) translate(21.6 241.6)">
<title>circuit</title>
<polygon fill="white" stroke="transparent" points="-10.8,10.8 -10.8,-230.8 636.8,-230.8 636.8,10.8 -10.8,10.8"/>
<!-- 0 -->
<g id="node1" class="node">
<title>0</title>
<path fill="#f2fef2" stroke="#585858" d="M42,-220C42,-220 12,-220 12,-220 6,-220 0,-214 0,-208 0,-208 0,-196 0,-196 0,-190 6,-184 12,-184 12,-184 42,-184 42,-184 48,-184 54,-190 54,-196 54,-196 54,-208 54,-208 54,-214 48,-220 42,-220"/>
<text text-anchor="middle" x="27" y="-205" font-family="Helvetica,sans-Serif" font-size="10.00">0</text>
<text text-anchor="middle" x="27" y="-194" font-family="Helvetica,sans-Serif" font-size="10.00">INPUT</text>
</g>
<!-- 20 -->
<g id="node7" class="node">
<title>20</title>
<path fill="#c1e6fb" stroke="#585858" d="M378,-73C378,-73 348,-73 348,-73 342,-73 336,-67 336,-61 336,-61 336,-49 336,-49 336,-43 342,-37 348,-37 348,-37 378,-37 378,-37 384,-37 390,-43 390,-49 390,-49 390,-61 390,-61 390,-67 384,-73 378,-73"/>
<text text-anchor="middle" x="363" y="-58" font-family="Helvetica,sans-Serif" font-size="10.00">20</text>
<text text-anchor="middle" x="363" y="-47" font-family="Helvetica,sans-Serif" font-size="10.00">NOR</text>
</g>
<!-- 0&#45;&gt;20 -->
<g id="edge2" class="edge">
<title>0:e&#45;&gt;20:w</title>
<path fill="none" stroke="#585858" stroke-width="2" d="M54,-202C54,-202 166,-156 166,-156 166,-156 278,-91 278,-91 278,-91 314.11,-68.59 329.35,-59.13"/>
<polygon fill="#585858" stroke="#585858" stroke-width="2" points="331.01,-61.19 336,-55 328.24,-56.72 331.01,-61.19"/>
</g>
<!-- 1 -->
<g id="node2" class="node">
<title>1</title>
<path fill="#f2fef2" stroke="#585858" d="M42,-36C42,-36 12,-36 12,-36 6,-36 0,-30 0,-24 0,-24 0,-12 0,-12 0,-6 6,0 12,0 12,0 42,0 42,0 48,0 54,-6 54,-12 54,-12 54,-24 54,-24 54,-30 48,-36 42,-36"/>
<text text-anchor="middle" x="27" y="-21" font-family="Helvetica,sans-Serif" font-size="10.00">1</text>
<text text-anchor="middle" x="27" y="-10" font-family="Helvetica,sans-Serif" font-size="10.00">INPUT</text>
</g>
<!-- 18 -->
<g id="node5" class="node">
<title>18</title>
<path fill="#c1e6fb" stroke="#585858" d="M154,-36C154,-36 124,-36 124,-36 118,-36 112,-30 112,-24 112,-24 112,-12 112,-12 112,-6 118,0 124,0 124,0 154,0 154,0 160,0 166,-6 166,-12 166,-12 166,-24 166,-24 166,-30 160,-36 154,-36"/>
<text text-anchor="middle" x="139" y="-21" font-family="Helvetica,sans-Serif" font-size="10.00">18</text>
<text text-anchor="middle" x="139" y="-10" font-family="Helvetica,sans-Serif" font-size="10.00">NOT</text>
</g>
<!-- 1&#45;&gt;18 -->
<g id="edge1" class="edge">
<title>1:e&#45;&gt;18:w</title>
<path fill="none" stroke="#585858" stroke-width="2" d="M54,-18C54,-18 88.7,-18 104.42,-18"/>
<polygon fill="#585858" stroke="#585858" stroke-width="2" points="104.5,-20.63 112,-18 104.5,-15.38 104.5,-20.63"/>
</g>
<!-- 2 -->
<g id="node3" class="node">
<title>2</title>
<path fill="#f2fef2" stroke="#585858" d="M42,-146C42,-146 12,-146 12,-146 6,-146 0,-140 0,-134 0,-134 0,-122 0,-122 0,-116 6,-110 12,-110 12,-110 42,-110 42,-110 48,-110 54,-116 54,-122 54,-122 54,-134 54,-134 54,-140 48,-146 42,-146"/>
<text text-anchor="middle" x="27" y="-131" font-family="Helvetica,sans-Serif" font-size="10.00">2</text>
<text text-anchor="middle" x="27" y="-120" font-family="Helvetica,sans-Serif" font-size="10.00">INPUT</text>
</g>
<!-- 19 -->
<g id="node6" class="node">
<title>19</title>
<path fill="#c1e6fb" stroke="#585858" d="M266,-73C266,-73 236,-73 236,-73 230,-73 224,-67 224,-61 224,-61 224,-49 224,-49 224,-43 230,-37 236,-37 236,-37 266,-37 266,-37 272,-37 278,-43 278,-49 278,-49 278,-61 278,-61 278,-67 272,-73 266,-73"/>
<text text-anchor="middle" x="251" y="-58" font-family="Helvetica,sans-Serif" font-size="10.00">19</text>
<text text-anchor="middle" x="251" y="-47" font-family="Helvetica,sans-Serif" font-size="10.00">NOR</text>
</g>
<!-- 2&#45;&gt;19 -->
<g id="edge3" class="edge">
<title>2:e&#45;&gt;19:w</title>
<path fill="none" stroke="#585858" stroke-width="2" d="M140,-128C140,-128 199.25,-76.51 218.23,-60.02"/>
<polygon fill="#585858" stroke="#585858" stroke-width="2" points="220.06,-61.9 224,-55 216.62,-57.94 220.06,-61.9"/>
<path fill="none" stroke="#585858" stroke-width="2" d="M54,-128C54,-128 138,-128 138,-128"/>
</g>
<!-- 21 -->
<g id="node8" class="node">
<title>21</title>
<path fill="#c1e6fb" stroke="#585858" d="M490,-109C490,-109 460,-109 460,-109 454,-109 448,-103 448,-97 448,-97 448,-85 448,-85 448,-79 454,-73 460,-73 460,-73 490,-73 490,-73 496,-73 502,-79 502,-85 502,-85 502,-97 502,-97 502,-103 496,-109 490,-109"/>
<text text-anchor="middle" x="475" y="-94" font-family="Helvetica,sans-Serif" font-size="10.00">21</text>
<text text-anchor="middle" x="475" y="-83" font-family="Helvetica,sans-Serif" font-size="10.00">NOR</text>
</g>
<!-- 2&#45;&gt;21 -->
<g id="edge4" class="edge">
<title>2:e&#45;&gt;21:w</title>
<path fill="none" stroke="#585858" stroke-width="2" d="M140,-128C140,-128 392.96,-97.61 440.39,-91.91"/>
<polygon fill="#585858" stroke="#585858" stroke-width="2" points="440.87,-94.5 448,-91 440.24,-89.29 440.87,-94.5"/>
</g>
<!-- 13 -->
<g id="node4" class="node">
<title>13</title>
<path fill="#fcffe5" stroke="#585858" d="M614,-73C614,-73 572,-73 572,-73 566,-73 560,-67 560,-61 560,-61 560,-49 560,-49 560,-43 566,-37 572,-37 572,-37 614,-37 614,-37 620,-37 626,-43 626,-49 626,-49 626,-61 626,-61 626,-67 620,-73 614,-73"/>
<text text-anchor="middle" x="593" y="-58" font-family="Helvetica,sans-Serif" font-size="10.00">13</text>
<text text-anchor="middle" x="593" y="-47" font-family="Helvetica,sans-Serif" font-size="10.00">OR/OUTPUT</text>
</g>
<!-- 18&#45;&gt;19 -->
<g id="edge5" class="edge">
<title>18:e&#45;&gt;19:w</title>
<path fill="none" stroke="#585858" stroke-width="2" d="M166,-18C166,-18 202.11,-41.04 217.35,-50.76"/>
<polygon fill="#585858" stroke="#585858" stroke-width="2" points="216.27,-53.18 224,-55 219.09,-48.75 216.27,-53.18"/>
</g>
<!-- 22 -->
<g id="node9" class="node">
<title>22</title>
<path fill="#c1e6fb" stroke="#585858" d="M490,-37C490,-37 460,-37 460,-37 454,-37 448,-31 448,-25 448,-25 448,-13 448,-13 448,-7 454,-1 460,-1 460,-1 490,-1 490,-1 496,-1 502,-7 502,-13 502,-13 502,-25 502,-25 502,-31 496,-37 490,-37"/>
<text text-anchor="middle" x="475" y="-22" font-family="Helvetica,sans-Serif" font-size="10.00">22</text>
<text text-anchor="middle" x="475" y="-11" font-family="Helvetica,sans-Serif" font-size="10.00">NOR</text>
</g>
<!-- 18&#45;&gt;22 -->
<g id="edge6" class="edge">
<title>18:e&#45;&gt;22:w</title>
<path fill="none" stroke="#585858" stroke-width="2" d="M166,-18C166,-18 395.61,-18.81 440.46,-18.97"/>
<polygon fill="#585858" stroke="#585858" stroke-width="2" points="440.49,-21.6 448,-19 440.51,-16.35 440.49,-21.6"/>
</g>
<!-- 19&#45;&gt;20 -->
<g id="edge7" class="edge">
<title>19:e&#45;&gt;20:w</title>
<path fill="none" stroke="#585858" stroke-width="2" d="M278,-55C278,-55 312.7,-55 328.42,-55"/>
<polygon fill="#585858" stroke="#585858" stroke-width="2" points="328.5,-57.63 336,-55 328.5,-52.38 328.5,-57.63"/>
</g>
<!-- 20&#45;&gt;21 -->
<g id="edge8" class="edge">
<title>20:e&#45;&gt;21:w</title>
<path fill="none" stroke="#585858" stroke-width="2" d="M390,-55C390,-55 426.11,-77.41 441.35,-86.87"/>
<polygon fill="#585858" stroke="#585858" stroke-width="2" points="440.24,-89.28 448,-91 443.01,-84.81 440.24,-89.28"/>
</g>
<!-- 20&#45;&gt;22 -->
<g id="edge9" class="edge">
<title>20:e&#45;&gt;22:w</title>
<path fill="none" stroke="#585858" stroke-width="2" d="M390,-55C390,-55 426.11,-32.59 441.35,-23.13"/>
<polygon fill="#585858" stroke="#585858" stroke-width="2" points="443.01,-25.19 448,-19 440.24,-20.72 443.01,-25.19"/>
</g>
<!-- 21&#45;&gt;13 -->
<g id="edge10" class="edge">
<title>21:e&#45;&gt;13:w</title>
<path fill="none" stroke="#585858" stroke-width="2" d="M502,-91C502,-91 538.11,-68.59 553.35,-59.13"/>
<polygon fill="#585858" stroke="#585858" stroke-width="2" points="555.01,-61.19 560,-55 552.24,-56.72 555.01,-61.19"/>
</g>
<!-- 22&#45;&gt;13 -->
<g id="edge11" class="edge">
<title>22:e&#45;&gt;13:w</title>
<path fill="none" stroke="#585858" stroke-width="2" d="M502,-19C502,-19 538.11,-41.41 553.35,-50.87"/>
<polygon fill="#585858" stroke="#585858" stroke-width="2" points="552.24,-53.28 560,-55 555.01,-48.81 552.24,-53.28"/>
</g>
</g>
</svg>
