<?xml version="1.0" encoding="UTF-8" standalone="no"?>
<!DOCTYPE svg PUBLIC "-//W3C//DTD SVG 1.1//EN"
 "http://www.w3.org/Graphics/SVG/1.1/DTD/svg11.dtd">
<!-- Generated by graphviz version 2.43.0 (0)
 -->
<!-- Title: optimal_topology_with_parts_assigned_0x2B_0_1 Pages: 1 -->
<svg width="446pt" height="206pt"
 viewBox="3.60 3.60 442.80 202.80" xmlns="http://www.w3.org/2000/svg" xmlns:xlink="http://www.w3.org/1999/xlink">
<g id="graph0" class="graph" transform="scale(1 1) rotate(0) translate(7.2 199.2)">
<title>optimal_topology_with_parts_assigned_0x2B_0_1</title>
<polygon fill="white" stroke="transparent" points="-3.6,3.6 -3.6,-195.6 435.6,-195.6 435.6,3.6 -3.6,3.6"/>
<!-- 0 -->
<g id="node1" class="node">
<title>0</title>
<path fill="#f2fef2" stroke="#585858" d="M42,-36C42,-36 12,-36 12,-36 6,-36 0,-30 0,-24 0,-24 0,-12 0,-12 0,-6 6,0 12,0 12,0 42,0 42,0 48,0 54,-6 54,-12 54,-12 54,-24 54,-24 54,-30 48,-36 42,-36"/>
<text text-anchor="middle" x="27" y="-20.8" font-family="Helvetica,sans-Serif" font-size="9.00">0</text>
<text text-anchor="middle" x="27" y="-10.8" font-family="Helvetica,sans-Serif" font-size="9.00">INPUT</text>
</g>
<!-- 7 -->
<g id="node8" class="node">
<title>7</title>
<path fill="#f4eef5" stroke="#666666" d="M136,-36C136,-36 106,-36 106,-36 100,-36 94,-30 94,-24 94,-24 94,-12 94,-12 94,-6 100,0 106,0 106,0 136,0 136,0 142,0 148,-6 148,-12 148,-12 148,-24 148,-24 148,-30 142,-36 136,-36"/>
<text text-anchor="middle" x="121" y="-20.8" font-family="Helvetica,sans-Serif" font-size="9.00">PsrA</text>
<text text-anchor="middle" x="121" y="-10.8" font-family="Helvetica,sans-Serif" font-size="9.00">R1</text>
</g>
<!-- 0&#45;&gt;7 -->
<g id="edge1" class="edge">
<title>0:e&#45;&gt;7:w</title>
<path fill="none" stroke="#585858" stroke-width="2" d="M54,-18C54,-18 74.66,-18 86.29,-18"/>
<polygon fill="#585858" stroke="#585858" stroke-width="2" points="86.5,-20.63 94,-18 86.5,-15.38 86.5,-20.63"/>
</g>
<!-- 1 -->
<g id="node2" class="node">
<title>1</title>
<path fill="#f2fef2" stroke="#585858" d="M42,-120C42,-120 12,-120 12,-120 6,-120 0,-114 0,-108 0,-108 0,-96 0,-96 0,-90 6,-84 12,-84 12,-84 42,-84 42,-84 48,-84 54,-90 54,-96 54,-96 54,-108 54,-108 54,-114 48,-120 42,-120"/>
<text text-anchor="middle" x="27" y="-104.8" font-family="Helvetica,sans-Serif" font-size="9.00">1</text>
<text text-anchor="middle" x="27" y="-94.8" font-family="Helvetica,sans-Serif" font-size="9.00">INPUT</text>
</g>
<!-- 4 -->
<g id="node5" class="node">
<title>4</title>
<path fill="#f6f9fd" stroke="#666666" d="M136,-148C136,-148 106,-148 106,-148 100,-148 94,-142 94,-136 94,-136 94,-124 94,-124 94,-118 100,-112 106,-112 106,-112 136,-112 136,-112 142,-112 148,-118 148,-124 148,-124 148,-136 148,-136 148,-142 142,-148 136,-148"/>
<text text-anchor="middle" x="121" y="-132.8" font-family="Helvetica,sans-Serif" font-size="9.00">BetI</text>
<text text-anchor="middle" x="121" y="-122.8" font-family="Helvetica,sans-Serif" font-size="9.00">E1</text>
</g>
<!-- 1&#45;&gt;4 -->
<g id="edge2" class="edge">
<title>1:e&#45;&gt;4:w</title>
<path fill="none" stroke="#585858" stroke-width="2" d="M54,-102C54,-102 76.5,-117.75 87.75,-125.62"/>
<polygon fill="#585858" stroke="#585858" stroke-width="2" points="86.35,-127.85 94,-130 89.36,-123.55 86.35,-127.85"/>
</g>
<!-- 6 -->
<g id="node7" class="node">
<title>6</title>
<path fill="#fce2e4" stroke="#666666" d="M230,-92C230,-92 200,-92 200,-92 194,-92 188,-86 188,-80 188,-80 188,-68 188,-68 188,-62 194,-56 200,-56 200,-56 230,-56 230,-56 236,-56 242,-62 242,-68 242,-68 242,-80 242,-80 242,-86 236,-92 230,-92"/>
<text text-anchor="middle" x="215" y="-76.8" font-family="Helvetica,sans-Serif" font-size="9.00">QacR</text>
<text text-anchor="middle" x="215" y="-66.8" font-family="Helvetica,sans-Serif" font-size="9.00">Q2</text>
</g>
<!-- 1&#45;&gt;6 -->
<g id="edge3" class="edge">
<title>1:e&#45;&gt;6:w</title>
<path fill="none" stroke="#585858" stroke-width="2" d="M54,-102C54,-102 152.06,-81.51 180.41,-75.59"/>
<polygon fill="#585858" stroke="#585858" stroke-width="2" points="181.2,-78.1 188,-74 180.12,-72.96 181.2,-78.1"/>
</g>
<!-- 2 -->
<g id="node3" class="node">
<title>2</title>
<path fill="#f2fef2" stroke="#585858" d="M42,-192C42,-192 12,-192 12,-192 6,-192 0,-186 0,-180 0,-180 0,-168 0,-168 0,-162 6,-156 12,-156 12,-156 42,-156 42,-156 48,-156 54,-162 54,-168 54,-168 54,-180 54,-180 54,-186 48,-192 42,-192"/>
<text text-anchor="middle" x="27" y="-176.8" font-family="Helvetica,sans-Serif" font-size="9.00">2</text>
<text text-anchor="middle" x="27" y="-166.8" font-family="Helvetica,sans-Serif" font-size="9.00">INPUT</text>
</g>
<!-- 2&#45;&gt;4 -->
<g id="edge4" class="edge">
<title>2:e&#45;&gt;4:w</title>
<path fill="none" stroke="#585858" stroke-width="2" d="M54,-174C54,-174 77.93,-147.68 88.77,-135.75"/>
<polygon fill="#585858" stroke="#585858" stroke-width="2" points="90.9,-137.32 94,-130 87.01,-133.78 90.9,-137.32"/>
</g>
<!-- 5 -->
<g id="node6" class="node">
<title>5</title>
<path fill="#dae8f3" stroke="#666666" d="M230,-153C230,-153 200,-153 200,-153 194,-153 188,-147 188,-141 188,-141 188,-129 188,-129 188,-123 194,-117 200,-117 200,-117 230,-117 230,-117 236,-117 242,-123 242,-129 242,-129 242,-141 242,-141 242,-147 236,-153 230,-153"/>
<text text-anchor="middle" x="215" y="-137.8" font-family="Helvetica,sans-Serif" font-size="9.00">SrpR</text>
<text text-anchor="middle" x="215" y="-127.8" font-family="Helvetica,sans-Serif" font-size="9.00">S4</text>
</g>
<!-- 2&#45;&gt;5 -->
<g id="edge5" class="edge">
<title>2:e&#45;&gt;5:w</title>
<path fill="none" stroke="#585858" stroke-width="2" d="M54,-174C54,-174 148,-161 148,-161 148,-161 170.03,-146.68 181.39,-139.29"/>
<polygon fill="#585858" stroke="#585858" stroke-width="2" points="183.14,-141.29 188,-135 180.28,-136.89 183.14,-141.29"/>
</g>
<!-- 3 -->
<g id="node4" class="node">
<title>3</title>
<path fill="#fcffe5" stroke="#585858" d="M420,-120C420,-120 388,-120 388,-120 382,-120 376,-114 376,-108 376,-108 376,-96 376,-96 376,-90 382,-84 388,-84 388,-84 420,-84 420,-84 426,-84 432,-90 432,-96 432,-96 432,-108 432,-108 432,-114 426,-120 420,-120"/>
<text text-anchor="middle" x="404" y="-104.8" font-family="Helvetica,sans-Serif" font-size="9.00">3</text>
<text text-anchor="middle" x="404" y="-94.8" font-family="Helvetica,sans-Serif" font-size="9.00">OR/OUTPUT</text>
</g>
<!-- 4&#45;&gt;5 -->
<g id="edge6" class="edge">
<title>4:e&#45;&gt;5:w</title>
<path fill="none" stroke="#585858" stroke-width="2" d="M148,-130C148,-130 168.66,-132.58 180.29,-134.04"/>
<polygon fill="#585858" stroke="#585858" stroke-width="2" points="180.23,-136.67 188,-135 180.88,-131.46 180.23,-136.67"/>
</g>
<!-- 4&#45;&gt;6 -->
<g id="edge7" class="edge">
<title>4:e&#45;&gt;6:w</title>
<path fill="none" stroke="#585858" stroke-width="2" d="M148,-130C148,-130 172.9,-95.13 183.41,-80.42"/>
<polygon fill="#585858" stroke="#585858" stroke-width="2" points="185.78,-81.63 188,-74 181.5,-78.58 185.78,-81.63"/>
</g>
<!-- 5&#45;&gt;3 -->
<g id="edge8" class="edge">
<title>5:e&#45;&gt;3:w</title>
<path fill="none" stroke="#585858" stroke-width="2" d="M242,-135C242,-135 340.06,-110.85 368.41,-103.87"/>
<polygon fill="#585858" stroke="#585858" stroke-width="2" points="369.35,-106.34 376,-102 368.09,-101.24 369.35,-106.34"/>
</g>
<!-- 8 -->
<g id="node9" class="node">
<title>8</title>
<path fill="#faede4" stroke="#666666" d="M324,-92C324,-92 294,-92 294,-92 288,-92 282,-86 282,-80 282,-80 282,-68 282,-68 282,-62 288,-56 294,-56 294,-56 324,-56 324,-56 330,-56 336,-62 336,-68 336,-68 336,-80 336,-80 336,-86 330,-92 324,-92"/>
<text text-anchor="middle" x="309" y="-76.8" font-family="Helvetica,sans-Serif" font-size="9.00">PhlF</text>
<text text-anchor="middle" x="309" y="-66.8" font-family="Helvetica,sans-Serif" font-size="9.00">P3</text>
</g>
<!-- 6&#45;&gt;8 -->
<g id="edge9" class="edge">
<title>6:e&#45;&gt;8:w</title>
<path fill="none" stroke="#585858" stroke-width="2" d="M242,-74C242,-74 262.66,-74 274.29,-74"/>
<polygon fill="#585858" stroke="#585858" stroke-width="2" points="274.5,-76.63 282,-74 274.5,-71.38 274.5,-76.63"/>
</g>
<!-- 7&#45;&gt;8 -->
<g id="edge10" class="edge">
<title>7:e&#45;&gt;8:w</title>
<path fill="none" stroke="#585858" stroke-width="2" d="M148,-18C148,-18 242,-44 242,-44 242,-44 264.5,-60.88 275.75,-69.31"/>
<polygon fill="#585858" stroke="#585858" stroke-width="2" points="274.42,-71.6 282,-74 277.57,-67.4 274.42,-71.6"/>
</g>
<!-- 8&#45;&gt;3 -->
<g id="edge11" class="edge">
<title>8:e&#45;&gt;3:w</title>
<path fill="none" stroke="#585858" stroke-width="2" d="M336,-74C336,-74 358.5,-89.75 369.75,-97.62"/>
<polygon fill="#585858" stroke="#585858" stroke-width="2" points="368.35,-99.85 376,-102 371.36,-95.55 368.35,-99.85"/>
</g>
</g>
</svg>
