<?xml version="1.0" encoding="UTF-8" standalone="no"?>
<!DOCTYPE svg PUBLIC "-//W3C//DTD SVG 1.1//EN"
 "http://www.w3.org/Graphics/SVG/1.1/DTD/svg11.dtd">
<!-- Generated by graphviz version 2.43.0 (0)
 -->
<!-- Title: 0x2B_optimal_topology_2 Pages: 1 -->
<svg width="538pt" height="204pt"
 viewBox="3.60 3.60 534.80 200.80" xmlns="http://www.w3.org/2000/svg" xmlns:xlink="http://www.w3.org/1999/xlink">
<g id="graph0" class="graph" transform="scale(1 1) rotate(0) translate(7.2 197.2)">
<title>0x2B_optimal_topology_2</title>
<polygon fill="white" stroke="transparent" points="-3.6,3.6 -3.6,-193.6 527.6,-193.6 527.6,3.6 -3.6,3.6"/>
<!-- 0 -->
<g id="node1" class="node">
<title>0</title>
<path fill="#f2fef2" stroke="#585858" d="M42,-36C42,-36 12,-36 12,-36 6,-36 0,-30 0,-24 0,-24 0,-12 0,-12 0,-6 6,0 12,0 12,0 42,0 42,0 48,0 54,-6 54,-12 54,-12 54,-24 54,-24 54,-30 48,-36 42,-36"/>
<text text-anchor="middle" x="27" y="-20.8" font-family="Helvetica,sans-Serif" font-size="9.00">0</text>
<text text-anchor="middle" x="27" y="-10.8" font-family="Helvetica,sans-Serif" font-size="9.00">INPUT</text>
</g>
<!-- 18 -->
<g id="node9" class="node">
<title>18</title>
<path fill="#c1e6fb" stroke="#585858" d="M324,-92C324,-92 294,-92 294,-92 288,-92 282,-86 282,-80 282,-80 282,-68 282,-68 282,-62 288,-56 294,-56 294,-56 324,-56 324,-56 330,-56 336,-62 336,-68 336,-68 336,-80 336,-80 336,-86 330,-92 324,-92"/>
<text text-anchor="middle" x="309" y="-76.8" font-family="Helvetica,sans-Serif" font-size="9.00">18</text>
<text text-anchor="middle" x="309" y="-66.8" font-family="Helvetica,sans-Serif" font-size="9.00">NOR</text>
</g>
<!-- 0&#45;&gt;18 -->
<g id="edge3" class="edge">
<title>0:e&#45;&gt;18:w</title>
<path fill="none" stroke="#585858" stroke-width="2" d="M54,-18C54,-18 242,-44 242,-44 242,-44 264.5,-60.88 275.75,-69.31"/>
<polygon fill="#585858" stroke="#585858" stroke-width="2" points="274.42,-71.6 282,-74 277.57,-67.4 274.42,-71.6"/>
</g>
<!-- 1 -->
<g id="node2" class="node">
<title>1</title>
<path fill="#f2fef2" stroke="#585858" d="M42,-190C42,-190 12,-190 12,-190 6,-190 0,-184 0,-178 0,-178 0,-166 0,-166 0,-160 6,-154 12,-154 12,-154 42,-154 42,-154 48,-154 54,-160 54,-166 54,-166 54,-178 54,-178 54,-184 48,-190 42,-190"/>
<text text-anchor="middle" x="27" y="-174.8" font-family="Helvetica,sans-Serif" font-size="9.00">1</text>
<text text-anchor="middle" x="27" y="-164.8" font-family="Helvetica,sans-Serif" font-size="9.00">INPUT</text>
</g>
<!-- 15 -->
<g id="node6" class="node">
<title>15</title>
<path fill="#c1e6fb" stroke="#585858" d="M136,-145C136,-145 106,-145 106,-145 100,-145 94,-139 94,-133 94,-133 94,-121 94,-121 94,-115 100,-109 106,-109 106,-109 136,-109 136,-109 142,-109 148,-115 148,-121 148,-121 148,-133 148,-133 148,-139 142,-145 136,-145"/>
<text text-anchor="middle" x="121" y="-129.8" font-family="Helvetica,sans-Serif" font-size="9.00">15</text>
<text text-anchor="middle" x="121" y="-119.8" font-family="Helvetica,sans-Serif" font-size="9.00">NOR</text>
</g>
<!-- 1&#45;&gt;15 -->
<g id="edge1" class="edge">
<title>1:e&#45;&gt;15:w</title>
<path fill="none" stroke="#585858" stroke-width="2" d="M54,-172C54,-172 77.93,-145.08 88.77,-132.88"/>
<polygon fill="#585858" stroke="#585858" stroke-width="2" points="90.98,-134.35 94,-127 87.06,-130.86 90.98,-134.35"/>
</g>
<!-- 16 -->
<g id="node7" class="node">
<title>16</title>
<path fill="#c1e6fb" stroke="#585858" d="M230,-153C230,-153 200,-153 200,-153 194,-153 188,-147 188,-141 188,-141 188,-129 188,-129 188,-123 194,-117 200,-117 200,-117 230,-117 230,-117 236,-117 242,-123 242,-129 242,-129 242,-141 242,-141 242,-147 236,-153 230,-153"/>
<text text-anchor="middle" x="215" y="-137.8" font-family="Helvetica,sans-Serif" font-size="9.00">16</text>
<text text-anchor="middle" x="215" y="-127.8" font-family="Helvetica,sans-Serif" font-size="9.00">NOR</text>
</g>
<!-- 1&#45;&gt;16 -->
<g id="edge2" class="edge">
<title>1:e&#45;&gt;16:w</title>
<path fill="none" stroke="#585858" stroke-width="2" d="M54,-172C54,-172 148,-158 148,-158 148,-158 170.03,-145.33 181.39,-138.8"/>
<polygon fill="#585858" stroke="#585858" stroke-width="2" points="182.81,-141.01 188,-135 180.19,-136.46 182.81,-141.01"/>
</g>
<!-- 2 -->
<g id="node3" class="node">
<title>2</title>
<path fill="#f2fef2" stroke="#585858" d="M42,-118C42,-118 12,-118 12,-118 6,-118 0,-112 0,-106 0,-106 0,-94 0,-94 0,-88 6,-82 12,-82 12,-82 42,-82 42,-82 48,-82 54,-88 54,-94 54,-94 54,-106 54,-106 54,-112 48,-118 42,-118"/>
<text text-anchor="middle" x="27" y="-102.8" font-family="Helvetica,sans-Serif" font-size="9.00">2</text>
<text text-anchor="middle" x="27" y="-92.8" font-family="Helvetica,sans-Serif" font-size="9.00">INPUT</text>
</g>
<!-- 2&#45;&gt;15 -->
<g id="edge4" class="edge">
<title>2:e&#45;&gt;15:w</title>
<path fill="none" stroke="#585858" stroke-width="2" d="M54,-100C54,-100 76.5,-115.19 87.75,-122.78"/>
<polygon fill="#585858" stroke="#585858" stroke-width="2" points="86.31,-124.98 94,-127 89.25,-120.63 86.31,-124.98"/>
</g>
<!-- 17 -->
<g id="node8" class="node">
<title>17</title>
<path fill="#c1e6fb" stroke="#585858" d="M230,-92C230,-92 200,-92 200,-92 194,-92 188,-86 188,-80 188,-80 188,-68 188,-68 188,-62 194,-56 200,-56 200,-56 230,-56 230,-56 236,-56 242,-62 242,-68 242,-68 242,-80 242,-80 242,-86 236,-92 230,-92"/>
<text text-anchor="middle" x="215" y="-76.8" font-family="Helvetica,sans-Serif" font-size="9.00">17</text>
<text text-anchor="middle" x="215" y="-66.8" font-family="Helvetica,sans-Serif" font-size="9.00">NOR</text>
</g>
<!-- 2&#45;&gt;17 -->
<g id="edge5" class="edge">
<title>2:e&#45;&gt;17:w</title>
<path fill="none" stroke="#585858" stroke-width="2" d="M54,-100C54,-100 152.06,-80.97 180.41,-75.47"/>
<polygon fill="#585858" stroke="#585858" stroke-width="2" points="181.14,-78.01 188,-74 180.14,-72.85 181.14,-78.01"/>
</g>
<!-- 13 -->
<g id="node4" class="node">
<title>13</title>
<path fill="#fcffe5" stroke="#585858" d="M512,-120C512,-120 482,-120 482,-120 476,-120 470,-114 470,-108 470,-108 470,-96 470,-96 470,-90 476,-84 482,-84 482,-84 512,-84 512,-84 518,-84 524,-90 524,-96 524,-96 524,-108 524,-108 524,-114 518,-120 512,-120"/>
<text text-anchor="middle" x="497" y="-104.8" font-family="Helvetica,sans-Serif" font-size="9.00">13</text>
<text text-anchor="middle" x="497" y="-94.8" font-family="Helvetica,sans-Serif" font-size="9.00">OUTPUT</text>
</g>
<!-- 14 -->
<g id="node5" class="node">
<title>14</title>
<path fill="#c1e6fb" stroke="#585858" d="M418,-120C418,-120 388,-120 388,-120 382,-120 376,-114 376,-108 376,-108 376,-96 376,-96 376,-90 382,-84 388,-84 388,-84 418,-84 418,-84 424,-84 430,-90 430,-96 430,-96 430,-108 430,-108 430,-114 424,-120 418,-120"/>
<text text-anchor="middle" x="403" y="-104.8" font-family="Helvetica,sans-Serif" font-size="9.00">14</text>
<text text-anchor="middle" x="403" y="-94.8" font-family="Helvetica,sans-Serif" font-size="9.00">NOR</text>
</g>
<!-- 14&#45;&gt;13 -->
<g id="edge6" class="edge">
<title>14:e&#45;&gt;13:w</title>
<path fill="none" stroke="#585858" stroke-width="2" d="M430,-102C430,-102 450.66,-102 462.29,-102"/>
<polygon fill="#585858" stroke="#585858" stroke-width="2" points="462.5,-104.63 470,-102 462.5,-99.38 462.5,-104.63"/>
</g>
<!-- 15&#45;&gt;16 -->
<g id="edge7" class="edge">
<title>15:e&#45;&gt;16:w</title>
<path fill="none" stroke="#585858" stroke-width="2" d="M148,-127C148,-127 168.66,-131.13 180.29,-133.46"/>
<polygon fill="#585858" stroke="#585858" stroke-width="2" points="180.13,-136.1 188,-135 181.16,-130.96 180.13,-136.1"/>
</g>
<!-- 15&#45;&gt;17 -->
<g id="edge8" class="edge">
<title>15:e&#45;&gt;17:w</title>
<path fill="none" stroke="#585858" stroke-width="2" d="M148,-127C148,-127 172.9,-94 183.41,-80.08"/>
<polygon fill="#585858" stroke="#585858" stroke-width="2" points="185.58,-81.57 188,-74 181.39,-78.41 185.58,-81.57"/>
</g>
<!-- 16&#45;&gt;14 -->
<g id="edge9" class="edge">
<title>16:e&#45;&gt;14:w</title>
<path fill="none" stroke="#585858" stroke-width="2" d="M242,-135C242,-135 340.06,-110.85 368.41,-103.87"/>
<polygon fill="#585858" stroke="#585858" stroke-width="2" points="369.35,-106.34 376,-102 368.09,-101.24 369.35,-106.34"/>
</g>
<!-- 17&#45;&gt;18 -->
<g id="edge10" class="edge">
<title>17:e&#45;&gt;18:w</title>
<path fill="none" stroke="#585858" stroke-width="2" d="M242,-74C242,-74 262.66,-74 274.29,-74"/>
<polygon fill="#585858" stroke="#585858" stroke-width="2" points="274.5,-76.63 282,-74 274.5,-71.38 274.5,-76.63"/>
</g>
<!-- 18&#45;&gt;14 -->
<g id="edge11" class="edge">
<title>18:e&#45;&gt;14:w</title>
<path fill="none" stroke="#585858" stroke-width="2" d="M336,-74C336,-74 358.5,-89.75 369.75,-97.62"/>
<polygon fill="#585858" stroke="#585858" stroke-width="2" points="368.35,-99.85 376,-102 371.36,-95.55 368.35,-99.85"/>
</g>
</g>
</svg>
