<?xml version="1.0" encoding="UTF-8" standalone="no"?>
<!DOCTYPE svg PUBLIC "-//W3C//DTD SVG 1.1//EN"
 "http://www.w3.org/Graphics/SVG/1.1/DTD/svg11.dtd">
<!-- Generated by graphviz version 2.43.0 (0)
 -->
<!-- Title: 0x2B_optimal_topology_5 Pages: 1 -->
<svg width="540pt" height="198pt"
 viewBox="3.60 3.60 536.80 194.80" xmlns="http://www.w3.org/2000/svg" xmlns:xlink="http://www.w3.org/1999/xlink">
<g id="graph0" class="graph" transform="scale(1 1) rotate(0) translate(7.2 191.2)">
<title>0x2B_optimal_topology_5</title>
<polygon fill="white" stroke="transparent" points="-3.6,3.6 -3.6,-187.6 529.6,-187.6 529.6,3.6 -3.6,3.6"/>
<!-- 0 -->
<g id="node1" class="node">
<title>0</title>
<path fill="#f2fef2" stroke="#585858" d="M42,-184C42,-184 12,-184 12,-184 6,-184 0,-178 0,-172 0,-172 0,-160 0,-160 0,-154 6,-148 12,-148 12,-148 42,-148 42,-148 48,-148 54,-154 54,-160 54,-160 54,-172 54,-172 54,-178 48,-184 42,-184"/>
<text text-anchor="middle" x="27" y="-168.8" font-family="Helvetica,sans-Serif" font-size="9.00">0</text>
<text text-anchor="middle" x="27" y="-158.8" font-family="Helvetica,sans-Serif" font-size="9.00">INPUT</text>
</g>
<!-- 20 -->
<g id="node7" class="node">
<title>20</title>
<path fill="#c1e6fb" stroke="#585858" d="M324,-72C324,-72 294,-72 294,-72 288,-72 282,-66 282,-60 282,-60 282,-48 282,-48 282,-42 288,-36 294,-36 294,-36 324,-36 324,-36 330,-36 336,-42 336,-48 336,-48 336,-60 336,-60 336,-66 330,-72 324,-72"/>
<text text-anchor="middle" x="309" y="-56.8" font-family="Helvetica,sans-Serif" font-size="9.00">20</text>
<text text-anchor="middle" x="309" y="-46.8" font-family="Helvetica,sans-Serif" font-size="9.00">NOR</text>
</g>
<!-- 0&#45;&gt;20 -->
<g id="edge2" class="edge">
<title>0:e&#45;&gt;20:w</title>
<path fill="none" stroke="#585858" stroke-width="2" d="M54,-166C54,-166 148,-129 148,-129 148,-129 242,-85 242,-85 242,-85 264.5,-67.56 275.75,-58.84"/>
<polygon fill="#585858" stroke="#585858" stroke-width="2" points="277.68,-60.67 282,-54 274.46,-56.52 277.68,-60.67"/>
</g>
<!-- 1 -->
<g id="node2" class="node">
<title>1</title>
<path fill="#f2fef2" stroke="#585858" d="M42,-36C42,-36 12,-36 12,-36 6,-36 0,-30 0,-24 0,-24 0,-12 0,-12 0,-6 6,0 12,0 12,0 42,0 42,0 48,0 54,-6 54,-12 54,-12 54,-24 54,-24 54,-30 48,-36 42,-36"/>
<text text-anchor="middle" x="27" y="-20.8" font-family="Helvetica,sans-Serif" font-size="9.00">1</text>
<text text-anchor="middle" x="27" y="-10.8" font-family="Helvetica,sans-Serif" font-size="9.00">INPUT</text>
</g>
<!-- 18 -->
<g id="node5" class="node">
<title>18</title>
<path fill="#c1e6fb" stroke="#585858" d="M136,-36C136,-36 106,-36 106,-36 100,-36 94,-30 94,-24 94,-24 94,-12 94,-12 94,-6 100,0 106,0 106,0 136,0 136,0 142,0 148,-6 148,-12 148,-12 148,-24 148,-24 148,-30 142,-36 136,-36"/>
<text text-anchor="middle" x="121" y="-20.8" font-family="Helvetica,sans-Serif" font-size="9.00">18</text>
<text text-anchor="middle" x="121" y="-10.8" font-family="Helvetica,sans-Serif" font-size="9.00">NOT</text>
</g>
<!-- 1&#45;&gt;18 -->
<g id="edge1" class="edge">
<title>1:e&#45;&gt;18:w</title>
<path fill="none" stroke="#585858" stroke-width="2" d="M54,-18C54,-18 74.66,-18 86.29,-18"/>
<polygon fill="#585858" stroke="#585858" stroke-width="2" points="86.5,-20.63 94,-18 86.5,-15.38 86.5,-20.63"/>
</g>
<!-- 2 -->
<g id="node3" class="node">
<title>2</title>
<path fill="#f2fef2" stroke="#585858" d="M42,-123C42,-123 12,-123 12,-123 6,-123 0,-117 0,-111 0,-111 0,-99 0,-99 0,-93 6,-87 12,-87 12,-87 42,-87 42,-87 48,-87 54,-93 54,-99 54,-99 54,-111 54,-111 54,-117 48,-123 42,-123"/>
<text text-anchor="middle" x="27" y="-107.8" font-family="Helvetica,sans-Serif" font-size="9.00">2</text>
<text text-anchor="middle" x="27" y="-97.8" font-family="Helvetica,sans-Serif" font-size="9.00">INPUT</text>
</g>
<!-- 19 -->
<g id="node6" class="node">
<title>19</title>
<path fill="#c1e6fb" stroke="#585858" d="M230,-72C230,-72 200,-72 200,-72 194,-72 188,-66 188,-60 188,-60 188,-48 188,-48 188,-42 194,-36 200,-36 200,-36 230,-36 230,-36 236,-36 242,-42 242,-48 242,-48 242,-60 242,-60 242,-66 236,-72 230,-72"/>
<text text-anchor="middle" x="215" y="-56.8" font-family="Helvetica,sans-Serif" font-size="9.00">19</text>
<text text-anchor="middle" x="215" y="-46.8" font-family="Helvetica,sans-Serif" font-size="9.00">NOR</text>
</g>
<!-- 2&#45;&gt;19 -->
<g id="edge3" class="edge">
<title>2:e&#45;&gt;19:w</title>
<path fill="none" stroke="#585858" stroke-width="2" d="M122,-110C122,-110 165.57,-73.03 181.91,-59.17"/>
<polygon fill="#585858" stroke="#585858" stroke-width="2" points="183.98,-60.85 188,-54 180.58,-56.85 183.98,-60.85"/>
<path fill="none" stroke="#585858" stroke-width="2" d="M54,-105C54,-105 120,-110 120,-110"/>
</g>
<!-- 21 -->
<g id="node8" class="node">
<title>21</title>
<path fill="#c1e6fb" stroke="#585858" d="M418,-102C418,-102 388,-102 388,-102 382,-102 376,-96 376,-90 376,-90 376,-78 376,-78 376,-72 382,-66 388,-66 388,-66 418,-66 418,-66 424,-66 430,-72 430,-78 430,-78 430,-90 430,-90 430,-96 424,-102 418,-102"/>
<text text-anchor="middle" x="403" y="-86.8" font-family="Helvetica,sans-Serif" font-size="9.00">21</text>
<text text-anchor="middle" x="403" y="-76.8" font-family="Helvetica,sans-Serif" font-size="9.00">NOR</text>
</g>
<!-- 2&#45;&gt;21 -->
<g id="edge4" class="edge">
<title>2:e&#45;&gt;21:w</title>
<path fill="none" stroke="#585858" stroke-width="2" d="M122,-110C122,-110 326.14,-89.1 368.4,-84.78"/>
<polygon fill="#585858" stroke="#585858" stroke-width="2" points="368.81,-87.38 376,-84 368.27,-82.15 368.81,-87.38"/>
</g>
<!-- 13 -->
<g id="node4" class="node">
<title>13</title>
<path fill="#fcffe5" stroke="#585858" d="M514,-71C514,-71 482,-71 482,-71 476,-71 470,-65 470,-59 470,-59 470,-47 470,-47 470,-41 476,-35 482,-35 482,-35 514,-35 514,-35 520,-35 526,-41 526,-47 526,-47 526,-59 526,-59 526,-65 520,-71 514,-71"/>
<text text-anchor="middle" x="498" y="-55.8" font-family="Helvetica,sans-Serif" font-size="9.00">13</text>
<text text-anchor="middle" x="498" y="-45.8" font-family="Helvetica,sans-Serif" font-size="9.00">OR/OUTPUT</text>
</g>
<!-- 18&#45;&gt;19 -->
<g id="edge5" class="edge">
<title>18:e&#45;&gt;19:w</title>
<path fill="none" stroke="#585858" stroke-width="2" d="M148,-18C148,-18 170.97,-38.67 182.1,-48.69"/>
<polygon fill="#585858" stroke="#585858" stroke-width="2" points="180.67,-50.93 188,-54 184.18,-47.03 180.67,-50.93"/>
</g>
<!-- 22 -->
<g id="node9" class="node">
<title>22</title>
<path fill="#c1e6fb" stroke="#585858" d="M418,-41C418,-41 388,-41 388,-41 382,-41 376,-35 376,-29 376,-29 376,-17 376,-17 376,-11 382,-5 388,-5 388,-5 418,-5 418,-5 424,-5 430,-11 430,-17 430,-17 430,-29 430,-29 430,-35 424,-41 418,-41"/>
<text text-anchor="middle" x="403" y="-25.8" font-family="Helvetica,sans-Serif" font-size="9.00">22</text>
<text text-anchor="middle" x="403" y="-15.8" font-family="Helvetica,sans-Serif" font-size="9.00">NOR</text>
</g>
<!-- 18&#45;&gt;22 -->
<g id="edge6" class="edge">
<title>18:e&#45;&gt;22:w</title>
<path fill="none" stroke="#585858" stroke-width="2" d="M148,-18C148,-18 328.85,-21.97 368.41,-22.83"/>
<polygon fill="#585858" stroke="#585858" stroke-width="2" points="368.44,-25.46 376,-23 368.56,-20.21 368.44,-25.46"/>
</g>
<!-- 19&#45;&gt;20 -->
<g id="edge7" class="edge">
<title>19:e&#45;&gt;20:w</title>
<path fill="none" stroke="#585858" stroke-width="2" d="M242,-54C242,-54 262.66,-54 274.29,-54"/>
<polygon fill="#585858" stroke="#585858" stroke-width="2" points="274.5,-56.63 282,-54 274.5,-51.38 274.5,-56.63"/>
</g>
<!-- 20&#45;&gt;21 -->
<g id="edge8" class="edge">
<title>20:e&#45;&gt;21:w</title>
<path fill="none" stroke="#585858" stroke-width="2" d="M336,-54C336,-54 358.5,-70.88 369.75,-79.31"/>
<polygon fill="#585858" stroke="#585858" stroke-width="2" points="368.42,-81.6 376,-84 371.57,-77.4 368.42,-81.6"/>
</g>
<!-- 20&#45;&gt;22 -->
<g id="edge9" class="edge">
<title>20:e&#45;&gt;22:w</title>
<path fill="none" stroke="#585858" stroke-width="2" d="M336,-54C336,-54 358.5,-36.56 369.75,-27.84"/>
<polygon fill="#585858" stroke="#585858" stroke-width="2" points="371.68,-29.67 376,-23 368.46,-25.52 371.68,-29.67"/>
</g>
<!-- 21&#45;&gt;13 -->
<g id="edge10" class="edge">
<title>21:e&#45;&gt;13:w</title>
<path fill="none" stroke="#585858" stroke-width="2" d="M430,-84C430,-84 452.5,-66.56 463.75,-57.84"/>
<polygon fill="#585858" stroke="#585858" stroke-width="2" points="465.68,-59.67 470,-53 462.46,-55.52 465.68,-59.67"/>
</g>
<!-- 22&#45;&gt;13 -->
<g id="edge11" class="edge">
<title>22:e&#45;&gt;13:w</title>
<path fill="none" stroke="#585858" stroke-width="2" d="M430,-23C430,-23 452.5,-39.88 463.75,-48.31"/>
<polygon fill="#585858" stroke="#585858" stroke-width="2" points="462.42,-50.6 470,-53 465.57,-46.4 462.42,-50.6"/>
</g>
</g>
</svg>
