<?xml version="1.0" encoding="UTF-8" standalone="no"?>
<!DOCTYPE svg PUBLIC "-//W3C//DTD SVG 1.1//EN"
 "http://www.w3.org/Graphics/SVG/1.1/DTD/svg11.dtd">
<!-- Generated by graphviz version 2.43.0 (0)
 -->
<!-- Title: 0x2B_optimal_topology_0 Pages: 1 -->
<svg width="446pt" height="206pt"
 viewBox="3.60 3.60 442.80 202.80" xmlns="http://www.w3.org/2000/svg" xmlns:xlink="http://www.w3.org/1999/xlink">
<g id="graph0" class="graph" transform="scale(1 1) rotate(0) translate(7.2 199.2)">
<title>0x2B_optimal_topology_0</title>
<polygon fill="white" stroke="transparent" points="-3.6,3.6 -3.6,-195.6 435.6,-195.6 435.6,3.6 -3.6,3.6"/>
<!-- 0 -->
<g id="node1" class="node">
<title>0</title>
<path fill="#f2fef2" stroke="#585858" d="M42,-120C42,-120 12,-120 12,-120 6,-120 0,-114 0,-108 0,-108 0,-96 0,-96 0,-90 6,-84 12,-84 12,-84 42,-84 42,-84 48,-84 54,-90 54,-96 54,-96 54,-108 54,-108 54,-114 48,-120 42,-120"/>
<text text-anchor="middle" x="27" y="-104.8" font-family="Helvetica,sans-Serif" font-size="9.00">0</text>
<text text-anchor="middle" x="27" y="-94.8" font-family="Helvetica,sans-Serif" font-size="9.00">INPUT</text>
</g>
<!-- 15 -->
<g id="node5" class="node">
<title>15</title>
<path fill="#c1e6fb" stroke="#585858" d="M136,-80C136,-80 106,-80 106,-80 100,-80 94,-74 94,-68 94,-68 94,-56 94,-56 94,-50 100,-44 106,-44 106,-44 136,-44 136,-44 142,-44 148,-50 148,-56 148,-56 148,-68 148,-68 148,-74 142,-80 136,-80"/>
<text text-anchor="middle" x="121" y="-64.8" font-family="Helvetica,sans-Serif" font-size="9.00">15</text>
<text text-anchor="middle" x="121" y="-54.8" font-family="Helvetica,sans-Serif" font-size="9.00">NOR</text>
</g>
<!-- 0&#45;&gt;15 -->
<g id="edge1" class="edge">
<title>0:e&#45;&gt;15:w</title>
<path fill="none" stroke="#585858" stroke-width="2" d="M54,-102C54,-102 77.45,-78.55 88.44,-67.56"/>
<polygon fill="#585858" stroke="#585858" stroke-width="2" points="90.55,-69.16 94,-62 86.84,-65.45 90.55,-69.16"/>
</g>
<!-- 17 -->
<g id="node7" class="node">
<title>17</title>
<path fill="#c1e6fb" stroke="#585858" d="M230,-136C230,-136 200,-136 200,-136 194,-136 188,-130 188,-124 188,-124 188,-112 188,-112 188,-106 194,-100 200,-100 200,-100 230,-100 230,-100 236,-100 242,-106 242,-112 242,-112 242,-124 242,-124 242,-130 236,-136 230,-136"/>
<text text-anchor="middle" x="215" y="-120.8" font-family="Helvetica,sans-Serif" font-size="9.00">17</text>
<text text-anchor="middle" x="215" y="-110.8" font-family="Helvetica,sans-Serif" font-size="9.00">NOR</text>
</g>
<!-- 0&#45;&gt;17 -->
<g id="edge2" class="edge">
<title>0:e&#45;&gt;17:w</title>
<path fill="none" stroke="#585858" stroke-width="2" d="M54,-102C54,-102 152.06,-113.71 180.41,-117.09"/>
<polygon fill="#585858" stroke="#585858" stroke-width="2" points="180.24,-119.72 188,-118 180.86,-114.5 180.24,-119.72"/>
</g>
<!-- 1 -->
<g id="node2" class="node">
<title>1</title>
<path fill="#f2fef2" stroke="#585858" d="M42,-192C42,-192 12,-192 12,-192 6,-192 0,-186 0,-180 0,-180 0,-168 0,-168 0,-162 6,-156 12,-156 12,-156 42,-156 42,-156 48,-156 54,-162 54,-168 54,-168 54,-180 54,-180 54,-186 48,-192 42,-192"/>
<text text-anchor="middle" x="27" y="-176.8" font-family="Helvetica,sans-Serif" font-size="9.00">1</text>
<text text-anchor="middle" x="27" y="-166.8" font-family="Helvetica,sans-Serif" font-size="9.00">INPUT</text>
</g>
<!-- 18 -->
<g id="node8" class="node">
<title>18</title>
<path fill="#c1e6fb" stroke="#585858" d="M136,-192C136,-192 106,-192 106,-192 100,-192 94,-186 94,-180 94,-180 94,-168 94,-168 94,-162 100,-156 106,-156 106,-156 136,-156 136,-156 142,-156 148,-162 148,-168 148,-168 148,-180 148,-180 148,-186 142,-192 136,-192"/>
<text text-anchor="middle" x="121" y="-176.8" font-family="Helvetica,sans-Serif" font-size="9.00">18</text>
<text text-anchor="middle" x="121" y="-166.8" font-family="Helvetica,sans-Serif" font-size="9.00">NOT</text>
</g>
<!-- 1&#45;&gt;18 -->
<g id="edge3" class="edge">
<title>1:e&#45;&gt;18:w</title>
<path fill="none" stroke="#585858" stroke-width="2" d="M54,-174C54,-174 74.66,-174 86.29,-174"/>
<polygon fill="#585858" stroke="#585858" stroke-width="2" points="86.5,-176.63 94,-174 86.5,-171.38 86.5,-176.63"/>
</g>
<!-- 2 -->
<g id="node3" class="node">
<title>2</title>
<path fill="#f2fef2" stroke="#585858" d="M42,-36C42,-36 12,-36 12,-36 6,-36 0,-30 0,-24 0,-24 0,-12 0,-12 0,-6 6,0 12,0 12,0 42,0 42,0 48,0 54,-6 54,-12 54,-12 54,-24 54,-24 54,-30 48,-36 42,-36"/>
<text text-anchor="middle" x="27" y="-20.8" font-family="Helvetica,sans-Serif" font-size="9.00">2</text>
<text text-anchor="middle" x="27" y="-10.8" font-family="Helvetica,sans-Serif" font-size="9.00">INPUT</text>
</g>
<!-- 2&#45;&gt;15 -->
<g id="edge4" class="edge">
<title>2:e&#45;&gt;15:w</title>
<path fill="none" stroke="#585858" stroke-width="2" d="M54,-18C54,-18 77.93,-44.32 88.77,-56.25"/>
<polygon fill="#585858" stroke="#585858" stroke-width="2" points="87.01,-58.22 94,-62 90.9,-54.68 87.01,-58.22"/>
</g>
<!-- 16 -->
<g id="node6" class="node">
<title>16</title>
<path fill="#c1e6fb" stroke="#585858" d="M230,-75C230,-75 200,-75 200,-75 194,-75 188,-69 188,-63 188,-63 188,-51 188,-51 188,-45 194,-39 200,-39 200,-39 230,-39 230,-39 236,-39 242,-45 242,-51 242,-51 242,-63 242,-63 242,-69 236,-75 230,-75"/>
<text text-anchor="middle" x="215" y="-59.8" font-family="Helvetica,sans-Serif" font-size="9.00">16</text>
<text text-anchor="middle" x="215" y="-49.8" font-family="Helvetica,sans-Serif" font-size="9.00">NOR</text>
</g>
<!-- 2&#45;&gt;16 -->
<g id="edge5" class="edge">
<title>2:e&#45;&gt;16:w</title>
<path fill="none" stroke="#585858" stroke-width="2" d="M54,-18C54,-18 148,-32 148,-32 148,-32 170.03,-45.77 181.39,-52.87"/>
<polygon fill="#585858" stroke="#585858" stroke-width="2" points="180.25,-55.25 188,-57 183.03,-50.8 180.25,-55.25"/>
</g>
<!-- 13 -->
<g id="node4" class="node">
<title>13</title>
<path fill="#fcffe5" stroke="#585858" d="M420,-106C420,-106 388,-106 388,-106 382,-106 376,-100 376,-94 376,-94 376,-82 376,-82 376,-76 382,-70 388,-70 388,-70 420,-70 420,-70 426,-70 432,-76 432,-82 432,-82 432,-94 432,-94 432,-100 426,-106 420,-106"/>
<text text-anchor="middle" x="404" y="-90.8" font-family="Helvetica,sans-Serif" font-size="9.00">13</text>
<text text-anchor="middle" x="404" y="-80.8" font-family="Helvetica,sans-Serif" font-size="9.00">OR/OUTPUT</text>
</g>
<!-- 15&#45;&gt;16 -->
<g id="edge6" class="edge">
<title>15:e&#45;&gt;16:w</title>
<path fill="none" stroke="#585858" stroke-width="2" d="M148,-62C148,-62 168.66,-59.42 180.29,-57.96"/>
<polygon fill="#585858" stroke="#585858" stroke-width="2" points="180.88,-60.54 188,-57 180.23,-55.33 180.88,-60.54"/>
</g>
<!-- 15&#45;&gt;17 -->
<g id="edge7" class="edge">
<title>15:e&#45;&gt;17:w</title>
<path fill="none" stroke="#585858" stroke-width="2" d="M148,-62C148,-62 172.9,-96.87 183.41,-111.58"/>
<polygon fill="#585858" stroke="#585858" stroke-width="2" points="181.5,-113.42 188,-118 185.78,-110.37 181.5,-113.42"/>
</g>
<!-- 16&#45;&gt;13 -->
<g id="edge8" class="edge">
<title>16:e&#45;&gt;13:w</title>
<path fill="none" stroke="#585858" stroke-width="2" d="M242,-57C242,-57 340.06,-79.69 368.41,-86.24"/>
<polygon fill="#585858" stroke="#585858" stroke-width="2" points="368.1,-88.87 376,-88 369.28,-83.75 368.1,-88.87"/>
</g>
<!-- 19 -->
<g id="node9" class="node">
<title>19</title>
<path fill="#c1e6fb" stroke="#585858" d="M324,-136C324,-136 294,-136 294,-136 288,-136 282,-130 282,-124 282,-124 282,-112 282,-112 282,-106 288,-100 294,-100 294,-100 324,-100 324,-100 330,-100 336,-106 336,-112 336,-112 336,-124 336,-124 336,-130 330,-136 324,-136"/>
<text text-anchor="middle" x="309" y="-120.8" font-family="Helvetica,sans-Serif" font-size="9.00">19</text>
<text text-anchor="middle" x="309" y="-110.8" font-family="Helvetica,sans-Serif" font-size="9.00">NOR</text>
</g>
<!-- 17&#45;&gt;19 -->
<g id="edge9" class="edge">
<title>17:e&#45;&gt;19:w</title>
<path fill="none" stroke="#585858" stroke-width="2" d="M242,-118C242,-118 262.66,-118 274.29,-118"/>
<polygon fill="#585858" stroke="#585858" stroke-width="2" points="274.5,-120.63 282,-118 274.5,-115.38 274.5,-120.63"/>
</g>
<!-- 18&#45;&gt;19 -->
<g id="edge10" class="edge">
<title>18:e&#45;&gt;19:w</title>
<path fill="none" stroke="#585858" stroke-width="2" d="M148,-174C148,-174 242,-149 242,-149 242,-149 264.5,-131.56 275.75,-122.84"/>
<polygon fill="#585858" stroke="#585858" stroke-width="2" points="277.68,-124.67 282,-118 274.46,-120.52 277.68,-124.67"/>
</g>
<!-- 19&#45;&gt;13 -->
<g id="edge11" class="edge">
<title>19:e&#45;&gt;13:w</title>
<path fill="none" stroke="#585858" stroke-width="2" d="M336,-118C336,-118 358.5,-101.12 369.75,-92.69"/>
<polygon fill="#585858" stroke="#585858" stroke-width="2" points="371.57,-94.6 376,-88 368.42,-90.4 371.57,-94.6"/>
</g>
</g>
</svg>
