<?xml version="1.0" encoding="UTF-8" standalone="no"?>
<!DOCTYPE svg PUBLIC "-//W3C//DTD SVG 1.1//EN"
 "http://www.w3.org/Graphics/SVG/1.1/DTD/svg11.dtd">
<!-- Generated by graphviz version 2.43.0 (0)
 -->
<!-- Title: 0x2B_optimal_topology_1 Pages: 1 -->
<svg width="352pt" height="228pt"
 viewBox="3.60 3.60 348.80 224.80" xmlns="http://www.w3.org/2000/svg" xmlns:xlink="http://www.w3.org/1999/xlink">
<g id="graph0" class="graph" transform="scale(1 1) rotate(0) translate(7.2 221.2)">
<title>0x2B_optimal_topology_1</title>
<polygon fill="white" stroke="transparent" points="-3.6,3.6 -3.6,-217.6 341.6,-217.6 341.6,3.6 -3.6,3.6"/>
<!-- 0 -->
<g id="node1" class="node">
<title>0</title>
<path fill="#f2fef2" stroke="#585858" d="M42,-125C42,-125 12,-125 12,-125 6,-125 0,-119 0,-113 0,-113 0,-101 0,-101 0,-95 6,-89 12,-89 12,-89 42,-89 42,-89 48,-89 54,-95 54,-101 54,-101 54,-113 54,-113 54,-119 48,-125 42,-125"/>
<text text-anchor="middle" x="27" y="-109.8" font-family="Helvetica,sans-Serif" font-size="9.00">0</text>
<text text-anchor="middle" x="27" y="-99.8" font-family="Helvetica,sans-Serif" font-size="9.00">INPUT</text>
</g>
<!-- 16 -->
<g id="node6" class="node">
<title>16</title>
<path fill="#c1e6fb" stroke="#585858" d="M136,-92C136,-92 106,-92 106,-92 100,-92 94,-86 94,-80 94,-80 94,-68 94,-68 94,-62 100,-56 106,-56 106,-56 136,-56 136,-56 142,-56 148,-62 148,-68 148,-68 148,-80 148,-80 148,-86 142,-92 136,-92"/>
<text text-anchor="middle" x="121" y="-76.8" font-family="Helvetica,sans-Serif" font-size="9.00">16</text>
<text text-anchor="middle" x="121" y="-66.8" font-family="Helvetica,sans-Serif" font-size="9.00">NOR</text>
</g>
<!-- 0&#45;&gt;16 -->
<g id="edge1" class="edge">
<title>0:e&#45;&gt;16:w</title>
<path fill="none" stroke="#585858" stroke-width="2" d="M54,-107C54,-107 76.97,-88.05 88.1,-78.87"/>
<polygon fill="#585858" stroke="#585858" stroke-width="2" points="89.89,-80.8 94,-74 86.54,-76.75 89.89,-80.8"/>
</g>
<!-- 19 -->
<g id="node9" class="node">
<title>19</title>
<path fill="#c1e6fb" stroke="#585858" d="M136,-153C136,-153 106,-153 106,-153 100,-153 94,-147 94,-141 94,-141 94,-129 94,-129 94,-123 100,-117 106,-117 106,-117 136,-117 136,-117 142,-117 148,-123 148,-129 148,-129 148,-141 148,-141 148,-147 142,-153 136,-153"/>
<text text-anchor="middle" x="121" y="-137.8" font-family="Helvetica,sans-Serif" font-size="9.00">19</text>
<text text-anchor="middle" x="121" y="-127.8" font-family="Helvetica,sans-Serif" font-size="9.00">NOT</text>
</g>
<!-- 0&#45;&gt;19 -->
<g id="edge2" class="edge">
<title>0:e&#45;&gt;19:w</title>
<path fill="none" stroke="#585858" stroke-width="2" d="M54,-107C54,-107 76.5,-122.75 87.75,-130.62"/>
<polygon fill="#585858" stroke="#585858" stroke-width="2" points="86.35,-132.85 94,-135 89.36,-128.55 86.35,-132.85"/>
</g>
<!-- 1 -->
<g id="node2" class="node">
<title>1</title>
<path fill="#f2fef2" stroke="#585858" d="M42,-200C42,-200 12,-200 12,-200 6,-200 0,-194 0,-188 0,-188 0,-176 0,-176 0,-170 6,-164 12,-164 12,-164 42,-164 42,-164 48,-164 54,-170 54,-176 54,-176 54,-188 54,-188 54,-194 48,-200 42,-200"/>
<text text-anchor="middle" x="27" y="-184.8" font-family="Helvetica,sans-Serif" font-size="9.00">1</text>
<text text-anchor="middle" x="27" y="-174.8" font-family="Helvetica,sans-Serif" font-size="9.00">INPUT</text>
</g>
<!-- 1&#45;&gt;16 -->
<g id="edge3" class="edge">
<title>1:e&#45;&gt;16:w</title>
<path fill="none" stroke="#585858" stroke-width="2" d="M54,-182C54,-182 82.48,-105.11 91.38,-81.09"/>
<polygon fill="#585858" stroke="#585858" stroke-width="2" points="93.86,-81.94 94,-74 88.93,-80.12 93.86,-81.94"/>
</g>
<!-- 18 -->
<g id="node8" class="node">
<title>18</title>
<path fill="#c1e6fb" stroke="#585858" d="M136,-214C136,-214 106,-214 106,-214 100,-214 94,-208 94,-202 94,-202 94,-190 94,-190 94,-184 100,-178 106,-178 106,-178 136,-178 136,-178 142,-178 148,-184 148,-190 148,-190 148,-202 148,-202 148,-208 142,-214 136,-214"/>
<text text-anchor="middle" x="121" y="-198.8" font-family="Helvetica,sans-Serif" font-size="9.00">18</text>
<text text-anchor="middle" x="121" y="-188.8" font-family="Helvetica,sans-Serif" font-size="9.00">NOT</text>
</g>
<!-- 1&#45;&gt;18 -->
<g id="edge4" class="edge">
<title>1:e&#45;&gt;18:w</title>
<path fill="none" stroke="#585858" stroke-width="2" d="M54,-182C54,-182 75.12,-189.39 86.66,-193.43"/>
<polygon fill="#585858" stroke="#585858" stroke-width="2" points="86.05,-196 94,-196 87.79,-191.04 86.05,-196"/>
</g>
<!-- 2 -->
<g id="node3" class="node">
<title>2</title>
<path fill="#f2fef2" stroke="#585858" d="M42,-36C42,-36 12,-36 12,-36 6,-36 0,-30 0,-24 0,-24 0,-12 0,-12 0,-6 6,0 12,0 12,0 42,0 42,0 48,0 54,-6 54,-12 54,-12 54,-24 54,-24 54,-30 48,-36 42,-36"/>
<text text-anchor="middle" x="27" y="-20.8" font-family="Helvetica,sans-Serif" font-size="9.00">2</text>
<text text-anchor="middle" x="27" y="-10.8" font-family="Helvetica,sans-Serif" font-size="9.00">INPUT</text>
</g>
<!-- 17 -->
<g id="node7" class="node">
<title>17</title>
<path fill="#c1e6fb" stroke="#585858" d="M230,-92C230,-92 200,-92 200,-92 194,-92 188,-86 188,-80 188,-80 188,-68 188,-68 188,-62 194,-56 200,-56 200,-56 230,-56 230,-56 236,-56 242,-62 242,-68 242,-68 242,-80 242,-80 242,-86 236,-92 230,-92"/>
<text text-anchor="middle" x="215" y="-76.8" font-family="Helvetica,sans-Serif" font-size="9.00">17</text>
<text text-anchor="middle" x="215" y="-66.8" font-family="Helvetica,sans-Serif" font-size="9.00">NOR</text>
</g>
<!-- 2&#45;&gt;17 -->
<g id="edge5" class="edge">
<title>2:e&#45;&gt;17:w</title>
<path fill="none" stroke="#585858" stroke-width="2" d="M54,-18C54,-18 148,-44 148,-44 148,-44 170.5,-60.88 181.75,-69.31"/>
<polygon fill="#585858" stroke="#585858" stroke-width="2" points="180.42,-71.6 188,-74 183.57,-67.4 180.42,-71.6"/>
</g>
<!-- 13 -->
<g id="node4" class="node">
<title>13</title>
<path fill="#fcffe5" stroke="#585858" d="M326,-122C326,-122 294,-122 294,-122 288,-122 282,-116 282,-110 282,-110 282,-98 282,-98 282,-92 288,-86 294,-86 294,-86 326,-86 326,-86 332,-86 338,-92 338,-98 338,-98 338,-110 338,-110 338,-116 332,-122 326,-122"/>
<text text-anchor="middle" x="310" y="-106.8" font-family="Helvetica,sans-Serif" font-size="9.00">13</text>
<text text-anchor="middle" x="310" y="-96.8" font-family="Helvetica,sans-Serif" font-size="9.00">OR/OUTPUT</text>
</g>
<!-- 15 -->
<g id="node5" class="node">
<title>15</title>
<path fill="#c1e6fb" stroke="#585858" d="M230,-153C230,-153 200,-153 200,-153 194,-153 188,-147 188,-141 188,-141 188,-129 188,-129 188,-123 194,-117 200,-117 200,-117 230,-117 230,-117 236,-117 242,-123 242,-129 242,-129 242,-141 242,-141 242,-147 236,-153 230,-153"/>
<text text-anchor="middle" x="215" y="-137.8" font-family="Helvetica,sans-Serif" font-size="9.00">15</text>
<text text-anchor="middle" x="215" y="-127.8" font-family="Helvetica,sans-Serif" font-size="9.00">NOR</text>
</g>
<!-- 15&#45;&gt;13 -->
<g id="edge6" class="edge">
<title>15:e&#45;&gt;13:w</title>
<path fill="none" stroke="#585858" stroke-width="2" d="M242,-135C242,-135 264.5,-117.56 275.75,-108.84"/>
<polygon fill="#585858" stroke="#585858" stroke-width="2" points="277.68,-110.67 282,-104 274.46,-106.52 277.68,-110.67"/>
</g>
<!-- 16&#45;&gt;17 -->
<g id="edge7" class="edge">
<title>16:e&#45;&gt;17:w</title>
<path fill="none" stroke="#585858" stroke-width="2" d="M148,-74C148,-74 168.66,-74 180.29,-74"/>
<polygon fill="#585858" stroke="#585858" stroke-width="2" points="180.5,-76.63 188,-74 180.5,-71.38 180.5,-76.63"/>
</g>
<!-- 17&#45;&gt;13 -->
<g id="edge8" class="edge">
<title>17:e&#45;&gt;13:w</title>
<path fill="none" stroke="#585858" stroke-width="2" d="M242,-74C242,-74 264.5,-90.88 275.75,-99.31"/>
<polygon fill="#585858" stroke="#585858" stroke-width="2" points="274.42,-101.6 282,-104 277.57,-97.4 274.42,-101.6"/>
</g>
<!-- 18&#45;&gt;15 -->
<g id="edge9" class="edge">
<title>18:e&#45;&gt;15:w</title>
<path fill="none" stroke="#585858" stroke-width="2" d="M148,-196C148,-196 173.4,-157.26 183.72,-141.53"/>
<polygon fill="#585858" stroke="#585858" stroke-width="2" points="186.08,-142.71 188,-135 181.69,-139.83 186.08,-142.71"/>
</g>
<!-- 19&#45;&gt;15 -->
<g id="edge10" class="edge">
<title>19:e&#45;&gt;15:w</title>
<path fill="none" stroke="#585858" stroke-width="2" d="M148,-135C148,-135 168.66,-135 180.29,-135"/>
<polygon fill="#585858" stroke="#585858" stroke-width="2" points="180.5,-137.63 188,-135 180.5,-132.38 180.5,-137.63"/>
</g>
</g>
</svg>
