<?xml version="1.0" encoding="UTF-8" standalone="no"?>
<!DOCTYPE svg PUBLIC "-//W3C//DTD SVG 1.1//EN"
 "http://www.w3.org/Graphics/SVG/1.1/DTD/svg11.dtd">
<!-- Generated by graphviz version 2.43.0 (0)
 -->
<!-- Title: 0x2B_optimal_topology_3 Pages: 1 -->
<svg width="538pt" height="196pt"
 viewBox="3.60 3.60 534.80 192.80" xmlns="http://www.w3.org/2000/svg" xmlns:xlink="http://www.w3.org/1999/xlink">
<g id="graph0" class="graph" transform="scale(1 1) rotate(0) translate(7.2 189.2)">
<title>0x2B_optimal_topology_3</title>
<polygon fill="white" stroke="transparent" points="-3.6,3.6 -3.6,-185.6 527.6,-185.6 527.6,3.6 -3.6,3.6"/>
<!-- 0 -->
<g id="node1" class="node">
<title>0</title>
<path fill="#f2fef2" stroke="#585858" d="M42,-182C42,-182 12,-182 12,-182 6,-182 0,-176 0,-170 0,-170 0,-158 0,-158 0,-152 6,-146 12,-146 12,-146 42,-146 42,-146 48,-146 54,-152 54,-158 54,-158 54,-170 54,-170 54,-176 48,-182 42,-182"/>
<text text-anchor="middle" x="27" y="-166.8" font-family="Helvetica,sans-Serif" font-size="9.00">0</text>
<text text-anchor="middle" x="27" y="-156.8" font-family="Helvetica,sans-Serif" font-size="9.00">INPUT</text>
</g>
<!-- 15 -->
<g id="node6" class="node">
<title>15</title>
<path fill="#c1e6fb" stroke="#585858" d="M136,-150C136,-150 106,-150 106,-150 100,-150 94,-144 94,-138 94,-138 94,-126 94,-126 94,-120 100,-114 106,-114 106,-114 136,-114 136,-114 142,-114 148,-120 148,-126 148,-126 148,-138 148,-138 148,-144 142,-150 136,-150"/>
<text text-anchor="middle" x="121" y="-134.8" font-family="Helvetica,sans-Serif" font-size="9.00">15</text>
<text text-anchor="middle" x="121" y="-124.8" font-family="Helvetica,sans-Serif" font-size="9.00">NOR</text>
</g>
<!-- 0&#45;&gt;15 -->
<g id="edge1" class="edge">
<title>0:e&#45;&gt;15:w</title>
<path fill="none" stroke="#585858" stroke-width="2" d="M54,-164C54,-164 76.97,-145.62 88.1,-136.72"/>
<polygon fill="#585858" stroke="#585858" stroke-width="2" points="89.78,-138.74 94,-132 86.5,-134.64 89.78,-138.74"/>
</g>
<!-- 17 -->
<g id="node8" class="node">
<title>17</title>
<path fill="#c1e6fb" stroke="#585858" d="M324,-150C324,-150 294,-150 294,-150 288,-150 282,-144 282,-138 282,-138 282,-126 282,-126 282,-120 288,-114 294,-114 294,-114 324,-114 324,-114 330,-114 336,-120 336,-126 336,-126 336,-138 336,-138 336,-144 330,-150 324,-150"/>
<text text-anchor="middle" x="309" y="-134.8" font-family="Helvetica,sans-Serif" font-size="9.00">17</text>
<text text-anchor="middle" x="309" y="-124.8" font-family="Helvetica,sans-Serif" font-size="9.00">NOR</text>
</g>
<!-- 0&#45;&gt;17 -->
<g id="edge2" class="edge">
<title>0:e&#45;&gt;17:w</title>
<path fill="none" stroke="#585858" stroke-width="2" d="M54,-164C54,-164 148,-163 148,-163 148,-163 246.06,-140.31 274.41,-133.76"/>
<polygon fill="#585858" stroke="#585858" stroke-width="2" points="275.28,-136.25 282,-132 274.1,-131.13 275.28,-136.25"/>
</g>
<!-- 1 -->
<g id="node2" class="node">
<title>1</title>
<path fill="#f2fef2" stroke="#585858" d="M42,-36C42,-36 12,-36 12,-36 6,-36 0,-30 0,-24 0,-24 0,-12 0,-12 0,-6 6,0 12,0 12,0 42,0 42,0 48,0 54,-6 54,-12 54,-12 54,-24 54,-24 54,-30 48,-36 42,-36"/>
<text text-anchor="middle" x="27" y="-20.8" font-family="Helvetica,sans-Serif" font-size="9.00">1</text>
<text text-anchor="middle" x="27" y="-10.8" font-family="Helvetica,sans-Serif" font-size="9.00">INPUT</text>
</g>
<!-- 1&#45;&gt;15 -->
<g id="edge3" class="edge">
<title>1:e&#45;&gt;15:w</title>
<path fill="none" stroke="#585858" stroke-width="2" d="M54,-18C54,-18 82.74,-99.91 91.5,-124.87"/>
<polygon fill="#585858" stroke="#585858" stroke-width="2" points="89.04,-125.79 94,-132 93.99,-124.05 89.04,-125.79"/>
</g>
<!-- 18 -->
<g id="node9" class="node">
<title>18</title>
<path fill="#c1e6fb" stroke="#585858" d="M324,-89C324,-89 294,-89 294,-89 288,-89 282,-83 282,-77 282,-77 282,-65 282,-65 282,-59 288,-53 294,-53 294,-53 324,-53 324,-53 330,-53 336,-59 336,-65 336,-65 336,-77 336,-77 336,-83 330,-89 324,-89"/>
<text text-anchor="middle" x="309" y="-73.8" font-family="Helvetica,sans-Serif" font-size="9.00">18</text>
<text text-anchor="middle" x="309" y="-63.8" font-family="Helvetica,sans-Serif" font-size="9.00">NOR</text>
</g>
<!-- 1&#45;&gt;18 -->
<g id="edge4" class="edge">
<title>1:e&#45;&gt;18:w</title>
<path fill="none" stroke="#585858" stroke-width="2" d="M54,-18C54,-18 234.85,-60.04 274.41,-69.24"/>
<polygon fill="#585858" stroke="#585858" stroke-width="2" points="274.1,-71.86 282,-71 275.29,-66.74 274.1,-71.86"/>
</g>
<!-- 2 -->
<g id="node3" class="node">
<title>2</title>
<path fill="#f2fef2" stroke="#585858" d="M42,-97C42,-97 12,-97 12,-97 6,-97 0,-91 0,-85 0,-85 0,-73 0,-73 0,-67 6,-61 12,-61 12,-61 42,-61 42,-61 48,-61 54,-67 54,-73 54,-73 54,-85 54,-85 54,-91 48,-97 42,-97"/>
<text text-anchor="middle" x="27" y="-81.8" font-family="Helvetica,sans-Serif" font-size="9.00">2</text>
<text text-anchor="middle" x="27" y="-71.8" font-family="Helvetica,sans-Serif" font-size="9.00">INPUT</text>
</g>
<!-- 16 -->
<g id="node7" class="node">
<title>16</title>
<path fill="#c1e6fb" stroke="#585858" d="M230,-122C230,-122 200,-122 200,-122 194,-122 188,-116 188,-110 188,-110 188,-98 188,-98 188,-92 194,-86 200,-86 200,-86 230,-86 230,-86 236,-86 242,-92 242,-98 242,-98 242,-110 242,-110 242,-116 236,-122 230,-122"/>
<text text-anchor="middle" x="215" y="-106.8" font-family="Helvetica,sans-Serif" font-size="9.00">16</text>
<text text-anchor="middle" x="215" y="-96.8" font-family="Helvetica,sans-Serif" font-size="9.00">NOR</text>
</g>
<!-- 2&#45;&gt;16 -->
<g id="edge5" class="edge">
<title>2:e&#45;&gt;16:w</title>
<path fill="none" stroke="#585858" stroke-width="2" d="M54,-79C54,-79 152.06,-97.3 180.41,-102.58"/>
<polygon fill="#585858" stroke="#585858" stroke-width="2" points="180.15,-105.2 188,-104 181.11,-100.04 180.15,-105.2"/>
</g>
<!-- 13 -->
<g id="node4" class="node">
<title>13</title>
<path fill="#fcffe5" stroke="#585858" d="M512,-119C512,-119 482,-119 482,-119 476,-119 470,-113 470,-107 470,-107 470,-95 470,-95 470,-89 476,-83 482,-83 482,-83 512,-83 512,-83 518,-83 524,-89 524,-95 524,-95 524,-107 524,-107 524,-113 518,-119 512,-119"/>
<text text-anchor="middle" x="497" y="-103.8" font-family="Helvetica,sans-Serif" font-size="9.00">13</text>
<text text-anchor="middle" x="497" y="-93.8" font-family="Helvetica,sans-Serif" font-size="9.00">OUTPUT</text>
</g>
<!-- 14 -->
<g id="node5" class="node">
<title>14</title>
<path fill="#c1e6fb" stroke="#585858" d="M418,-119C418,-119 388,-119 388,-119 382,-119 376,-113 376,-107 376,-107 376,-95 376,-95 376,-89 382,-83 388,-83 388,-83 418,-83 418,-83 424,-83 430,-89 430,-95 430,-95 430,-107 430,-107 430,-113 424,-119 418,-119"/>
<text text-anchor="middle" x="403" y="-103.8" font-family="Helvetica,sans-Serif" font-size="9.00">14</text>
<text text-anchor="middle" x="403" y="-93.8" font-family="Helvetica,sans-Serif" font-size="9.00">NOR</text>
</g>
<!-- 14&#45;&gt;13 -->
<g id="edge6" class="edge">
<title>14:e&#45;&gt;13:w</title>
<path fill="none" stroke="#585858" stroke-width="2" d="M430,-101C430,-101 450.66,-101 462.29,-101"/>
<polygon fill="#585858" stroke="#585858" stroke-width="2" points="462.5,-103.63 470,-101 462.5,-98.38 462.5,-103.63"/>
</g>
<!-- 15&#45;&gt;16 -->
<g id="edge7" class="edge">
<title>15:e&#45;&gt;16:w</title>
<path fill="none" stroke="#585858" stroke-width="2" d="M148,-132C148,-132 170.5,-116.25 181.75,-108.38"/>
<polygon fill="#585858" stroke="#585858" stroke-width="2" points="183.36,-110.45 188,-104 180.35,-106.15 183.36,-110.45"/>
</g>
<!-- 16&#45;&gt;17 -->
<g id="edge8" class="edge">
<title>16:e&#45;&gt;17:w</title>
<path fill="none" stroke="#585858" stroke-width="2" d="M242,-104C242,-104 264.5,-119.75 275.75,-127.62"/>
<polygon fill="#585858" stroke="#585858" stroke-width="2" points="274.35,-129.85 282,-132 277.36,-125.55 274.35,-129.85"/>
</g>
<!-- 16&#45;&gt;18 -->
<g id="edge9" class="edge">
<title>16:e&#45;&gt;18:w</title>
<path fill="none" stroke="#585858" stroke-width="2" d="M242,-104C242,-104 264.97,-85.05 276.1,-75.87"/>
<polygon fill="#585858" stroke="#585858" stroke-width="2" points="277.89,-77.8 282,-71 274.54,-73.75 277.89,-77.8"/>
</g>
<!-- 17&#45;&gt;14 -->
<g id="edge10" class="edge">
<title>17:e&#45;&gt;14:w</title>
<path fill="none" stroke="#585858" stroke-width="2" d="M336,-132C336,-132 358.5,-114.56 369.75,-105.84"/>
<polygon fill="#585858" stroke="#585858" stroke-width="2" points="371.68,-107.67 376,-101 368.46,-103.52 371.68,-107.67"/>
</g>
<!-- 18&#45;&gt;14 -->
<g id="edge11" class="edge">
<title>18:e&#45;&gt;14:w</title>
<path fill="none" stroke="#585858" stroke-width="2" d="M336,-71C336,-71 358.5,-87.88 369.75,-96.31"/>
<polygon fill="#585858" stroke="#585858" stroke-width="2" points="368.42,-98.6 376,-101 371.57,-94.4 368.42,-98.6"/>
</g>
</g>
</svg>
