<?xml version="1.0" encoding="UTF-8" standalone="no"?>
<!DOCTYPE svg PUBLIC "-//W3C//DTD SVG 1.1//EN"
 "http://www.w3.org/Graphics/SVG/1.1/DTD/svg11.dtd">
<!-- Generated by graphviz version 2.43.0 (0)
 -->
<!-- Title: 0x52_optimal_topology_2 Pages: 1 -->
<svg width="540pt" height="206pt"
 viewBox="3.60 3.60 536.80 202.80" xmlns="http://www.w3.org/2000/svg" xmlns:xlink="http://www.w3.org/1999/xlink">
<g id="graph0" class="graph" transform="scale(1 1) rotate(0) translate(7.2 199.2)">
<title>0x52_optimal_topology_2</title>
<polygon fill="white" stroke="transparent" points="-3.6,3.6 -3.6,-195.6 529.6,-195.6 529.6,3.6 -3.6,3.6"/>
<!-- 0 -->
<g id="node1" class="node">
<title>0</title>
<path fill="#f2fef2" stroke="#585858" d="M42,-192C42,-192 12,-192 12,-192 6,-192 0,-186 0,-180 0,-180 0,-168 0,-168 0,-162 6,-156 12,-156 12,-156 42,-156 42,-156 48,-156 54,-162 54,-168 54,-168 54,-180 54,-180 54,-186 48,-192 42,-192"/>
<text text-anchor="middle" x="27" y="-176.8" font-family="Helvetica,sans-Serif" font-size="9.00">0</text>
<text text-anchor="middle" x="27" y="-166.8" font-family="Helvetica,sans-Serif" font-size="9.00">INPUT</text>
</g>
<!-- 13 -->
<g id="node5" class="node">
<title>13</title>
<path fill="#c1e6fb" stroke="#585858" d="M136,-148C136,-148 106,-148 106,-148 100,-148 94,-142 94,-136 94,-136 94,-124 94,-124 94,-118 100,-112 106,-112 106,-112 136,-112 136,-112 142,-112 148,-118 148,-124 148,-124 148,-136 148,-136 148,-142 142,-148 136,-148"/>
<text text-anchor="middle" x="121" y="-132.8" font-family="Helvetica,sans-Serif" font-size="9.00">13</text>
<text text-anchor="middle" x="121" y="-122.8" font-family="Helvetica,sans-Serif" font-size="9.00">NOR</text>
</g>
<!-- 0&#45;&gt;13 -->
<g id="edge1" class="edge">
<title>0:e&#45;&gt;13:w</title>
<path fill="none" stroke="#585858" stroke-width="2" d="M54,-174C54,-174 77.93,-147.68 88.77,-135.75"/>
<polygon fill="#585858" stroke="#585858" stroke-width="2" points="90.9,-137.32 94,-130 87.01,-133.78 90.9,-137.32"/>
</g>
<!-- 14 -->
<g id="node6" class="node">
<title>14</title>
<path fill="#c1e6fb" stroke="#585858" d="M230,-153C230,-153 200,-153 200,-153 194,-153 188,-147 188,-141 188,-141 188,-129 188,-129 188,-123 194,-117 200,-117 200,-117 230,-117 230,-117 236,-117 242,-123 242,-129 242,-129 242,-141 242,-141 242,-147 236,-153 230,-153"/>
<text text-anchor="middle" x="215" y="-137.8" font-family="Helvetica,sans-Serif" font-size="9.00">14</text>
<text text-anchor="middle" x="215" y="-127.8" font-family="Helvetica,sans-Serif" font-size="9.00">NOR</text>
</g>
<!-- 0&#45;&gt;14 -->
<g id="edge2" class="edge">
<title>0:e&#45;&gt;14:w</title>
<path fill="none" stroke="#585858" stroke-width="2" d="M54,-174C54,-174 148,-161 148,-161 148,-161 170.03,-146.68 181.39,-139.29"/>
<polygon fill="#585858" stroke="#585858" stroke-width="2" points="183.14,-141.29 188,-135 180.28,-136.89 183.14,-141.29"/>
</g>
<!-- 1 -->
<g id="node2" class="node">
<title>1</title>
<path fill="#f2fef2" stroke="#585858" d="M42,-36C42,-36 12,-36 12,-36 6,-36 0,-30 0,-24 0,-24 0,-12 0,-12 0,-6 6,0 12,0 12,0 42,0 42,0 48,0 54,-6 54,-12 54,-12 54,-24 54,-24 54,-30 48,-36 42,-36"/>
<text text-anchor="middle" x="27" y="-20.8" font-family="Helvetica,sans-Serif" font-size="9.00">1</text>
<text text-anchor="middle" x="27" y="-10.8" font-family="Helvetica,sans-Serif" font-size="9.00">INPUT</text>
</g>
<!-- 16 -->
<g id="node8" class="node">
<title>16</title>
<path fill="#c1e6fb" stroke="#585858" d="M136,-36C136,-36 106,-36 106,-36 100,-36 94,-30 94,-24 94,-24 94,-12 94,-12 94,-6 100,0 106,0 106,0 136,0 136,0 142,0 148,-6 148,-12 148,-12 148,-24 148,-24 148,-30 142,-36 136,-36"/>
<text text-anchor="middle" x="121" y="-20.8" font-family="Helvetica,sans-Serif" font-size="9.00">16</text>
<text text-anchor="middle" x="121" y="-10.8" font-family="Helvetica,sans-Serif" font-size="9.00">NOT</text>
</g>
<!-- 1&#45;&gt;16 -->
<g id="edge3" class="edge">
<title>1:e&#45;&gt;16:w</title>
<path fill="none" stroke="#585858" stroke-width="2" d="M54,-18C54,-18 74.66,-18 86.29,-18"/>
<polygon fill="#585858" stroke="#585858" stroke-width="2" points="86.5,-20.63 94,-18 86.5,-15.38 86.5,-20.63"/>
</g>
<!-- 2 -->
<g id="node3" class="node">
<title>2</title>
<path fill="#f2fef2" stroke="#585858" d="M42,-120C42,-120 12,-120 12,-120 6,-120 0,-114 0,-108 0,-108 0,-96 0,-96 0,-90 6,-84 12,-84 12,-84 42,-84 42,-84 48,-84 54,-90 54,-96 54,-96 54,-108 54,-108 54,-114 48,-120 42,-120"/>
<text text-anchor="middle" x="27" y="-104.8" font-family="Helvetica,sans-Serif" font-size="9.00">2</text>
<text text-anchor="middle" x="27" y="-94.8" font-family="Helvetica,sans-Serif" font-size="9.00">INPUT</text>
</g>
<!-- 2&#45;&gt;13 -->
<g id="edge4" class="edge">
<title>2:e&#45;&gt;13:w</title>
<path fill="none" stroke="#585858" stroke-width="2" d="M54,-102C54,-102 76.5,-117.75 87.75,-125.62"/>
<polygon fill="#585858" stroke="#585858" stroke-width="2" points="86.35,-127.85 94,-130 89.36,-123.55 86.35,-127.85"/>
</g>
<!-- 15 -->
<g id="node7" class="node">
<title>15</title>
<path fill="#c1e6fb" stroke="#585858" d="M230,-92C230,-92 200,-92 200,-92 194,-92 188,-86 188,-80 188,-80 188,-68 188,-68 188,-62 194,-56 200,-56 200,-56 230,-56 230,-56 236,-56 242,-62 242,-68 242,-68 242,-80 242,-80 242,-86 236,-92 230,-92"/>
<text text-anchor="middle" x="215" y="-76.8" font-family="Helvetica,sans-Serif" font-size="9.00">15</text>
<text text-anchor="middle" x="215" y="-66.8" font-family="Helvetica,sans-Serif" font-size="9.00">NOR</text>
</g>
<!-- 2&#45;&gt;15 -->
<g id="edge5" class="edge">
<title>2:e&#45;&gt;15:w</title>
<path fill="none" stroke="#585858" stroke-width="2" d="M54,-102C54,-102 152.06,-81.51 180.41,-75.59"/>
<polygon fill="#585858" stroke="#585858" stroke-width="2" points="181.2,-78.1 188,-74 180.12,-72.96 181.2,-78.1"/>
</g>
<!-- 11 -->
<g id="node4" class="node">
<title>11</title>
<path fill="#fcffe5" stroke="#585858" d="M514,-120C514,-120 482,-120 482,-120 476,-120 470,-114 470,-108 470,-108 470,-96 470,-96 470,-90 476,-84 482,-84 482,-84 514,-84 514,-84 520,-84 526,-90 526,-96 526,-96 526,-108 526,-108 526,-114 520,-120 514,-120"/>
<text text-anchor="middle" x="498" y="-104.8" font-family="Helvetica,sans-Serif" font-size="9.00">11</text>
<text text-anchor="middle" x="498" y="-94.8" font-family="Helvetica,sans-Serif" font-size="9.00">OR/OUTPUT</text>
</g>
<!-- 13&#45;&gt;14 -->
<g id="edge6" class="edge">
<title>13:e&#45;&gt;14:w</title>
<path fill="none" stroke="#585858" stroke-width="2" d="M148,-130C148,-130 168.66,-132.58 180.29,-134.04"/>
<polygon fill="#585858" stroke="#585858" stroke-width="2" points="180.23,-136.67 188,-135 180.88,-131.46 180.23,-136.67"/>
</g>
<!-- 13&#45;&gt;15 -->
<g id="edge7" class="edge">
<title>13:e&#45;&gt;15:w</title>
<path fill="none" stroke="#585858" stroke-width="2" d="M148,-130C148,-130 172.9,-95.13 183.41,-80.42"/>
<polygon fill="#585858" stroke="#585858" stroke-width="2" points="185.78,-81.63 188,-74 181.5,-78.58 185.78,-81.63"/>
</g>
<!-- 14&#45;&gt;11 -->
<g id="edge8" class="edge">
<title>14:e&#45;&gt;11:w</title>
<path fill="none" stroke="#585858" stroke-width="2" d="M242,-135C242,-135 422.85,-108.82 462.41,-103.1"/>
<polygon fill="#585858" stroke="#585858" stroke-width="2" points="462.95,-105.67 470,-102 462.2,-100.48 462.95,-105.67"/>
</g>
<!-- 17 -->
<g id="node9" class="node">
<title>17</title>
<path fill="#c1e6fb" stroke="#585858" d="M324,-92C324,-92 294,-92 294,-92 288,-92 282,-86 282,-80 282,-80 282,-68 282,-68 282,-62 288,-56 294,-56 294,-56 324,-56 324,-56 330,-56 336,-62 336,-68 336,-68 336,-80 336,-80 336,-86 330,-92 324,-92"/>
<text text-anchor="middle" x="309" y="-76.8" font-family="Helvetica,sans-Serif" font-size="9.00">17</text>
<text text-anchor="middle" x="309" y="-66.8" font-family="Helvetica,sans-Serif" font-size="9.00">NOT</text>
</g>
<!-- 15&#45;&gt;17 -->
<g id="edge9" class="edge">
<title>15:e&#45;&gt;17:w</title>
<path fill="none" stroke="#585858" stroke-width="2" d="M242,-74C242,-74 262.66,-74 274.29,-74"/>
<polygon fill="#585858" stroke="#585858" stroke-width="2" points="274.5,-76.63 282,-74 274.5,-71.38 274.5,-76.63"/>
</g>
<!-- 18 -->
<g id="node10" class="node">
<title>18</title>
<path fill="#c1e6fb" stroke="#585858" d="M418,-92C418,-92 388,-92 388,-92 382,-92 376,-86 376,-80 376,-80 376,-68 376,-68 376,-62 382,-56 388,-56 388,-56 418,-56 418,-56 424,-56 430,-62 430,-68 430,-68 430,-80 430,-80 430,-86 424,-92 418,-92"/>
<text text-anchor="middle" x="403" y="-76.8" font-family="Helvetica,sans-Serif" font-size="9.00">18</text>
<text text-anchor="middle" x="403" y="-66.8" font-family="Helvetica,sans-Serif" font-size="9.00">NOR</text>
</g>
<!-- 16&#45;&gt;18 -->
<g id="edge10" class="edge">
<title>16:e&#45;&gt;18:w</title>
<path fill="none" stroke="#585858" stroke-width="2" d="M148,-18C148,-18 336,-44 336,-44 336,-44 358.5,-60.88 369.75,-69.31"/>
<polygon fill="#585858" stroke="#585858" stroke-width="2" points="368.42,-71.6 376,-74 371.57,-67.4 368.42,-71.6"/>
</g>
<!-- 17&#45;&gt;18 -->
<g id="edge11" class="edge">
<title>17:e&#45;&gt;18:w</title>
<path fill="none" stroke="#585858" stroke-width="2" d="M336,-74C336,-74 356.66,-74 368.29,-74"/>
<polygon fill="#585858" stroke="#585858" stroke-width="2" points="368.5,-76.63 376,-74 368.5,-71.38 368.5,-76.63"/>
</g>
<!-- 18&#45;&gt;11 -->
<g id="edge12" class="edge">
<title>18:e&#45;&gt;11:w</title>
<path fill="none" stroke="#585858" stroke-width="2" d="M430,-74C430,-74 452.5,-89.75 463.75,-97.62"/>
<polygon fill="#585858" stroke="#585858" stroke-width="2" points="462.35,-99.85 470,-102 465.36,-95.55 462.35,-99.85"/>
</g>
</g>
</svg>
