<?xml version="1.0" encoding="UTF-8" standalone="no"?>
<!DOCTYPE svg PUBLIC "-//W3C//DTD SVG 1.1//EN"
 "http://www.w3.org/Graphics/SVG/1.1/DTD/svg11.dtd">
<!-- Generated by graphviz version 2.43.0 (0)
 -->
<!-- Title: 0x52_optimal_topology_3 Pages: 1 -->
<svg width="540pt" height="197pt"
 viewBox="3.60 3.60 536.80 193.80" xmlns="http://www.w3.org/2000/svg" xmlns:xlink="http://www.w3.org/1999/xlink">
<g id="graph0" class="graph" transform="scale(1 1) rotate(0) translate(7.2 190.2)">
<title>0x52_optimal_topology_3</title>
<polygon fill="white" stroke="transparent" points="-3.6,3.6 -3.6,-186.6 529.6,-186.6 529.6,3.6 -3.6,3.6"/>
<!-- 0 -->
<g id="node1" class="node">
<title>0</title>
<path fill="#f2fef2" stroke="#585858" d="M42,-183C42,-183 12,-183 12,-183 6,-183 0,-177 0,-171 0,-171 0,-159 0,-159 0,-153 6,-147 12,-147 12,-147 42,-147 42,-147 48,-147 54,-153 54,-159 54,-159 54,-171 54,-171 54,-177 48,-183 42,-183"/>
<text text-anchor="middle" x="27" y="-167.8" font-family="Helvetica,sans-Serif" font-size="9.00">0</text>
<text text-anchor="middle" x="27" y="-157.8" font-family="Helvetica,sans-Serif" font-size="9.00">INPUT</text>
</g>
<!-- 13 -->
<g id="node5" class="node">
<title>13</title>
<path fill="#c1e6fb" stroke="#585858" d="M136,-153C136,-153 106,-153 106,-153 100,-153 94,-147 94,-141 94,-141 94,-129 94,-129 94,-123 100,-117 106,-117 106,-117 136,-117 136,-117 142,-117 148,-123 148,-129 148,-129 148,-141 148,-141 148,-147 142,-153 136,-153"/>
<text text-anchor="middle" x="121" y="-137.8" font-family="Helvetica,sans-Serif" font-size="9.00">13</text>
<text text-anchor="middle" x="121" y="-127.8" font-family="Helvetica,sans-Serif" font-size="9.00">NOR</text>
</g>
<!-- 0&#45;&gt;13 -->
<g id="edge1" class="edge">
<title>0:e&#45;&gt;13:w</title>
<path fill="none" stroke="#585858" stroke-width="2" d="M54,-165C54,-165 76.5,-148.12 87.75,-139.69"/>
<polygon fill="#585858" stroke="#585858" stroke-width="2" points="89.57,-141.6 94,-135 86.42,-137.4 89.57,-141.6"/>
</g>
<!-- 14 -->
<g id="node6" class="node">
<title>14</title>
<path fill="#c1e6fb" stroke="#585858" d="M230,-153C230,-153 200,-153 200,-153 194,-153 188,-147 188,-141 188,-141 188,-129 188,-129 188,-123 194,-117 200,-117 200,-117 230,-117 230,-117 236,-117 242,-123 242,-129 242,-129 242,-141 242,-141 242,-147 236,-153 230,-153"/>
<text text-anchor="middle" x="215" y="-137.8" font-family="Helvetica,sans-Serif" font-size="9.00">14</text>
<text text-anchor="middle" x="215" y="-127.8" font-family="Helvetica,sans-Serif" font-size="9.00">NOR</text>
</g>
<!-- 0&#45;&gt;14 -->
<g id="edge2" class="edge">
<title>0:e&#45;&gt;14:w</title>
<path fill="none" stroke="#585858" stroke-width="2" d="M54,-165C54,-165 94,-166 94,-166 94,-166 148,-166 148,-166 148,-166 170.5,-148.56 181.75,-139.84"/>
<polygon fill="#585858" stroke="#585858" stroke-width="2" points="183.68,-141.67 188,-135 180.46,-137.52 183.68,-141.67"/>
</g>
<!-- 1 -->
<g id="node2" class="node">
<title>1</title>
<path fill="#f2fef2" stroke="#585858" d="M42,-97C42,-97 12,-97 12,-97 6,-97 0,-91 0,-85 0,-85 0,-73 0,-73 0,-67 6,-61 12,-61 12,-61 42,-61 42,-61 48,-61 54,-67 54,-73 54,-73 54,-85 54,-85 54,-91 48,-97 42,-97"/>
<text text-anchor="middle" x="27" y="-81.8" font-family="Helvetica,sans-Serif" font-size="9.00">1</text>
<text text-anchor="middle" x="27" y="-71.8" font-family="Helvetica,sans-Serif" font-size="9.00">INPUT</text>
</g>
<!-- 16 -->
<g id="node7" class="node">
<title>16</title>
<path fill="#c1e6fb" stroke="#585858" d="M136,-92C136,-92 106,-92 106,-92 100,-92 94,-86 94,-80 94,-80 94,-68 94,-68 94,-62 100,-56 106,-56 106,-56 136,-56 136,-56 142,-56 148,-62 148,-68 148,-68 148,-80 148,-80 148,-86 142,-92 136,-92"/>
<text text-anchor="middle" x="121" y="-76.8" font-family="Helvetica,sans-Serif" font-size="9.00">16</text>
<text text-anchor="middle" x="121" y="-66.8" font-family="Helvetica,sans-Serif" font-size="9.00">NOT</text>
</g>
<!-- 1&#45;&gt;16 -->
<g id="edge3" class="edge">
<title>1:e&#45;&gt;16:w</title>
<path fill="none" stroke="#585858" stroke-width="2" d="M54,-79C54,-79 74.66,-76.42 86.29,-74.96"/>
<polygon fill="#585858" stroke="#585858" stroke-width="2" points="86.88,-77.54 94,-74 86.23,-72.33 86.88,-77.54"/>
</g>
<!-- 2 -->
<g id="node3" class="node">
<title>2</title>
<path fill="#f2fef2" stroke="#585858" d="M42,-36C42,-36 12,-36 12,-36 6,-36 0,-30 0,-24 0,-24 0,-12 0,-12 0,-6 6,0 12,0 12,0 42,0 42,0 48,0 54,-6 54,-12 54,-12 54,-24 54,-24 54,-30 48,-36 42,-36"/>
<text text-anchor="middle" x="27" y="-20.8" font-family="Helvetica,sans-Serif" font-size="9.00">2</text>
<text text-anchor="middle" x="27" y="-10.8" font-family="Helvetica,sans-Serif" font-size="9.00">INPUT</text>
</g>
<!-- 2&#45;&gt;13 -->
<g id="edge4" class="edge">
<title>2:e&#45;&gt;13:w</title>
<path fill="none" stroke="#585858" stroke-width="2" d="M54,-18C54,-18 82.74,-102.07 91.5,-127.68"/>
<polygon fill="#585858" stroke="#585858" stroke-width="2" points="89.09,-128.75 94,-135 94.06,-127.05 89.09,-128.75"/>
</g>
<!-- 18 -->
<g id="node9" class="node">
<title>18</title>
<path fill="#c1e6fb" stroke="#585858" d="M418,-92C418,-92 388,-92 388,-92 382,-92 376,-86 376,-80 376,-80 376,-68 376,-68 376,-62 382,-56 388,-56 388,-56 418,-56 418,-56 424,-56 430,-62 430,-68 430,-68 430,-80 430,-80 430,-86 424,-92 418,-92"/>
<text text-anchor="middle" x="403" y="-76.8" font-family="Helvetica,sans-Serif" font-size="9.00">18</text>
<text text-anchor="middle" x="403" y="-66.8" font-family="Helvetica,sans-Serif" font-size="9.00">NOR</text>
</g>
<!-- 2&#45;&gt;18 -->
<g id="edge5" class="edge">
<title>2:e&#45;&gt;18:w</title>
<path fill="none" stroke="#585858" stroke-width="2" d="M54,-18C54,-18 336,-44 336,-44 336,-44 358.5,-60.88 369.75,-69.31"/>
<polygon fill="#585858" stroke="#585858" stroke-width="2" points="368.42,-71.6 376,-74 371.57,-67.4 368.42,-71.6"/>
</g>
<!-- 11 -->
<g id="node4" class="node">
<title>11</title>
<path fill="#fcffe5" stroke="#585858" d="M514,-120C514,-120 482,-120 482,-120 476,-120 470,-114 470,-108 470,-108 470,-96 470,-96 470,-90 476,-84 482,-84 482,-84 514,-84 514,-84 520,-84 526,-90 526,-96 526,-96 526,-108 526,-108 526,-114 520,-120 514,-120"/>
<text text-anchor="middle" x="498" y="-104.8" font-family="Helvetica,sans-Serif" font-size="9.00">11</text>
<text text-anchor="middle" x="498" y="-94.8" font-family="Helvetica,sans-Serif" font-size="9.00">OR/OUTPUT</text>
</g>
<!-- 13&#45;&gt;14 -->
<g id="edge6" class="edge">
<title>13:e&#45;&gt;14:w</title>
<path fill="none" stroke="#585858" stroke-width="2" d="M148,-135C148,-135 168.66,-135 180.29,-135"/>
<polygon fill="#585858" stroke="#585858" stroke-width="2" points="180.5,-137.63 188,-135 180.5,-132.38 180.5,-137.63"/>
</g>
<!-- 17 -->
<g id="node8" class="node">
<title>17</title>
<path fill="#c1e6fb" stroke="#585858" d="M230,-92C230,-92 200,-92 200,-92 194,-92 188,-86 188,-80 188,-80 188,-68 188,-68 188,-62 194,-56 200,-56 200,-56 230,-56 230,-56 236,-56 242,-62 242,-68 242,-68 242,-80 242,-80 242,-86 236,-92 230,-92"/>
<text text-anchor="middle" x="215" y="-76.8" font-family="Helvetica,sans-Serif" font-size="9.00">17</text>
<text text-anchor="middle" x="215" y="-66.8" font-family="Helvetica,sans-Serif" font-size="9.00">NOR</text>
</g>
<!-- 13&#45;&gt;17 -->
<g id="edge7" class="edge">
<title>13:e&#45;&gt;17:w</title>
<path fill="none" stroke="#585858" stroke-width="2" d="M148,-135C148,-135 173.4,-96.26 183.72,-80.53"/>
<polygon fill="#585858" stroke="#585858" stroke-width="2" points="186.08,-81.71 188,-74 181.69,-78.83 186.08,-81.71"/>
</g>
<!-- 14&#45;&gt;11 -->
<g id="edge8" class="edge">
<title>14:e&#45;&gt;11:w</title>
<path fill="none" stroke="#585858" stroke-width="2" d="M242,-135C242,-135 422.85,-108.82 462.41,-103.1"/>
<polygon fill="#585858" stroke="#585858" stroke-width="2" points="462.95,-105.67 470,-102 462.2,-100.48 462.95,-105.67"/>
</g>
<!-- 16&#45;&gt;17 -->
<g id="edge9" class="edge">
<title>16:e&#45;&gt;17:w</title>
<path fill="none" stroke="#585858" stroke-width="2" d="M148,-74C148,-74 168.66,-74 180.29,-74"/>
<polygon fill="#585858" stroke="#585858" stroke-width="2" points="180.5,-76.63 188,-74 180.5,-71.38 180.5,-76.63"/>
</g>
<!-- 20 -->
<g id="node10" class="node">
<title>20</title>
<path fill="#c1e6fb" stroke="#585858" d="M324,-92C324,-92 294,-92 294,-92 288,-92 282,-86 282,-80 282,-80 282,-68 282,-68 282,-62 288,-56 294,-56 294,-56 324,-56 324,-56 330,-56 336,-62 336,-68 336,-68 336,-80 336,-80 336,-86 330,-92 324,-92"/>
<text text-anchor="middle" x="309" y="-76.8" font-family="Helvetica,sans-Serif" font-size="9.00">20</text>
<text text-anchor="middle" x="309" y="-66.8" font-family="Helvetica,sans-Serif" font-size="9.00">NOT</text>
</g>
<!-- 17&#45;&gt;20 -->
<g id="edge10" class="edge">
<title>17:e&#45;&gt;20:w</title>
<path fill="none" stroke="#585858" stroke-width="2" d="M242,-74C242,-74 262.66,-74 274.29,-74"/>
<polygon fill="#585858" stroke="#585858" stroke-width="2" points="274.5,-76.63 282,-74 274.5,-71.38 274.5,-76.63"/>
</g>
<!-- 18&#45;&gt;11 -->
<g id="edge11" class="edge">
<title>18:e&#45;&gt;11:w</title>
<path fill="none" stroke="#585858" stroke-width="2" d="M430,-74C430,-74 452.5,-89.75 463.75,-97.62"/>
<polygon fill="#585858" stroke="#585858" stroke-width="2" points="462.35,-99.85 470,-102 465.36,-95.55 462.35,-99.85"/>
</g>
<!-- 20&#45;&gt;18 -->
<g id="edge12" class="edge">
<title>20:e&#45;&gt;18:w</title>
<path fill="none" stroke="#585858" stroke-width="2" d="M336,-74C336,-74 356.66,-74 368.29,-74"/>
<polygon fill="#585858" stroke="#585858" stroke-width="2" points="368.5,-76.63 376,-74 368.5,-71.38 368.5,-76.63"/>
</g>
</g>
</svg>
