<?xml version="1.0" encoding="UTF-8" standalone="no"?>
<!DOCTYPE svg PUBLIC "-//W3C//DTD SVG 1.1//EN"
 "http://www.w3.org/Graphics/SVG/1.1/DTD/svg11.dtd">
<!-- Generated by graphviz version 2.43.0 (0)
 -->
<!-- Title: 0x52_optimal_topology_1 Pages: 1 -->
<svg width="540pt" height="198pt"
 viewBox="3.60 3.60 536.80 194.80" xmlns="http://www.w3.org/2000/svg" xmlns:xlink="http://www.w3.org/1999/xlink">
<g id="graph0" class="graph" transform="scale(1 1) rotate(0) translate(7.2 191.2)">
<title>0x52_optimal_topology_1</title>
<polygon fill="white" stroke="transparent" points="-3.6,3.6 -3.6,-187.6 529.6,-187.6 529.6,3.6 -3.6,3.6"/>
<!-- 0 -->
<g id="node1" class="node">
<title>0</title>
<path fill="#f2fef2" stroke="#585858" d="M42,-184C42,-184 12,-184 12,-184 6,-184 0,-178 0,-172 0,-172 0,-160 0,-160 0,-154 6,-148 12,-148 12,-148 42,-148 42,-148 48,-148 54,-154 54,-160 54,-160 54,-172 54,-172 54,-178 48,-184 42,-184"/>
<text text-anchor="middle" x="27" y="-168.8" font-family="Helvetica,sans-Serif" font-size="9.00">0</text>
<text text-anchor="middle" x="27" y="-158.8" font-family="Helvetica,sans-Serif" font-size="9.00">INPUT</text>
</g>
<!-- 13 -->
<g id="node5" class="node">
<title>13</title>
<path fill="#c1e6fb" stroke="#585858" d="M136,-155C136,-155 106,-155 106,-155 100,-155 94,-149 94,-143 94,-143 94,-131 94,-131 94,-125 100,-119 106,-119 106,-119 136,-119 136,-119 142,-119 148,-125 148,-131 148,-131 148,-143 148,-143 148,-149 142,-155 136,-155"/>
<text text-anchor="middle" x="121" y="-139.8" font-family="Helvetica,sans-Serif" font-size="9.00">13</text>
<text text-anchor="middle" x="121" y="-129.8" font-family="Helvetica,sans-Serif" font-size="9.00">NOT</text>
</g>
<!-- 0&#45;&gt;13 -->
<g id="edge1" class="edge">
<title>0:e&#45;&gt;13:w</title>
<path fill="none" stroke="#585858" stroke-width="2" d="M54,-166C54,-166 76.5,-149.69 87.75,-141.53"/>
<polygon fill="#585858" stroke="#585858" stroke-width="2" points="89.47,-143.53 94,-137 86.39,-139.28 89.47,-143.53"/>
</g>
<!-- 17 -->
<g id="node9" class="node">
<title>17</title>
<path fill="#c1e6fb" stroke="#585858" d="M418,-99C418,-99 388,-99 388,-99 382,-99 376,-93 376,-87 376,-87 376,-75 376,-75 376,-69 382,-63 388,-63 388,-63 418,-63 418,-63 424,-63 430,-69 430,-75 430,-75 430,-87 430,-87 430,-93 424,-99 418,-99"/>
<text text-anchor="middle" x="403" y="-83.8" font-family="Helvetica,sans-Serif" font-size="9.00">17</text>
<text text-anchor="middle" x="403" y="-73.8" font-family="Helvetica,sans-Serif" font-size="9.00">NOR</text>
</g>
<!-- 0&#45;&gt;17 -->
<g id="edge2" class="edge">
<title>0:e&#45;&gt;17:w</title>
<path fill="none" stroke="#585858" stroke-width="2" d="M54,-166C54,-166 94,-168 94,-168 94,-168 148,-168 148,-168 148,-168 330.44,-98.38 368.93,-83.7"/>
<polygon fill="#585858" stroke="#585858" stroke-width="2" points="369.93,-86.13 376,-81 368.06,-81.22 369.93,-86.13"/>
</g>
<!-- 1 -->
<g id="node2" class="node">
<title>1</title>
<path fill="#f2fef2" stroke="#585858" d="M42,-97C42,-97 12,-97 12,-97 6,-97 0,-91 0,-85 0,-85 0,-73 0,-73 0,-67 6,-61 12,-61 12,-61 42,-61 42,-61 48,-61 54,-67 54,-73 54,-73 54,-85 54,-85 54,-91 48,-97 42,-97"/>
<text text-anchor="middle" x="27" y="-81.8" font-family="Helvetica,sans-Serif" font-size="9.00">1</text>
<text text-anchor="middle" x="27" y="-71.8" font-family="Helvetica,sans-Serif" font-size="9.00">INPUT</text>
</g>
<!-- 14 -->
<g id="node6" class="node">
<title>14</title>
<path fill="#c1e6fb" stroke="#585858" d="M136,-94C136,-94 106,-94 106,-94 100,-94 94,-88 94,-82 94,-82 94,-70 94,-70 94,-64 100,-58 106,-58 106,-58 136,-58 136,-58 142,-58 148,-64 148,-70 148,-70 148,-82 148,-82 148,-88 142,-94 136,-94"/>
<text text-anchor="middle" x="121" y="-78.8" font-family="Helvetica,sans-Serif" font-size="9.00">14</text>
<text text-anchor="middle" x="121" y="-68.8" font-family="Helvetica,sans-Serif" font-size="9.00">NOT</text>
</g>
<!-- 1&#45;&gt;14 -->
<g id="edge3" class="edge">
<title>1:e&#45;&gt;14:w</title>
<path fill="none" stroke="#585858" stroke-width="2" d="M54,-79C54,-79 74.66,-77.45 86.29,-76.58"/>
<polygon fill="#585858" stroke="#585858" stroke-width="2" points="86.72,-79.18 94,-76 86.32,-73.94 86.72,-79.18"/>
</g>
<!-- 2 -->
<g id="node3" class="node">
<title>2</title>
<path fill="#f2fef2" stroke="#585858" d="M42,-36C42,-36 12,-36 12,-36 6,-36 0,-30 0,-24 0,-24 0,-12 0,-12 0,-6 6,0 12,0 12,0 42,0 42,0 48,0 54,-6 54,-12 54,-12 54,-24 54,-24 54,-30 48,-36 42,-36"/>
<text text-anchor="middle" x="27" y="-20.8" font-family="Helvetica,sans-Serif" font-size="9.00">2</text>
<text text-anchor="middle" x="27" y="-10.8" font-family="Helvetica,sans-Serif" font-size="9.00">INPUT</text>
</g>
<!-- 16 -->
<g id="node8" class="node">
<title>16</title>
<path fill="#c1e6fb" stroke="#585858" d="M324,-66C324,-66 294,-66 294,-66 288,-66 282,-60 282,-54 282,-54 282,-42 282,-42 282,-36 288,-30 294,-30 294,-30 324,-30 324,-30 330,-30 336,-36 336,-42 336,-42 336,-54 336,-54 336,-60 330,-66 324,-66"/>
<text text-anchor="middle" x="309" y="-50.8" font-family="Helvetica,sans-Serif" font-size="9.00">16</text>
<text text-anchor="middle" x="309" y="-40.8" font-family="Helvetica,sans-Serif" font-size="9.00">NOR</text>
</g>
<!-- 2&#45;&gt;16 -->
<g id="edge4" class="edge">
<title>2:e&#45;&gt;16:w</title>
<path fill="none" stroke="#585858" stroke-width="2" d="M216,-20C216,-20 257.91,-37.78 274.94,-45"/>
<polygon fill="#585858" stroke="#585858" stroke-width="2" points="274.07,-47.49 282,-48 276.12,-42.65 274.07,-47.49"/>
</g>
<!-- 18 -->
<g id="node10" class="node">
<title>18</title>
<path fill="#c1e6fb" stroke="#585858" d="M418,-38C418,-38 388,-38 388,-38 382,-38 376,-32 376,-26 376,-26 376,-14 376,-14 376,-8 382,-2 388,-2 388,-2 418,-2 418,-2 424,-2 430,-8 430,-14 430,-14 430,-26 430,-26 430,-32 424,-38 418,-38"/>
<text text-anchor="middle" x="403" y="-22.8" font-family="Helvetica,sans-Serif" font-size="9.00">18</text>
<text text-anchor="middle" x="403" y="-12.8" font-family="Helvetica,sans-Serif" font-size="9.00">NOR</text>
</g>
<!-- 2&#45;&gt;18 -->
<g id="edge5" class="edge">
<title>2:e&#45;&gt;18:w</title>
<path fill="none" stroke="#585858" stroke-width="2" d="M54,-18C54,-18 214,-20 214,-20"/>
<path fill="none" stroke="#585858" stroke-width="2" d="M216,-20C216,-20 282,-17 282,-17 282,-17 336,-17 336,-17 336,-17 356.66,-18.55 368.29,-19.42"/>
<polygon fill="#585858" stroke="#585858" stroke-width="2" points="368.32,-22.06 376,-20 368.72,-16.82 368.32,-22.06"/>
</g>
<!-- 11 -->
<g id="node4" class="node">
<title>11</title>
<path fill="#fcffe5" stroke="#585858" d="M514,-68C514,-68 482,-68 482,-68 476,-68 470,-62 470,-56 470,-56 470,-44 470,-44 470,-38 476,-32 482,-32 482,-32 514,-32 514,-32 520,-32 526,-38 526,-44 526,-44 526,-56 526,-56 526,-62 520,-68 514,-68"/>
<text text-anchor="middle" x="498" y="-52.8" font-family="Helvetica,sans-Serif" font-size="9.00">11</text>
<text text-anchor="middle" x="498" y="-42.8" font-family="Helvetica,sans-Serif" font-size="9.00">OR/OUTPUT</text>
</g>
<!-- 15 -->
<g id="node7" class="node">
<title>15</title>
<path fill="#c1e6fb" stroke="#585858" d="M230,-94C230,-94 200,-94 200,-94 194,-94 188,-88 188,-82 188,-82 188,-70 188,-70 188,-64 194,-58 200,-58 200,-58 230,-58 230,-58 236,-58 242,-64 242,-70 242,-70 242,-82 242,-82 242,-88 236,-94 230,-94"/>
<text text-anchor="middle" x="215" y="-78.8" font-family="Helvetica,sans-Serif" font-size="9.00">15</text>
<text text-anchor="middle" x="215" y="-68.8" font-family="Helvetica,sans-Serif" font-size="9.00">NOR</text>
</g>
<!-- 13&#45;&gt;15 -->
<g id="edge6" class="edge">
<title>13:e&#45;&gt;15:w</title>
<path fill="none" stroke="#585858" stroke-width="2" d="M148,-137C148,-137 173.4,-98.26 183.72,-82.53"/>
<polygon fill="#585858" stroke="#585858" stroke-width="2" points="186.08,-83.71 188,-76 181.69,-80.83 186.08,-83.71"/>
</g>
<!-- 14&#45;&gt;15 -->
<g id="edge7" class="edge">
<title>14:e&#45;&gt;15:w</title>
<path fill="none" stroke="#585858" stroke-width="2" d="M148,-76C148,-76 168.66,-76 180.29,-76"/>
<polygon fill="#585858" stroke="#585858" stroke-width="2" points="180.5,-78.63 188,-76 180.5,-73.38 180.5,-78.63"/>
</g>
<!-- 15&#45;&gt;16 -->
<g id="edge8" class="edge">
<title>15:e&#45;&gt;16:w</title>
<path fill="none" stroke="#585858" stroke-width="2" d="M242,-76C242,-76 264.5,-60.25 275.75,-52.38"/>
<polygon fill="#585858" stroke="#585858" stroke-width="2" points="277.36,-54.45 282,-48 274.35,-50.15 277.36,-54.45"/>
</g>
<!-- 16&#45;&gt;17 -->
<g id="edge9" class="edge">
<title>16:e&#45;&gt;17:w</title>
<path fill="none" stroke="#585858" stroke-width="2" d="M336,-48C336,-48 358.97,-66.95 370.1,-76.13"/>
<polygon fill="#585858" stroke="#585858" stroke-width="2" points="368.54,-78.25 376,-81 371.89,-74.2 368.54,-78.25"/>
</g>
<!-- 16&#45;&gt;18 -->
<g id="edge10" class="edge">
<title>16:e&#45;&gt;18:w</title>
<path fill="none" stroke="#585858" stroke-width="2" d="M336,-48C336,-48 358.5,-32.25 369.75,-24.38"/>
<polygon fill="#585858" stroke="#585858" stroke-width="2" points="371.36,-26.45 376,-20 368.35,-22.15 371.36,-26.45"/>
</g>
<!-- 17&#45;&gt;11 -->
<g id="edge11" class="edge">
<title>17:e&#45;&gt;11:w</title>
<path fill="none" stroke="#585858" stroke-width="2" d="M430,-81C430,-81 452.5,-63.56 463.75,-54.84"/>
<polygon fill="#585858" stroke="#585858" stroke-width="2" points="465.68,-56.67 470,-50 462.46,-52.52 465.68,-56.67"/>
</g>
<!-- 18&#45;&gt;11 -->
<g id="edge12" class="edge">
<title>18:e&#45;&gt;11:w</title>
<path fill="none" stroke="#585858" stroke-width="2" d="M430,-20C430,-20 452.5,-36.88 463.75,-45.31"/>
<polygon fill="#585858" stroke="#585858" stroke-width="2" points="462.42,-47.6 470,-50 465.57,-43.4 462.42,-47.6"/>
</g>
</g>
</svg>
