<?xml version="1.0" encoding="UTF-8" standalone="no"?>
<!DOCTYPE svg PUBLIC "-//W3C//DTD SVG 1.1//EN"
 "http://www.w3.org/Graphics/SVG/1.1/DTD/svg11.dtd">
<!-- Generated by graphviz version 2.43.0 (0)
 -->
<!-- Title: 0x52_optimal_topology_5 Pages: 1 -->
<svg width="540pt" height="185pt"
 viewBox="3.60 3.60 536.80 181.80" xmlns="http://www.w3.org/2000/svg" xmlns:xlink="http://www.w3.org/1999/xlink">
<g id="graph0" class="graph" transform="scale(1 1) rotate(0) translate(7.2 178.2)">
<title>0x52_optimal_topology_5</title>
<polygon fill="white" stroke="transparent" points="-3.6,3.6 -3.6,-174.6 529.6,-174.6 529.6,3.6 -3.6,3.6"/>
<!-- 0 -->
<g id="node1" class="node">
<title>0</title>
<path fill="#f2fef2" stroke="#585858" d="M42,-171C42,-171 12,-171 12,-171 6,-171 0,-165 0,-159 0,-159 0,-147 0,-147 0,-141 6,-135 12,-135 12,-135 42,-135 42,-135 48,-135 54,-141 54,-147 54,-147 54,-159 54,-159 54,-165 48,-171 42,-171"/>
<text text-anchor="middle" x="27" y="-155.8" font-family="Helvetica,sans-Serif" font-size="9.00">0</text>
<text text-anchor="middle" x="27" y="-145.8" font-family="Helvetica,sans-Serif" font-size="9.00">INPUT</text>
</g>
<!-- 21 -->
<g id="node6" class="node">
<title>21</title>
<path fill="#c1e6fb" stroke="#585858" d="M418,-126C418,-126 388,-126 388,-126 382,-126 376,-120 376,-114 376,-114 376,-102 376,-102 376,-96 382,-90 388,-90 388,-90 418,-90 418,-90 424,-90 430,-96 430,-102 430,-102 430,-114 430,-114 430,-120 424,-126 418,-126"/>
<text text-anchor="middle" x="403" y="-110.8" font-family="Helvetica,sans-Serif" font-size="9.00">21</text>
<text text-anchor="middle" x="403" y="-100.8" font-family="Helvetica,sans-Serif" font-size="9.00">NOR</text>
</g>
<!-- 0&#45;&gt;21 -->
<g id="edge1" class="edge">
<title>0:e&#45;&gt;21:w</title>
<path fill="none" stroke="#585858" stroke-width="2" d="M54,-153C54,-153 148,-141 148,-141 148,-141 328.85,-114.82 368.41,-109.1"/>
<polygon fill="#585858" stroke="#585858" stroke-width="2" points="368.95,-111.67 376,-108 368.2,-106.48 368.95,-111.67"/>
</g>
<!-- 28 -->
<g id="node10" class="node">
<title>28</title>
<path fill="#c1e6fb" stroke="#585858" d="M136,-128C136,-128 106,-128 106,-128 100,-128 94,-122 94,-116 94,-116 94,-104 94,-104 94,-98 100,-92 106,-92 106,-92 136,-92 136,-92 142,-92 148,-98 148,-104 148,-104 148,-116 148,-116 148,-122 142,-128 136,-128"/>
<text text-anchor="middle" x="121" y="-112.8" font-family="Helvetica,sans-Serif" font-size="9.00">28</text>
<text text-anchor="middle" x="121" y="-102.8" font-family="Helvetica,sans-Serif" font-size="9.00">NOR</text>
</g>
<!-- 0&#45;&gt;28 -->
<g id="edge2" class="edge">
<title>0:e&#45;&gt;28:w</title>
<path fill="none" stroke="#585858" stroke-width="2" d="M54,-153C54,-153 77.93,-127.28 88.77,-115.62"/>
<polygon fill="#585858" stroke="#585858" stroke-width="2" points="90.81,-117.28 94,-110 86.97,-113.7 90.81,-117.28"/>
</g>
<!-- 1 -->
<g id="node2" class="node">
<title>1</title>
<path fill="#f2fef2" stroke="#585858" d="M42,-97C42,-97 12,-97 12,-97 6,-97 0,-91 0,-85 0,-85 0,-73 0,-73 0,-67 6,-61 12,-61 12,-61 42,-61 42,-61 48,-61 54,-67 54,-73 54,-73 54,-85 54,-85 54,-91 48,-97 42,-97"/>
<text text-anchor="middle" x="27" y="-81.8" font-family="Helvetica,sans-Serif" font-size="9.00">1</text>
<text text-anchor="middle" x="27" y="-71.8" font-family="Helvetica,sans-Serif" font-size="9.00">INPUT</text>
</g>
<!-- 26 -->
<g id="node8" class="node">
<title>26</title>
<path fill="#c1e6fb" stroke="#585858" d="M136,-67C136,-67 106,-67 106,-67 100,-67 94,-61 94,-55 94,-55 94,-43 94,-43 94,-37 100,-31 106,-31 106,-31 136,-31 136,-31 142,-31 148,-37 148,-43 148,-43 148,-55 148,-55 148,-61 142,-67 136,-67"/>
<text text-anchor="middle" x="121" y="-51.8" font-family="Helvetica,sans-Serif" font-size="9.00">26</text>
<text text-anchor="middle" x="121" y="-41.8" font-family="Helvetica,sans-Serif" font-size="9.00">NOR</text>
</g>
<!-- 1&#45;&gt;26 -->
<g id="edge3" class="edge">
<title>1:e&#45;&gt;26:w</title>
<path fill="none" stroke="#585858" stroke-width="2" d="M54,-79C54,-79 76.5,-62.12 87.75,-53.69"/>
<polygon fill="#585858" stroke="#585858" stroke-width="2" points="89.57,-55.6 94,-49 86.42,-51.4 89.57,-55.6"/>
</g>
<!-- 2 -->
<g id="node3" class="node">
<title>2</title>
<path fill="#f2fef2" stroke="#585858" d="M42,-36C42,-36 12,-36 12,-36 6,-36 0,-30 0,-24 0,-24 0,-12 0,-12 0,-6 6,0 12,0 12,0 42,0 42,0 48,0 54,-6 54,-12 54,-12 54,-24 54,-24 54,-30 48,-36 42,-36"/>
<text text-anchor="middle" x="27" y="-20.8" font-family="Helvetica,sans-Serif" font-size="9.00">2</text>
<text text-anchor="middle" x="27" y="-10.8" font-family="Helvetica,sans-Serif" font-size="9.00">INPUT</text>
</g>
<!-- 22 -->
<g id="node7" class="node">
<title>22</title>
<path fill="#c1e6fb" stroke="#585858" d="M418,-65C418,-65 388,-65 388,-65 382,-65 376,-59 376,-53 376,-53 376,-41 376,-41 376,-35 382,-29 388,-29 388,-29 418,-29 418,-29 424,-29 430,-35 430,-41 430,-41 430,-53 430,-53 430,-59 424,-65 418,-65"/>
<text text-anchor="middle" x="403" y="-49.8" font-family="Helvetica,sans-Serif" font-size="9.00">22</text>
<text text-anchor="middle" x="403" y="-39.8" font-family="Helvetica,sans-Serif" font-size="9.00">NOR</text>
</g>
<!-- 2&#45;&gt;22 -->
<g id="edge4" class="edge">
<title>2:e&#45;&gt;22:w</title>
<path fill="none" stroke="#585858" stroke-width="2" d="M54,-18C54,-18 148,-19 148,-19 148,-19 328.85,-41.21 368.41,-46.07"/>
<polygon fill="#585858" stroke="#585858" stroke-width="2" points="368.24,-48.69 376,-47 368.88,-43.48 368.24,-48.69"/>
</g>
<!-- 2&#45;&gt;26 -->
<g id="edge5" class="edge">
<title>2:e&#45;&gt;26:w</title>
<path fill="none" stroke="#585858" stroke-width="2" d="M54,-18C54,-18 76.5,-35.44 87.75,-44.16"/>
<polygon fill="#585858" stroke="#585858" stroke-width="2" points="86.46,-46.48 94,-49 89.68,-42.33 86.46,-46.48"/>
</g>
<!-- 2&#45;&gt;28 -->
<g id="edge6" class="edge">
<title>2:e&#45;&gt;28:w</title>
<path fill="none" stroke="#585858" stroke-width="2" d="M54,-18C54,-18 81.69,-81.69 90.99,-103.09"/>
<polygon fill="#585858" stroke="#585858" stroke-width="2" points="88.6,-104.17 94,-110 93.42,-102.08 88.6,-104.17"/>
</g>
<!-- 11 -->
<g id="node4" class="node">
<title>11</title>
<path fill="#fcffe5" stroke="#585858" d="M514,-95C514,-95 482,-95 482,-95 476,-95 470,-89 470,-83 470,-83 470,-71 470,-71 470,-65 476,-59 482,-59 482,-59 514,-59 514,-59 520,-59 526,-65 526,-71 526,-71 526,-83 526,-83 526,-89 520,-95 514,-95"/>
<text text-anchor="middle" x="498" y="-79.8" font-family="Helvetica,sans-Serif" font-size="9.00">11</text>
<text text-anchor="middle" x="498" y="-69.8" font-family="Helvetica,sans-Serif" font-size="9.00">OR/OUTPUT</text>
</g>
<!-- 20 -->
<g id="node5" class="node">
<title>20</title>
<path fill="#c1e6fb" stroke="#585858" d="M324,-98C324,-98 294,-98 294,-98 288,-98 282,-92 282,-86 282,-86 282,-74 282,-74 282,-68 288,-62 294,-62 294,-62 324,-62 324,-62 330,-62 336,-68 336,-74 336,-74 336,-86 336,-86 336,-92 330,-98 324,-98"/>
<text text-anchor="middle" x="309" y="-82.8" font-family="Helvetica,sans-Serif" font-size="9.00">20</text>
<text text-anchor="middle" x="309" y="-72.8" font-family="Helvetica,sans-Serif" font-size="9.00">NOT</text>
</g>
<!-- 20&#45;&gt;21 -->
<g id="edge7" class="edge">
<title>20:e&#45;&gt;21:w</title>
<path fill="none" stroke="#585858" stroke-width="2" d="M336,-80C336,-80 358.5,-95.75 369.75,-103.62"/>
<polygon fill="#585858" stroke="#585858" stroke-width="2" points="368.35,-105.85 376,-108 371.36,-101.55 368.35,-105.85"/>
</g>
<!-- 20&#45;&gt;22 -->
<g id="edge8" class="edge">
<title>20:e&#45;&gt;22:w</title>
<path fill="none" stroke="#585858" stroke-width="2" d="M336,-80C336,-80 358.97,-61.05 370.1,-51.87"/>
<polygon fill="#585858" stroke="#585858" stroke-width="2" points="371.89,-53.8 376,-47 368.54,-49.75 371.89,-53.8"/>
</g>
<!-- 21&#45;&gt;11 -->
<g id="edge9" class="edge">
<title>21:e&#45;&gt;11:w</title>
<path fill="none" stroke="#585858" stroke-width="2" d="M430,-108C430,-108 452.5,-90.56 463.75,-81.84"/>
<polygon fill="#585858" stroke="#585858" stroke-width="2" points="465.68,-83.67 470,-77 462.46,-79.52 465.68,-83.67"/>
</g>
<!-- 22&#45;&gt;11 -->
<g id="edge10" class="edge">
<title>22:e&#45;&gt;11:w</title>
<path fill="none" stroke="#585858" stroke-width="2" d="M430,-47C430,-47 452.5,-63.88 463.75,-72.31"/>
<polygon fill="#585858" stroke="#585858" stroke-width="2" points="462.42,-74.6 470,-77 465.57,-70.4 462.42,-74.6"/>
</g>
<!-- 27 -->
<g id="node9" class="node">
<title>27</title>
<path fill="#c1e6fb" stroke="#585858" d="M230,-98C230,-98 200,-98 200,-98 194,-98 188,-92 188,-86 188,-86 188,-74 188,-74 188,-68 194,-62 200,-62 200,-62 230,-62 230,-62 236,-62 242,-68 242,-74 242,-74 242,-86 242,-86 242,-92 236,-98 230,-98"/>
<text text-anchor="middle" x="215" y="-82.8" font-family="Helvetica,sans-Serif" font-size="9.00">27</text>
<text text-anchor="middle" x="215" y="-72.8" font-family="Helvetica,sans-Serif" font-size="9.00">NOR</text>
</g>
<!-- 26&#45;&gt;27 -->
<g id="edge11" class="edge">
<title>26:e&#45;&gt;27:w</title>
<path fill="none" stroke="#585858" stroke-width="2" d="M148,-49C148,-49 170.5,-66.44 181.75,-75.16"/>
<polygon fill="#585858" stroke="#585858" stroke-width="2" points="180.46,-77.48 188,-80 183.68,-73.33 180.46,-77.48"/>
</g>
<!-- 27&#45;&gt;20 -->
<g id="edge12" class="edge">
<title>27:e&#45;&gt;20:w</title>
<path fill="none" stroke="#585858" stroke-width="2" d="M242,-80C242,-80 262.66,-80 274.29,-80"/>
<polygon fill="#585858" stroke="#585858" stroke-width="2" points="274.5,-82.63 282,-80 274.5,-77.38 274.5,-82.63"/>
</g>
<!-- 28&#45;&gt;27 -->
<g id="edge13" class="edge">
<title>28:e&#45;&gt;27:w</title>
<path fill="none" stroke="#585858" stroke-width="2" d="M148,-110C148,-110 170.5,-93.12 181.75,-84.69"/>
<polygon fill="#585858" stroke="#585858" stroke-width="2" points="183.57,-86.6 188,-80 180.42,-82.4 183.57,-86.6"/>
</g>
</g>
</svg>
