<?xml version="1.0" encoding="UTF-8" standalone="no"?>
<!DOCTYPE svg PUBLIC "-//W3C//DTD SVG 1.1//EN"
 "http://www.w3.org/Graphics/SVG/1.1/DTD/svg11.dtd">
<!-- Generated by graphviz version 2.43.0 (0)
 -->
<!-- Title: 0x52_optimal_topology_4 Pages: 1 -->
<svg width="538pt" height="223pt"
 viewBox="3.60 3.60 534.80 219.80" xmlns="http://www.w3.org/2000/svg" xmlns:xlink="http://www.w3.org/1999/xlink">
<g id="graph0" class="graph" transform="scale(1 1) rotate(0) translate(7.2 216.2)">
<title>0x52_optimal_topology_4</title>
<polygon fill="white" stroke="transparent" points="-3.6,3.6 -3.6,-212.6 527.6,-212.6 527.6,3.6 -3.6,3.6"/>
<!-- 0 -->
<g id="node1" class="node">
<title>0</title>
<path fill="#f2fef2" stroke="#585858" d="M42,-49C42,-49 12,-49 12,-49 6,-49 0,-43 0,-37 0,-37 0,-25 0,-25 0,-19 6,-13 12,-13 12,-13 42,-13 42,-13 48,-13 54,-19 54,-25 54,-25 54,-37 54,-37 54,-43 48,-49 42,-49"/>
<text text-anchor="middle" x="27" y="-33.8" font-family="Helvetica,sans-Serif" font-size="9.00">0</text>
<text text-anchor="middle" x="27" y="-23.8" font-family="Helvetica,sans-Serif" font-size="9.00">INPUT</text>
</g>
<!-- 19 -->
<g id="node8" class="node">
<title>19</title>
<path fill="#c1e6fb" stroke="#585858" d="M136,-36C136,-36 106,-36 106,-36 100,-36 94,-30 94,-24 94,-24 94,-12 94,-12 94,-6 100,0 106,0 106,0 136,0 136,0 142,0 148,-6 148,-12 148,-12 148,-24 148,-24 148,-30 142,-36 136,-36"/>
<text text-anchor="middle" x="121" y="-20.8" font-family="Helvetica,sans-Serif" font-size="9.00">19</text>
<text text-anchor="middle" x="121" y="-10.8" font-family="Helvetica,sans-Serif" font-size="9.00">NOT</text>
</g>
<!-- 0&#45;&gt;19 -->
<g id="edge1" class="edge">
<title>0:e&#45;&gt;19:w</title>
<path fill="none" stroke="#585858" stroke-width="2" d="M54,-31C54,-31 75.12,-24.14 86.66,-20.38"/>
<polygon fill="#585858" stroke="#585858" stroke-width="2" points="87.68,-22.81 94,-18 86.06,-17.82 87.68,-22.81"/>
</g>
<!-- 21 -->
<g id="node10" class="node">
<title>21</title>
<path fill="#c1e6fb" stroke="#585858" d="M136,-97C136,-97 106,-97 106,-97 100,-97 94,-91 94,-85 94,-85 94,-73 94,-73 94,-67 100,-61 106,-61 106,-61 136,-61 136,-61 142,-61 148,-67 148,-73 148,-73 148,-85 148,-85 148,-91 142,-97 136,-97"/>
<text text-anchor="middle" x="121" y="-81.8" font-family="Helvetica,sans-Serif" font-size="9.00">21</text>
<text text-anchor="middle" x="121" y="-71.8" font-family="Helvetica,sans-Serif" font-size="9.00">NOR</text>
</g>
<!-- 0&#45;&gt;21 -->
<g id="edge2" class="edge">
<title>0:e&#45;&gt;21:w</title>
<path fill="none" stroke="#585858" stroke-width="2" d="M54,-31C54,-31 78.41,-60.3 89.1,-73.11"/>
<polygon fill="#585858" stroke="#585858" stroke-width="2" points="87.18,-74.92 94,-79 91.22,-71.56 87.18,-74.92"/>
</g>
<!-- 1 -->
<g id="node2" class="node">
<title>1</title>
<path fill="#f2fef2" stroke="#585858" d="M42,-209C42,-209 12,-209 12,-209 6,-209 0,-203 0,-197 0,-197 0,-185 0,-185 0,-179 6,-173 12,-173 12,-173 42,-173 42,-173 48,-173 54,-179 54,-185 54,-185 54,-197 54,-197 54,-203 48,-209 42,-209"/>
<text text-anchor="middle" x="27" y="-193.8" font-family="Helvetica,sans-Serif" font-size="9.00">1</text>
<text text-anchor="middle" x="27" y="-183.8" font-family="Helvetica,sans-Serif" font-size="9.00">INPUT</text>
</g>
<!-- 17 -->
<g id="node6" class="node">
<title>17</title>
<path fill="#c1e6fb" stroke="#585858" d="M136,-209C136,-209 106,-209 106,-209 100,-209 94,-203 94,-197 94,-197 94,-185 94,-185 94,-179 100,-173 106,-173 106,-173 136,-173 136,-173 142,-173 148,-179 148,-185 148,-185 148,-197 148,-197 148,-203 142,-209 136,-209"/>
<text text-anchor="middle" x="121" y="-193.8" font-family="Helvetica,sans-Serif" font-size="9.00">17</text>
<text text-anchor="middle" x="121" y="-183.8" font-family="Helvetica,sans-Serif" font-size="9.00">NOT</text>
</g>
<!-- 1&#45;&gt;17 -->
<g id="edge3" class="edge">
<title>1:e&#45;&gt;17:w</title>
<path fill="none" stroke="#585858" stroke-width="2" d="M54,-191C54,-191 74.66,-191 86.29,-191"/>
<polygon fill="#585858" stroke="#585858" stroke-width="2" points="86.5,-193.63 94,-191 86.5,-188.38 86.5,-193.63"/>
</g>
<!-- 2 -->
<g id="node3" class="node">
<title>2</title>
<path fill="#f2fef2" stroke="#585858" d="M42,-135C42,-135 12,-135 12,-135 6,-135 0,-129 0,-123 0,-123 0,-111 0,-111 0,-105 6,-99 12,-99 12,-99 42,-99 42,-99 48,-99 54,-105 54,-111 54,-111 54,-123 54,-123 54,-129 48,-135 42,-135"/>
<text text-anchor="middle" x="27" y="-119.8" font-family="Helvetica,sans-Serif" font-size="9.00">2</text>
<text text-anchor="middle" x="27" y="-109.8" font-family="Helvetica,sans-Serif" font-size="9.00">INPUT</text>
</g>
<!-- 18 -->
<g id="node7" class="node">
<title>18</title>
<path fill="#c1e6fb" stroke="#585858" d="M230,-153C230,-153 200,-153 200,-153 194,-153 188,-147 188,-141 188,-141 188,-129 188,-129 188,-123 194,-117 200,-117 200,-117 230,-117 230,-117 236,-117 242,-123 242,-129 242,-129 242,-141 242,-141 242,-147 236,-153 230,-153"/>
<text text-anchor="middle" x="215" y="-137.8" font-family="Helvetica,sans-Serif" font-size="9.00">18</text>
<text text-anchor="middle" x="215" y="-127.8" font-family="Helvetica,sans-Serif" font-size="9.00">NOR</text>
</g>
<!-- 2&#45;&gt;18 -->
<g id="edge4" class="edge">
<title>2:e&#45;&gt;18:w</title>
<path fill="none" stroke="#585858" stroke-width="2" d="M54,-117C54,-117 152.06,-130.17 180.41,-133.98"/>
<polygon fill="#585858" stroke="#585858" stroke-width="2" points="180.22,-136.6 188,-135 180.92,-131.4 180.22,-136.6"/>
</g>
<!-- 2&#45;&gt;21 -->
<g id="edge5" class="edge">
<title>2:e&#45;&gt;21:w</title>
<path fill="none" stroke="#585858" stroke-width="2" d="M54,-117C54,-117 77.45,-94.73 88.44,-84.28"/>
<polygon fill="#585858" stroke="#585858" stroke-width="2" points="90.37,-86.07 94,-79 86.75,-82.26 90.37,-86.07"/>
</g>
<!-- 11 -->
<g id="node4" class="node">
<title>11</title>
<path fill="#fcffe5" stroke="#585858" d="M512,-69C512,-69 482,-69 482,-69 476,-69 470,-63 470,-57 470,-57 470,-45 470,-45 470,-39 476,-33 482,-33 482,-33 512,-33 512,-33 518,-33 524,-39 524,-45 524,-45 524,-57 524,-57 524,-63 518,-69 512,-69"/>
<text text-anchor="middle" x="497" y="-53.8" font-family="Helvetica,sans-Serif" font-size="9.00">11</text>
<text text-anchor="middle" x="497" y="-43.8" font-family="Helvetica,sans-Serif" font-size="9.00">OUTPUT</text>
</g>
<!-- 12 -->
<g id="node5" class="node">
<title>12</title>
<path fill="#c1e6fb" stroke="#585858" d="M418,-69C418,-69 388,-69 388,-69 382,-69 376,-63 376,-57 376,-57 376,-45 376,-45 376,-39 382,-33 388,-33 388,-33 418,-33 418,-33 424,-33 430,-39 430,-45 430,-45 430,-57 430,-57 430,-63 424,-69 418,-69"/>
<text text-anchor="middle" x="403" y="-53.8" font-family="Helvetica,sans-Serif" font-size="9.00">12</text>
<text text-anchor="middle" x="403" y="-43.8" font-family="Helvetica,sans-Serif" font-size="9.00">NOR</text>
</g>
<!-- 12&#45;&gt;11 -->
<g id="edge6" class="edge">
<title>12:e&#45;&gt;11:w</title>
<path fill="none" stroke="#585858" stroke-width="2" d="M430,-51C430,-51 450.66,-51 462.29,-51"/>
<polygon fill="#585858" stroke="#585858" stroke-width="2" points="462.5,-53.63 470,-51 462.5,-48.38 462.5,-53.63"/>
</g>
<!-- 17&#45;&gt;18 -->
<g id="edge7" class="edge">
<title>17:e&#45;&gt;18:w</title>
<path fill="none" stroke="#585858" stroke-width="2" d="M148,-191C148,-191 172.9,-156.13 183.41,-141.42"/>
<polygon fill="#585858" stroke="#585858" stroke-width="2" points="185.78,-142.63 188,-135 181.5,-139.58 185.78,-142.63"/>
</g>
<!-- 20 -->
<g id="node9" class="node">
<title>20</title>
<path fill="#c1e6fb" stroke="#585858" d="M324,-41C324,-41 294,-41 294,-41 288,-41 282,-35 282,-29 282,-29 282,-17 282,-17 282,-11 288,-5 294,-5 294,-5 324,-5 324,-5 330,-5 336,-11 336,-17 336,-17 336,-29 336,-29 336,-35 330,-41 324,-41"/>
<text text-anchor="middle" x="309" y="-25.8" font-family="Helvetica,sans-Serif" font-size="9.00">20</text>
<text text-anchor="middle" x="309" y="-15.8" font-family="Helvetica,sans-Serif" font-size="9.00">NOR</text>
</g>
<!-- 18&#45;&gt;20 -->
<g id="edge8" class="edge">
<title>18:e&#45;&gt;20:w</title>
<path fill="none" stroke="#585858" stroke-width="2" d="M242,-135C242,-135 270.48,-55.27 279.38,-30.35"/>
<polygon fill="#585858" stroke="#585858" stroke-width="2" points="281.95,-30.95 282,-23 277.01,-29.18 281.95,-30.95"/>
</g>
<!-- 19&#45;&gt;20 -->
<g id="edge9" class="edge">
<title>19:e&#45;&gt;20:w</title>
<path fill="none" stroke="#585858" stroke-width="2" d="M148,-18C148,-18 246.06,-21.66 274.41,-22.72"/>
<polygon fill="#585858" stroke="#585858" stroke-width="2" points="274.41,-25.34 282,-23 274.6,-20.1 274.41,-25.34"/>
</g>
<!-- 20&#45;&gt;12 -->
<g id="edge10" class="edge">
<title>20:e&#45;&gt;12:w</title>
<path fill="none" stroke="#585858" stroke-width="2" d="M336,-23C336,-23 358.5,-38.75 369.75,-46.62"/>
<polygon fill="#585858" stroke="#585858" stroke-width="2" points="368.35,-48.85 376,-51 371.36,-44.55 368.35,-48.85"/>
</g>
<!-- 21&#45;&gt;12 -->
<g id="edge11" class="edge">
<title>21:e&#45;&gt;12:w</title>
<path fill="none" stroke="#585858" stroke-width="2" d="M148,-79C148,-79 328.85,-56.79 368.41,-51.93"/>
<polygon fill="#585858" stroke="#585858" stroke-width="2" points="368.88,-54.52 376,-51 368.24,-49.31 368.88,-54.52"/>
</g>
</g>
</svg>
