<?xml version="1.0" encoding="UTF-8" standalone="no"?>
<!DOCTYPE svg PUBLIC "-//W3C//DTD SVG 1.1//EN"
 "http://www.w3.org/Graphics/SVG/1.1/DTD/svg11.dtd">
<!-- Generated by graphviz version 2.43.0 (0)
 -->
<!-- Title: 0x52_optimal_topology_6 Pages: 1 -->
<svg width="540pt" height="218pt"
 viewBox="3.60 3.60 536.80 214.80" xmlns="http://www.w3.org/2000/svg" xmlns:xlink="http://www.w3.org/1999/xlink">
<g id="graph0" class="graph" transform="scale(1 1) rotate(0) translate(7.2 211.2)">
<title>0x52_optimal_topology_6</title>
<polygon fill="white" stroke="transparent" points="-3.6,3.6 -3.6,-207.6 529.6,-207.6 529.6,3.6 -3.6,3.6"/>
<!-- 0 -->
<g id="node1" class="node">
<title>0</title>
<path fill="#f2fef2" stroke="#585858" d="M42,-192C42,-192 12,-192 12,-192 6,-192 0,-186 0,-180 0,-180 0,-168 0,-168 0,-162 6,-156 12,-156 12,-156 42,-156 42,-156 48,-156 54,-162 54,-168 54,-168 54,-180 54,-180 54,-186 48,-192 42,-192"/>
<text text-anchor="middle" x="27" y="-176.8" font-family="Helvetica,sans-Serif" font-size="9.00">0</text>
<text text-anchor="middle" x="27" y="-166.8" font-family="Helvetica,sans-Serif" font-size="9.00">INPUT</text>
</g>
<!-- 30 -->
<g id="node5" class="node">
<title>30</title>
<path fill="#c1e6fb" stroke="#585858" d="M136,-148C136,-148 106,-148 106,-148 100,-148 94,-142 94,-136 94,-136 94,-124 94,-124 94,-118 100,-112 106,-112 106,-112 136,-112 136,-112 142,-112 148,-118 148,-124 148,-124 148,-136 148,-136 148,-142 142,-148 136,-148"/>
<text text-anchor="middle" x="121" y="-132.8" font-family="Helvetica,sans-Serif" font-size="9.00">30</text>
<text text-anchor="middle" x="121" y="-122.8" font-family="Helvetica,sans-Serif" font-size="9.00">NOR</text>
</g>
<!-- 0&#45;&gt;30 -->
<g id="edge1" class="edge">
<title>0:e&#45;&gt;30:w</title>
<path fill="none" stroke="#585858" stroke-width="2" d="M54,-174C54,-174 77.93,-147.68 88.77,-135.75"/>
<polygon fill="#585858" stroke="#585858" stroke-width="2" points="90.9,-137.32 94,-130 87.01,-133.78 90.9,-137.32"/>
</g>
<!-- 31 -->
<g id="node6" class="node">
<title>31</title>
<path fill="#c1e6fb" stroke="#585858" d="M230,-204C230,-204 200,-204 200,-204 194,-204 188,-198 188,-192 188,-192 188,-180 188,-180 188,-174 194,-168 200,-168 200,-168 230,-168 230,-168 236,-168 242,-174 242,-180 242,-180 242,-192 242,-192 242,-198 236,-204 230,-204"/>
<text text-anchor="middle" x="215" y="-188.8" font-family="Helvetica,sans-Serif" font-size="9.00">31</text>
<text text-anchor="middle" x="215" y="-178.8" font-family="Helvetica,sans-Serif" font-size="9.00">NOR</text>
</g>
<!-- 0&#45;&gt;31 -->
<g id="edge2" class="edge">
<title>0:e&#45;&gt;31:w</title>
<path fill="none" stroke="#585858" stroke-width="2" d="M54,-174C54,-174 152.06,-182.78 180.41,-185.32"/>
<polygon fill="#585858" stroke="#585858" stroke-width="2" points="180.3,-187.95 188,-186 180.76,-182.72 180.3,-187.95"/>
</g>
<!-- 1 -->
<g id="node2" class="node">
<title>1</title>
<path fill="#f2fef2" stroke="#585858" d="M42,-36C42,-36 12,-36 12,-36 6,-36 0,-30 0,-24 0,-24 0,-12 0,-12 0,-6 6,0 12,0 12,0 42,0 42,0 48,0 54,-6 54,-12 54,-12 54,-24 54,-24 54,-30 48,-36 42,-36"/>
<text text-anchor="middle" x="27" y="-20.8" font-family="Helvetica,sans-Serif" font-size="9.00">1</text>
<text text-anchor="middle" x="27" y="-10.8" font-family="Helvetica,sans-Serif" font-size="9.00">INPUT</text>
</g>
<!-- 32 -->
<g id="node7" class="node">
<title>32</title>
<path fill="#c1e6fb" stroke="#585858" d="M136,-36C136,-36 106,-36 106,-36 100,-36 94,-30 94,-24 94,-24 94,-12 94,-12 94,-6 100,0 106,0 106,0 136,0 136,0 142,0 148,-6 148,-12 148,-12 148,-24 148,-24 148,-30 142,-36 136,-36"/>
<text text-anchor="middle" x="121" y="-20.8" font-family="Helvetica,sans-Serif" font-size="9.00">32</text>
<text text-anchor="middle" x="121" y="-10.8" font-family="Helvetica,sans-Serif" font-size="9.00">NOT</text>
</g>
<!-- 1&#45;&gt;32 -->
<g id="edge3" class="edge">
<title>1:e&#45;&gt;32:w</title>
<path fill="none" stroke="#585858" stroke-width="2" d="M54,-18C54,-18 74.66,-18 86.29,-18"/>
<polygon fill="#585858" stroke="#585858" stroke-width="2" points="86.5,-20.63 94,-18 86.5,-15.38 86.5,-20.63"/>
</g>
<!-- 2 -->
<g id="node3" class="node">
<title>2</title>
<path fill="#f2fef2" stroke="#585858" d="M42,-120C42,-120 12,-120 12,-120 6,-120 0,-114 0,-108 0,-108 0,-96 0,-96 0,-90 6,-84 12,-84 12,-84 42,-84 42,-84 48,-84 54,-90 54,-96 54,-96 54,-108 54,-108 54,-114 48,-120 42,-120"/>
<text text-anchor="middle" x="27" y="-104.8" font-family="Helvetica,sans-Serif" font-size="9.00">2</text>
<text text-anchor="middle" x="27" y="-94.8" font-family="Helvetica,sans-Serif" font-size="9.00">INPUT</text>
</g>
<!-- 2&#45;&gt;30 -->
<g id="edge4" class="edge">
<title>2:e&#45;&gt;30:w</title>
<path fill="none" stroke="#585858" stroke-width="2" d="M54,-102C54,-102 76.5,-117.75 87.75,-125.62"/>
<polygon fill="#585858" stroke="#585858" stroke-width="2" points="86.35,-127.85 94,-130 89.36,-123.55 86.35,-127.85"/>
</g>
<!-- 33 -->
<g id="node8" class="node">
<title>33</title>
<path fill="#c1e6fb" stroke="#585858" d="M230,-92C230,-92 200,-92 200,-92 194,-92 188,-86 188,-80 188,-80 188,-68 188,-68 188,-62 194,-56 200,-56 200,-56 230,-56 230,-56 236,-56 242,-62 242,-68 242,-68 242,-80 242,-80 242,-86 236,-92 230,-92"/>
<text text-anchor="middle" x="215" y="-76.8" font-family="Helvetica,sans-Serif" font-size="9.00">33</text>
<text text-anchor="middle" x="215" y="-66.8" font-family="Helvetica,sans-Serif" font-size="9.00">NOR</text>
</g>
<!-- 2&#45;&gt;33 -->
<g id="edge5" class="edge">
<title>2:e&#45;&gt;33:w</title>
<path fill="none" stroke="#585858" stroke-width="2" d="M54,-102C54,-102 152.06,-81.51 180.41,-75.59"/>
<polygon fill="#585858" stroke="#585858" stroke-width="2" points="181.2,-78.1 188,-74 180.12,-72.96 181.2,-78.1"/>
</g>
<!-- 11 -->
<g id="node4" class="node">
<title>11</title>
<path fill="#fcffe5" stroke="#585858" d="M514,-176C514,-176 482,-176 482,-176 476,-176 470,-170 470,-164 470,-164 470,-152 470,-152 470,-146 476,-140 482,-140 482,-140 514,-140 514,-140 520,-140 526,-146 526,-152 526,-152 526,-164 526,-164 526,-170 520,-176 514,-176"/>
<text text-anchor="middle" x="498" y="-160.8" font-family="Helvetica,sans-Serif" font-size="9.00">11</text>
<text text-anchor="middle" x="498" y="-150.8" font-family="Helvetica,sans-Serif" font-size="9.00">OR/OUTPUT</text>
</g>
<!-- 30&#45;&gt;31 -->
<g id="edge6" class="edge">
<title>30:e&#45;&gt;31:w</title>
<path fill="none" stroke="#585858" stroke-width="2" d="M148,-130C148,-130 172.9,-164.87 183.41,-179.58"/>
<polygon fill="#585858" stroke="#585858" stroke-width="2" points="181.5,-181.42 188,-186 185.78,-178.37 181.5,-181.42"/>
</g>
<!-- 35 -->
<g id="node10" class="node">
<title>35</title>
<path fill="#c1e6fb" stroke="#585858" d="M418,-148C418,-148 388,-148 388,-148 382,-148 376,-142 376,-136 376,-136 376,-124 376,-124 376,-118 382,-112 388,-112 388,-112 418,-112 418,-112 424,-112 430,-118 430,-124 430,-124 430,-136 430,-136 430,-142 424,-148 418,-148"/>
<text text-anchor="middle" x="403" y="-132.8" font-family="Helvetica,sans-Serif" font-size="9.00">35</text>
<text text-anchor="middle" x="403" y="-122.8" font-family="Helvetica,sans-Serif" font-size="9.00">NOR</text>
</g>
<!-- 30&#45;&gt;35 -->
<g id="edge7" class="edge">
<title>30:e&#45;&gt;35:w</title>
<path fill="none" stroke="#585858" stroke-width="2" d="M148,-130C148,-130 328.85,-130 368.41,-130"/>
<polygon fill="#585858" stroke="#585858" stroke-width="2" points="368.5,-132.63 376,-130 368.5,-127.38 368.5,-132.63"/>
</g>
<!-- 31&#45;&gt;11 -->
<g id="edge8" class="edge">
<title>31:e&#45;&gt;11:w</title>
<path fill="none" stroke="#585858" stroke-width="2" d="M242,-186C242,-186 422.85,-163.79 462.41,-158.93"/>
<polygon fill="#585858" stroke="#585858" stroke-width="2" points="462.88,-161.52 470,-158 462.24,-156.31 462.88,-161.52"/>
</g>
<!-- 32&#45;&gt;33 -->
<g id="edge9" class="edge">
<title>32:e&#45;&gt;33:w</title>
<path fill="none" stroke="#585858" stroke-width="2" d="M148,-18C148,-18 172.9,-52.87 183.41,-67.58"/>
<polygon fill="#585858" stroke="#585858" stroke-width="2" points="181.5,-69.42 188,-74 185.78,-66.37 181.5,-69.42"/>
</g>
<!-- 34 -->
<g id="node9" class="node">
<title>34</title>
<path fill="#c1e6fb" stroke="#585858" d="M324,-92C324,-92 294,-92 294,-92 288,-92 282,-86 282,-80 282,-80 282,-68 282,-68 282,-62 288,-56 294,-56 294,-56 324,-56 324,-56 330,-56 336,-62 336,-68 336,-68 336,-80 336,-80 336,-86 330,-92 324,-92"/>
<text text-anchor="middle" x="309" y="-76.8" font-family="Helvetica,sans-Serif" font-size="9.00">34</text>
<text text-anchor="middle" x="309" y="-66.8" font-family="Helvetica,sans-Serif" font-size="9.00">NOT</text>
</g>
<!-- 33&#45;&gt;34 -->
<g id="edge10" class="edge">
<title>33:e&#45;&gt;34:w</title>
<path fill="none" stroke="#585858" stroke-width="2" d="M242,-74C242,-74 262.66,-74 274.29,-74"/>
<polygon fill="#585858" stroke="#585858" stroke-width="2" points="274.5,-76.63 282,-74 274.5,-71.38 274.5,-76.63"/>
</g>
<!-- 34&#45;&gt;35 -->
<g id="edge11" class="edge">
<title>34:e&#45;&gt;35:w</title>
<path fill="none" stroke="#585858" stroke-width="2" d="M336,-74C336,-74 360.9,-108.87 371.41,-123.58"/>
<polygon fill="#585858" stroke="#585858" stroke-width="2" points="369.5,-125.42 376,-130 373.78,-122.37 369.5,-125.42"/>
</g>
<!-- 35&#45;&gt;11 -->
<g id="edge12" class="edge">
<title>35:e&#45;&gt;11:w</title>
<path fill="none" stroke="#585858" stroke-width="2" d="M430,-130C430,-130 452.5,-145.75 463.75,-153.62"/>
<polygon fill="#585858" stroke="#585858" stroke-width="2" points="462.35,-155.85 470,-158 465.36,-151.55 462.35,-155.85"/>
</g>
</g>
</svg>
