<?xml version="1.0" encoding="UTF-8" standalone="no"?>
<!DOCTYPE svg PUBLIC "-//W3C//DTD SVG 1.1//EN"
 "http://www.w3.org/Graphics/SVG/1.1/DTD/svg11.dtd">
<!-- Generated by graphviz version 2.43.0 (0)
 -->
<!-- Title: 0x52_optimal_topology_0 Pages: 1 -->
<svg width="538pt" height="202pt"
 viewBox="3.60 3.60 534.80 198.80" xmlns="http://www.w3.org/2000/svg" xmlns:xlink="http://www.w3.org/1999/xlink">
<g id="graph0" class="graph" transform="scale(1 1) rotate(0) translate(7.2 195.2)">
<title>0x52_optimal_topology_0</title>
<polygon fill="white" stroke="transparent" points="-3.6,3.6 -3.6,-191.6 527.6,-191.6 527.6,3.6 -3.6,3.6"/>
<!-- 0 -->
<g id="node1" class="node">
<title>0</title>
<path fill="#f2fef2" stroke="#585858" d="M42,-117C42,-117 12,-117 12,-117 6,-117 0,-111 0,-105 0,-105 0,-93 0,-93 0,-87 6,-81 12,-81 12,-81 42,-81 42,-81 48,-81 54,-87 54,-93 54,-93 54,-105 54,-105 54,-111 48,-117 42,-117"/>
<text text-anchor="middle" x="27" y="-101.8" font-family="Helvetica,sans-Serif" font-size="9.00">0</text>
<text text-anchor="middle" x="27" y="-91.8" font-family="Helvetica,sans-Serif" font-size="9.00">INPUT</text>
</g>
<!-- 13 -->
<g id="node6" class="node">
<title>13</title>
<path fill="#c1e6fb" stroke="#585858" d="M136,-79C136,-79 106,-79 106,-79 100,-79 94,-73 94,-67 94,-67 94,-55 94,-55 94,-49 100,-43 106,-43 106,-43 136,-43 136,-43 142,-43 148,-49 148,-55 148,-55 148,-67 148,-67 148,-73 142,-79 136,-79"/>
<text text-anchor="middle" x="121" y="-63.8" font-family="Helvetica,sans-Serif" font-size="9.00">13</text>
<text text-anchor="middle" x="121" y="-53.8" font-family="Helvetica,sans-Serif" font-size="9.00">NOR</text>
</g>
<!-- 0&#45;&gt;13 -->
<g id="edge1" class="edge">
<title>0:e&#45;&gt;13:w</title>
<path fill="none" stroke="#585858" stroke-width="2" d="M54,-99C54,-99 77.45,-76.73 88.44,-66.28"/>
<polygon fill="#585858" stroke="#585858" stroke-width="2" points="90.37,-68.07 94,-61 86.75,-64.26 90.37,-68.07"/>
</g>
<!-- 15 -->
<g id="node8" class="node">
<title>15</title>
<path fill="#c1e6fb" stroke="#585858" d="M230,-132C230,-132 200,-132 200,-132 194,-132 188,-126 188,-120 188,-120 188,-108 188,-108 188,-102 194,-96 200,-96 200,-96 230,-96 230,-96 236,-96 242,-102 242,-108 242,-108 242,-120 242,-120 242,-126 236,-132 230,-132"/>
<text text-anchor="middle" x="215" y="-116.8" font-family="Helvetica,sans-Serif" font-size="9.00">15</text>
<text text-anchor="middle" x="215" y="-106.8" font-family="Helvetica,sans-Serif" font-size="9.00">NOR</text>
</g>
<!-- 0&#45;&gt;15 -->
<g id="edge2" class="edge">
<title>0:e&#45;&gt;15:w</title>
<path fill="none" stroke="#585858" stroke-width="2" d="M54,-99C54,-99 152.06,-109.98 180.41,-113.15"/>
<polygon fill="#585858" stroke="#585858" stroke-width="2" points="180.25,-115.77 188,-114 180.84,-110.56 180.25,-115.77"/>
</g>
<!-- 1 -->
<g id="node2" class="node">
<title>1</title>
<path fill="#f2fef2" stroke="#585858" d="M42,-188C42,-188 12,-188 12,-188 6,-188 0,-182 0,-176 0,-176 0,-164 0,-164 0,-158 6,-152 12,-152 12,-152 42,-152 42,-152 48,-152 54,-158 54,-164 54,-164 54,-176 54,-176 54,-182 48,-188 42,-188"/>
<text text-anchor="middle" x="27" y="-172.8" font-family="Helvetica,sans-Serif" font-size="9.00">1</text>
<text text-anchor="middle" x="27" y="-162.8" font-family="Helvetica,sans-Serif" font-size="9.00">INPUT</text>
</g>
<!-- 17 -->
<g id="node10" class="node">
<title>17</title>
<path fill="#c1e6fb" stroke="#585858" d="M324,-160C324,-160 294,-160 294,-160 288,-160 282,-154 282,-148 282,-148 282,-136 282,-136 282,-130 288,-124 294,-124 294,-124 324,-124 324,-124 330,-124 336,-130 336,-136 336,-136 336,-148 336,-148 336,-154 330,-160 324,-160"/>
<text text-anchor="middle" x="309" y="-144.8" font-family="Helvetica,sans-Serif" font-size="9.00">17</text>
<text text-anchor="middle" x="309" y="-134.8" font-family="Helvetica,sans-Serif" font-size="9.00">NOR</text>
</g>
<!-- 1&#45;&gt;17 -->
<g id="edge3" class="edge">
<title>1:e&#45;&gt;17:w</title>
<path fill="none" stroke="#585858" stroke-width="2" d="M54,-170C54,-170 234.85,-147.79 274.41,-142.93"/>
<polygon fill="#585858" stroke="#585858" stroke-width="2" points="274.88,-145.52 282,-142 274.24,-140.31 274.88,-145.52"/>
</g>
<!-- 2 -->
<g id="node3" class="node">
<title>2</title>
<path fill="#f2fef2" stroke="#585858" d="M42,-36C42,-36 12,-36 12,-36 6,-36 0,-30 0,-24 0,-24 0,-12 0,-12 0,-6 6,0 12,0 12,0 42,0 42,0 48,0 54,-6 54,-12 54,-12 54,-24 54,-24 54,-30 48,-36 42,-36"/>
<text text-anchor="middle" x="27" y="-20.8" font-family="Helvetica,sans-Serif" font-size="9.00">2</text>
<text text-anchor="middle" x="27" y="-10.8" font-family="Helvetica,sans-Serif" font-size="9.00">INPUT</text>
</g>
<!-- 2&#45;&gt;13 -->
<g id="edge4" class="edge">
<title>2:e&#45;&gt;13:w</title>
<path fill="none" stroke="#585858" stroke-width="2" d="M54,-18C54,-18 77.93,-43.72 88.77,-55.38"/>
<polygon fill="#585858" stroke="#585858" stroke-width="2" points="86.97,-57.3 94,-61 90.81,-53.72 86.97,-57.3"/>
</g>
<!-- 14 -->
<g id="node7" class="node">
<title>14</title>
<path fill="#c1e6fb" stroke="#585858" d="M230,-71C230,-71 200,-71 200,-71 194,-71 188,-65 188,-59 188,-59 188,-47 188,-47 188,-41 194,-35 200,-35 200,-35 230,-35 230,-35 236,-35 242,-41 242,-47 242,-47 242,-59 242,-59 242,-65 236,-71 230,-71"/>
<text text-anchor="middle" x="215" y="-55.8" font-family="Helvetica,sans-Serif" font-size="9.00">14</text>
<text text-anchor="middle" x="215" y="-45.8" font-family="Helvetica,sans-Serif" font-size="9.00">NOR</text>
</g>
<!-- 2&#45;&gt;14 -->
<g id="edge5" class="edge">
<title>2:e&#45;&gt;14:w</title>
<path fill="none" stroke="#585858" stroke-width="2" d="M54,-18C54,-18 148,-31 148,-31 148,-31 170.03,-43.12 181.39,-49.37"/>
<polygon fill="#585858" stroke="#585858" stroke-width="2" points="180.16,-51.69 188,-53 182.69,-47.09 180.16,-51.69"/>
</g>
<!-- 11 -->
<g id="node4" class="node">
<title>11</title>
<path fill="#fcffe5" stroke="#585858" d="M512,-129C512,-129 482,-129 482,-129 476,-129 470,-123 470,-117 470,-117 470,-105 470,-105 470,-99 476,-93 482,-93 482,-93 512,-93 512,-93 518,-93 524,-99 524,-105 524,-105 524,-117 524,-117 524,-123 518,-129 512,-129"/>
<text text-anchor="middle" x="497" y="-113.8" font-family="Helvetica,sans-Serif" font-size="9.00">11</text>
<text text-anchor="middle" x="497" y="-103.8" font-family="Helvetica,sans-Serif" font-size="9.00">OUTPUT</text>
</g>
<!-- 12 -->
<g id="node5" class="node">
<title>12</title>
<path fill="#c1e6fb" stroke="#585858" d="M418,-129C418,-129 388,-129 388,-129 382,-129 376,-123 376,-117 376,-117 376,-105 376,-105 376,-99 382,-93 388,-93 388,-93 418,-93 418,-93 424,-93 430,-99 430,-105 430,-105 430,-117 430,-117 430,-123 424,-129 418,-129"/>
<text text-anchor="middle" x="403" y="-113.8" font-family="Helvetica,sans-Serif" font-size="9.00">12</text>
<text text-anchor="middle" x="403" y="-103.8" font-family="Helvetica,sans-Serif" font-size="9.00">NOR</text>
</g>
<!-- 12&#45;&gt;11 -->
<g id="edge6" class="edge">
<title>12:e&#45;&gt;11:w</title>
<path fill="none" stroke="#585858" stroke-width="2" d="M430,-111C430,-111 450.66,-111 462.29,-111"/>
<polygon fill="#585858" stroke="#585858" stroke-width="2" points="462.5,-113.63 470,-111 462.5,-108.38 462.5,-113.63"/>
</g>
<!-- 13&#45;&gt;14 -->
<g id="edge7" class="edge">
<title>13:e&#45;&gt;14:w</title>
<path fill="none" stroke="#585858" stroke-width="2" d="M148,-61C148,-61 168.66,-56.87 180.29,-54.54"/>
<polygon fill="#585858" stroke="#585858" stroke-width="2" points="181.16,-57.04 188,-53 180.13,-51.9 181.16,-57.04"/>
</g>
<!-- 13&#45;&gt;15 -->
<g id="edge8" class="edge">
<title>13:e&#45;&gt;15:w</title>
<path fill="none" stroke="#585858" stroke-width="2" d="M148,-61C148,-61 172.9,-94 183.41,-107.92"/>
<polygon fill="#585858" stroke="#585858" stroke-width="2" points="181.39,-109.59 188,-114 185.58,-106.43 181.39,-109.59"/>
</g>
<!-- 16 -->
<g id="node9" class="node">
<title>16</title>
<path fill="#c1e6fb" stroke="#585858" d="M324,-99C324,-99 294,-99 294,-99 288,-99 282,-93 282,-87 282,-87 282,-75 282,-75 282,-69 288,-63 294,-63 294,-63 324,-63 324,-63 330,-63 336,-69 336,-75 336,-75 336,-87 336,-87 336,-93 330,-99 324,-99"/>
<text text-anchor="middle" x="309" y="-83.8" font-family="Helvetica,sans-Serif" font-size="9.00">16</text>
<text text-anchor="middle" x="309" y="-73.8" font-family="Helvetica,sans-Serif" font-size="9.00">NOR</text>
</g>
<!-- 14&#45;&gt;16 -->
<g id="edge9" class="edge">
<title>14:e&#45;&gt;16:w</title>
<path fill="none" stroke="#585858" stroke-width="2" d="M242,-53C242,-53 264.5,-68.75 275.75,-76.62"/>
<polygon fill="#585858" stroke="#585858" stroke-width="2" points="274.35,-78.85 282,-81 277.36,-74.55 274.35,-78.85"/>
</g>
<!-- 15&#45;&gt;16 -->
<g id="edge10" class="edge">
<title>15:e&#45;&gt;16:w</title>
<path fill="none" stroke="#585858" stroke-width="2" d="M242,-114C242,-114 264.97,-95.05 276.1,-85.87"/>
<polygon fill="#585858" stroke="#585858" stroke-width="2" points="277.89,-87.8 282,-81 274.54,-83.75 277.89,-87.8"/>
</g>
<!-- 15&#45;&gt;17 -->
<g id="edge11" class="edge">
<title>15:e&#45;&gt;17:w</title>
<path fill="none" stroke="#585858" stroke-width="2" d="M242,-114C242,-114 264.5,-129.75 275.75,-137.62"/>
<polygon fill="#585858" stroke="#585858" stroke-width="2" points="274.35,-139.85 282,-142 277.36,-135.55 274.35,-139.85"/>
</g>
<!-- 16&#45;&gt;12 -->
<g id="edge12" class="edge">
<title>16:e&#45;&gt;12:w</title>
<path fill="none" stroke="#585858" stroke-width="2" d="M336,-81C336,-81 358.5,-97.88 369.75,-106.31"/>
<polygon fill="#585858" stroke="#585858" stroke-width="2" points="368.42,-108.6 376,-111 371.57,-104.4 368.42,-108.6"/>
</g>
<!-- 17&#45;&gt;12 -->
<g id="edge13" class="edge">
<title>17:e&#45;&gt;12:w</title>
<path fill="none" stroke="#585858" stroke-width="2" d="M336,-142C336,-142 358.5,-124.56 369.75,-115.84"/>
<polygon fill="#585858" stroke="#585858" stroke-width="2" points="371.68,-117.67 376,-111 368.46,-113.52 371.68,-117.67"/>
</g>
</g>
</svg>
