<?xml version="1.0" encoding="utf-8" standalone="no"?>
<!DOCTYPE svg PUBLIC "-//W3C//DTD SVG 1.1//EN"
  "http://www.w3.org/Graphics/SVG/1.1/DTD/svg11.dtd">
<svg xmlns:xlink="http://www.w3.org/1999/xlink" width="130pt" height="110pt" viewBox="0 0 130 110" xmlns="http://www.w3.org/2000/svg" version="1.1">
 <metadata>
  <rdf:RDF xmlns:dc="http://purl.org/dc/elements/1.1/" xmlns:cc="http://creativecommons.org/ns#" xmlns:rdf="http://www.w3.org/1999/02/22-rdf-syntax-ns#">
   <cc:Work>
    <dc:type rdf:resource="http://purl.org/dc/dcmitype/StillImage"/>
    <dc:date>2025-10-08T20:44:45.675909</dc:date>
    <dc:format>image/svg+xml</dc:format>
    <dc:creator>
     <cc:Agent>
      <dc:title>Matplotlib v3.7.1, https://matplotlib.org/</dc:title>
     </cc:Agent>
    </dc:creator>
   </cc:Work>
  </rdf:RDF>
 </metadata>
 <defs>
  <style type="text/css">*{stroke-linejoin: round; stroke-linecap: butt}</style>
 </defs>
 <g id="figure_1">
  <g id="patch_1">
   <path d="M 0 110 
L 130 110 
L 130 0 
L 0 0 
z
" style="fill: #ffffff"/>
  </g>
  <g id="axes_1">
   <g id="patch_2">
    <path d="M 29.9 81.54 
L 123.52 81.54 
L 123.52 6.48 
L 29.9 6.48 
z
" style="fill: #ffffff"/>
   </g>
   <g id="matplotlib.axis_1">
    <g id="xtick_1">
     <g id="line2d_1">
      <defs>
       <path id="ma5872ea54c" d="M 0 0 
L 0 2 
" style="stroke: #000000; stroke-width: 0.5"/>
      </defs>
      <g>
       <use xlink:href="#ma5872ea54c" x="30.28686" y="81.54" style="stroke: #000000; stroke-width: 0.5"/>
      </g>
     </g>
     <g id="text_1">
      <text style="font: 6px 'DejaVu Sans', sans-serif; text-anchor: middle" x="30.28686" y="91.599062" transform="rotate(-0 30.28686 91.599062)">0k</text>
     </g>
    </g>
    <g id="text_2">
     <text style="font: 6px 'DejaVu Sans', sans-serif; text-anchor: middle" x="76.71" y="101.405937" transform="rotate(-0 76.71 101.405937)">Training Steps</text>
    </g>
   </g>
   <g id="matplotlib.axis_2">
    <g id="ytick_1">
     <g id="line2d_2">
      <defs>
       <path id="m365e564820" d="M 0 0 
L -2 0 
" style="stroke: #000000; stroke-width: 0.5"/>
      </defs>
      <g>
       <use xlink:href="#m365e564820" x="29.9" y="68.480756" style="stroke: #000000; stroke-width: 0.5"/>
      </g>
     </g>
     <g id="text_3">
      <text style="font: 6px 'DejaVu Sans', sans-serif; text-anchor: end" x="24.4" y="70.760287" transform="rotate(-0 24.4 70.760287)">10.0</text>
     </g>
    </g>
    <g id="ytick_2">
     <g id="line2d_3">
      <g>
       <use xlink:href="#m365e564820" x="29.9" y="53.833521" style="stroke: #000000; stroke-width: 0.5"/>
      </g>
     </g>
     <g id="text_4">
      <text style="font: 6px 'DejaVu Sans', sans-serif; text-anchor: end" x="24.4" y="56.113052" transform="rotate(-0 24.4 56.113052)">12.5</text>
     </g>
    </g>
    <g id="ytick_3">
     <g id="line2d_4">
      <g>
       <use xlink:href="#m365e564820" x="29.9" y="39.186287" style="stroke: #000000; stroke-width: 0.5"/>
      </g>
     </g>
     <g id="text_5">
      <text style="font: 6px 'DejaVu Sans', sans-serif; text-anchor: end" x="24.4" y="41.465818" transform="rotate(-0 24.4 41.465818)">15.0</text>
     </g>
    </g>
    <g id="ytick_4">
     <g id="line2d_5">
      <g>
       <use xlink:href="#m365e564820" x="29.9" y="24.539053" style="stroke: #000000; stroke-width: 0.5"/>
      </g>
     </g>
     <g id="text_6">
      <text style="font: 6px 'DejaVu Sans', sans-serif; text-anchor: end" x="24.4" y="26.818584" transform="rotate(-0 24.4 26.818584)">17.5</text>
     </g>
    </g>
    <g id="ytick_5">
     <g id="line2d_6">
      <g>
       <use xlink:href="#m365e564820" x="29.9" y="9.891818" style="stroke: #000000; stroke-width: 0.5"/>
      </g>
     </g>
     <g id="text_7">
      <text style="font: 6px 'DejaVu Sans', sans-serif; text-anchor: end" x="24.4" y="12.171349" transform="rotate(-0 24.4 12.171349)">20.0</text>
     </g>
    </g>
    <g id="text_8">
     <text style="font: 6px 'DejaVu Sans', sans-serif; text-anchor: middle" x="5.792813" y="44.01" transform="rotate(-90 5.792813 44.01)">Mean Episode Reward</text>
    </g>
   </g>
   <g id="line2d_7">
    <path d="M 34.155455 78.083365 
L 38.02405 77.451885 
L 41.892645 76.856232 
L 45.76124 78.128182 
L 49.629835 71.50871 
L 53.49843 71.978985 
L 57.367025 69.499352 
L 61.23562 60.431303 
L 65.104215 60.812453 
L 68.97281 48.645633 
L 72.841405 49.836039 
L 76.71 33.80077 
L 80.578595 29.481354 
L 84.44719 20.579979 
L 88.315785 16.316142 
L 92.18438 13.481548 
L 96.052975 13.291853 
L 99.92157 11.147291 
L 103.790165 13.328485 
L 107.65876 11.143659 
L 111.527355 9.891818 
L 115.39595 10.226609 
L 119.264545 9.891818 
" clip-path="url(#pe260715f30)" style="fill: none; stroke: #417ff1; stroke-width: 0.5; stroke-linecap: square"/>
   </g>
   <g id="patch_3">
    <path d="M 29.9 81.54 
L 29.9 6.48 
" style="fill: none; stroke: #000000; stroke-width: 0.5; stroke-linejoin: miter; stroke-linecap: square"/>
   </g>
   <g id="patch_4">
    <path d="M 123.52 81.54 
L 123.52 6.48 
" style="fill: none; stroke: #000000; stroke-width: 0.5; stroke-linejoin: miter; stroke-linecap: square"/>
   </g>
   <g id="patch_5">
    <path d="M 29.9 81.54 
L 123.52 81.54 
" style="fill: none; stroke: #000000; stroke-width: 0.5; stroke-linejoin: miter; stroke-linecap: square"/>
   </g>
   <g id="patch_6">
    <path d="M 29.9 6.48 
L 123.52 6.48 
" style="fill: none; stroke: #000000; stroke-width: 0.5; stroke-linejoin: miter; stroke-linecap: square"/>
   </g>
   <g id="legend_1">
    <g id="line2d_8">
     <path d="M 53.502812 43.565625 
L 59.502812 43.565625 
L 65.502812 43.565625 
" style="fill: none; stroke: #417ff1; stroke-width: 0.5; stroke-linecap: square"/>
    </g>
    <g id="text_9">
     <text style="font: 6px 'DejaVu Sans', sans-serif; text-anchor: start" x="70.302812" y="45.665625" transform="rotate(-0 70.302812 45.665625)">Episode Reward</text>
    </g>
   </g>
  </g>
 </g>
 <defs>
  <clipPath id="pe260715f30">
   <rect x="29.9" y="6.48" width="93.62" height="75.06"/>
  </clipPath>
 </defs>
</svg>
