<?xml version="1.0" encoding="utf-8" standalone="no"?>
<!DOCTYPE svg PUBLIC "-//W3C//DTD SVG 1.1//EN"
  "http://www.w3.org/Graphics/SVG/1.1/DTD/svg11.dtd">
<svg xmlns:xlink="http://www.w3.org/1999/xlink" width="130pt" height="110pt" viewBox="0 0 130 110" xmlns="http://www.w3.org/2000/svg" version="1.1">
 <metadata>
  <rdf:RDF xmlns:dc="http://purl.org/dc/elements/1.1/" xmlns:cc="http://creativecommons.org/ns#" xmlns:rdf="http://www.w3.org/1999/02/22-rdf-syntax-ns#">
   <cc:Work>
    <dc:type rdf:resource="http://purl.org/dc/dcmitype/StillImage"/>
    <dc:date>2025-10-11T22:55:33.902946</dc:date>
    <dc:format>image/svg+xml</dc:format>
    <dc:creator>
     <cc:Agent>
      <dc:title>Matplotlib v3.7.1, https://matplotlib.org/</dc:title>
     </cc:Agent>
    </dc:creator>
   </cc:Work>
  </rdf:RDF>
 </metadata>
 <defs>
  <style type="text/css">*{stroke-linejoin: round; stroke-linecap: butt}</style>
 </defs>
 <g id="figure_1">
  <g id="patch_1">
   <path d="M 0 110 
L 130 110 
L 130 0 
L 0 0 
z
" style="fill: #ffffff"/>
  </g>
  <g id="axes_1">
   <g id="patch_2">
    <path d="M 29.9 81.54 
L 123.52 81.54 
L 123.52 6.48 
L 29.9 6.48 
z
" style="fill: #ffffff"/>
   </g>
   <g id="matplotlib.axis_1">
    <g id="xtick_1">
     <g id="line2d_1">
      <defs>
       <path id="m7558618cd1" d="M 0 0 
L 0 2 
" style="stroke: #000000; stroke-width: 0.5"/>
      </defs>
      <g>
       <use xlink:href="#m7558618cd1" x="32.66706" y="81.54" style="stroke: #000000; stroke-width: 0.5"/>
      </g>
     </g>
     <g id="text_1">
      <text style="font: 6px 'DejaVu Sans', sans-serif; text-anchor: middle" x="32.66706" y="91.599063" transform="rotate(-0 32.66706 91.599063)">0k</text>
     </g>
    </g>
    <g id="xtick_2">
     <g id="line2d_2">
      <g>
       <use xlink:href="#m7558618cd1" x="49.580632" y="81.54" style="stroke: #000000; stroke-width: 0.5"/>
      </g>
     </g>
     <g id="text_2">
      <text style="font: 6px 'DejaVu Sans', sans-serif; text-anchor: middle" x="49.580632" y="91.599063" transform="rotate(-0 49.580632 91.599063)">10k</text>
     </g>
    </g>
    <g id="xtick_3">
     <g id="line2d_3">
      <g>
       <use xlink:href="#m7558618cd1" x="66.494203" y="81.54" style="stroke: #000000; stroke-width: 0.5"/>
      </g>
     </g>
     <g id="text_3">
      <text style="font: 6px 'DejaVu Sans', sans-serif; text-anchor: middle" x="66.494203" y="91.599063" transform="rotate(-0 66.494203 91.599063)">20k</text>
     </g>
    </g>
    <g id="xtick_4">
     <g id="line2d_4">
      <g>
       <use xlink:href="#m7558618cd1" x="83.407774" y="81.54" style="stroke: #000000; stroke-width: 0.5"/>
      </g>
     </g>
     <g id="text_4">
      <text style="font: 6px 'DejaVu Sans', sans-serif; text-anchor: middle" x="83.407774" y="91.599063" transform="rotate(-0 83.407774 91.599063)">30k</text>
     </g>
    </g>
    <g id="xtick_5">
     <g id="line2d_5">
      <g>
       <use xlink:href="#m7558618cd1" x="100.321346" y="81.54" style="stroke: #000000; stroke-width: 0.5"/>
      </g>
     </g>
     <g id="text_5">
      <text style="font: 6px 'DejaVu Sans', sans-serif; text-anchor: middle" x="100.321346" y="91.599063" transform="rotate(-0 100.321346 91.599063)">40k</text>
     </g>
    </g>
    <g id="xtick_6">
     <g id="line2d_6">
      <g>
       <use xlink:href="#m7558618cd1" x="117.234917" y="81.54" style="stroke: #000000; stroke-width: 0.5"/>
      </g>
     </g>
     <g id="text_6">
      <text style="font: 6px 'DejaVu Sans', sans-serif; text-anchor: middle" x="117.234917" y="91.599063" transform="rotate(-0 117.234917 91.599063)">50k</text>
     </g>
    </g>
    <g id="text_7">
     <text style="font: 6px 'DejaVu Sans', sans-serif; text-anchor: middle" x="76.71" y="101.405938" transform="rotate(-0 76.71 101.405938)">Training Steps</text>
    </g>
   </g>
   <g id="matplotlib.axis_2">
    <g id="ytick_1">
     <g id="line2d_7">
      <defs>
       <path id="mb305d88700" d="M 0 0 
L -2 0 
" style="stroke: #000000; stroke-width: 0.5"/>
      </defs>
      <g>
       <use xlink:href="#mb305d88700" x="29.9" y="68.860085" style="stroke: #000000; stroke-width: 0.5"/>
      </g>
     </g>
     <g id="text_8">
      <text style="font: 6px 'DejaVu Sans', sans-serif; text-anchor: end" x="24.4" y="71.139616" transform="rotate(-0 24.4 71.139616)">6</text>
     </g>
    </g>
    <g id="ytick_2">
     <g id="line2d_8">
      <g>
       <use xlink:href="#mb305d88700" x="29.9" y="50.323892" style="stroke: #000000; stroke-width: 0.5"/>
      </g>
     </g>
     <g id="text_9">
      <text style="font: 6px 'DejaVu Sans', sans-serif; text-anchor: end" x="24.4" y="52.603423" transform="rotate(-0 24.4 52.603423)">8</text>
     </g>
    </g>
    <g id="ytick_3">
     <g id="line2d_9">
      <g>
       <use xlink:href="#mb305d88700" x="29.9" y="31.787698" style="stroke: #000000; stroke-width: 0.5"/>
      </g>
     </g>
     <g id="text_10">
      <text style="font: 6px 'DejaVu Sans', sans-serif; text-anchor: end" x="24.4" y="34.06723" transform="rotate(-0 24.4 34.06723)">10</text>
     </g>
    </g>
    <g id="ytick_4">
     <g id="line2d_10">
      <g>
       <use xlink:href="#mb305d88700" x="29.9" y="13.251505" style="stroke: #000000; stroke-width: 0.5"/>
      </g>
     </g>
     <g id="text_11">
      <text style="font: 6px 'DejaVu Sans', sans-serif; text-anchor: end" x="24.4" y="15.531036" transform="rotate(-0 24.4 15.531036)">12</text>
     </g>
    </g>
    <g id="text_12">
     <text style="font: 6px 'DejaVu Sans', sans-serif; text-anchor: middle" x="11.517188" y="44.01" transform="rotate(-90 11.517188 44.01)">Number of repressors</text>
    </g>
   </g>
   <g id="line2d_11">
    <path d="M 34.155455 10.702775 
L 35.373232 14.410015 
L 36.861626 10.471074 
L 38.079403 10.586925 
L 39.567797 14.989271 
L 40.785575 10.934478 
L 42.273969 9.891818 
L 43.491746 13.714907 
L 44.98014 25.184178 
L 46.197917 17.074592 
L 47.686312 22.867153 
L 48.904089 28.31216 
L 50.392483 37.464406 
L 51.61026 43.488669 
L 53.098654 27.617054 
L 54.316432 40.013133 
L 55.804826 49.628783 
L 57.022603 51.945808 
L 58.510997 51.829956 
L 59.728774 54.957939 
L 61.217169 62.140714 
L 62.434946 60.171244 
L 63.92334 64.457739 
L 65.141117 65.5004 
L 66.629511 72.914877 
L 67.847289 72.21977 
L 69.335683 73.609985 
L 70.55346 77.201372 
L 72.041854 76.04286 
L 73.259631 77.433075 
L 74.748026 77.317223 
L 75.965803 76.622116 
L 77.454197 78.128182 
L 78.671974 77.780628 
L 80.160369 77.896479 
L 81.378146 76.622116 
L 82.86654 78.012331 
L 84.084317 78.012331 
L 85.572711 78.128182 
L 86.790489 77.433075 
L 88.278883 78.128182 
L 89.49666 77.896479 
L 90.985054 77.896479 
L 92.202831 78.128182 
L 93.691226 77.896479 
L 94.909003 78.128182 
L 96.397397 78.128182 
L 97.615174 78.128182 
L 99.103568 78.128182 
L 100.321346 77.896479 
L 101.80974 78.012331 
L 103.027517 78.128182 
L 104.515911 78.128182 
L 105.733688 78.128182 
L 107.222083 78.128182 
L 108.43986 78.128182 
L 109.928254 78.128182 
L 111.146031 78.128182 
L 112.634425 78.128182 
L 113.852203 78.128182 
L 115.340597 77.664777 
L 116.558374 78.128182 
L 118.046768 78.128182 
L 119.264545 78.128182 
" clip-path="url(#p8ac6b78336)" style="fill: none; stroke: #417ff1; stroke-width: 0.5; stroke-linecap: square"/>
   </g>
   <g id="patch_3">
    <path d="M 29.9 81.54 
L 29.9 6.48 
" style="fill: none; stroke: #000000; stroke-width: 0.5; stroke-linejoin: miter; stroke-linecap: square"/>
   </g>
   <g id="patch_4">
    <path d="M 123.52 81.54 
L 123.52 6.48 
" style="fill: none; stroke: #000000; stroke-width: 0.5; stroke-linejoin: miter; stroke-linecap: square"/>
   </g>
   <g id="patch_5">
    <path d="M 29.9 81.54 
L 123.52 81.54 
" style="fill: none; stroke: #000000; stroke-width: 0.5; stroke-linejoin: miter; stroke-linecap: square"/>
   </g>
   <g id="patch_6">
    <path d="M 29.9 6.48 
L 123.52 6.48 
" style="fill: none; stroke: #000000; stroke-width: 0.5; stroke-linejoin: miter; stroke-linecap: square"/>
   </g>
  </g>
 </g>
 <defs>
  <clipPath id="p8ac6b78336">
   <rect x="29.9" y="6.48" width="93.62" height="75.06"/>
  </clipPath>
 </defs>
</svg>
