<?xml version="1.0" encoding="UTF-8" standalone="no"?>
<!DOCTYPE svg PUBLIC "-//W3C//DTD SVG 1.1//EN"
 "http://www.w3.org/Graphics/SVG/1.1/DTD/svg11.dtd">
<!-- Generated by graphviz version 2.43.0 (0)
 -->
<!-- Title: optimal_topology_with_parts_assigned_0x17_0_0 Pages: 1 -->
<svg width="352pt" height="233pt"
 viewBox="3.60 3.60 348.80 229.80" xmlns="http://www.w3.org/2000/svg" xmlns:xlink="http://www.w3.org/1999/xlink">
<g id="graph0" class="graph" transform="scale(1 1) rotate(0) translate(7.2 226.2)">
<title>optimal_topology_with_parts_assigned_0x17_0_0</title>
<polygon fill="white" stroke="transparent" points="-3.6,3.6 -3.6,-222.6 341.6,-222.6 341.6,3.6 -3.6,3.6"/>
<!-- 0 -->
<g id="node1" class="node">
<title>0</title>
<path fill="#f2fef2" stroke="#585858" d="M42,-36C42,-36 12,-36 12,-36 6,-36 0,-30 0,-24 0,-24 0,-12 0,-12 0,-6 6,0 12,0 12,0 42,0 42,0 48,0 54,-6 54,-12 54,-12 54,-24 54,-24 54,-30 48,-36 42,-36"/>
<text text-anchor="middle" x="27" y="-20.8" font-family="Helvetica,sans-Serif" font-size="9.00">0</text>
<text text-anchor="middle" x="27" y="-10.8" font-family="Helvetica,sans-Serif" font-size="9.00">INPUT</text>
</g>
<!-- 9 -->
<g id="node10" class="node">
<title>9</title>
<path fill="#f4eef5" stroke="#666666" d="M136,-36C136,-36 106,-36 106,-36 100,-36 94,-30 94,-24 94,-24 94,-12 94,-12 94,-6 100,0 106,0 106,0 136,0 136,0 142,0 148,-6 148,-12 148,-12 148,-24 148,-24 148,-30 142,-36 136,-36"/>
<text text-anchor="middle" x="121" y="-20.8" font-family="Helvetica,sans-Serif" font-size="9.00">PsrA</text>
<text text-anchor="middle" x="121" y="-10.8" font-family="Helvetica,sans-Serif" font-size="9.00">R1</text>
</g>
<!-- 0&#45;&gt;9 -->
<g id="edge1" class="edge">
<title>0:e&#45;&gt;9:w</title>
<path fill="none" stroke="#585858" stroke-width="2" d="M54,-18C54,-18 74.66,-18 86.29,-18"/>
<polygon fill="#585858" stroke="#585858" stroke-width="2" points="86.5,-20.63 94,-18 86.5,-15.38 86.5,-20.63"/>
</g>
<!-- 1 -->
<g id="node2" class="node">
<title>1</title>
<path fill="#f2fef2" stroke="#585858" d="M42,-127C42,-127 12,-127 12,-127 6,-127 0,-121 0,-115 0,-115 0,-103 0,-103 0,-97 6,-91 12,-91 12,-91 42,-91 42,-91 48,-91 54,-97 54,-103 54,-103 54,-115 54,-115 54,-121 48,-127 42,-127"/>
<text text-anchor="middle" x="27" y="-111.8" font-family="Helvetica,sans-Serif" font-size="9.00">1</text>
<text text-anchor="middle" x="27" y="-101.8" font-family="Helvetica,sans-Serif" font-size="9.00">INPUT</text>
</g>
<!-- 5 -->
<g id="node6" class="node">
<title>5</title>
<path fill="#e8f4e8" stroke="#666666" d="M136,-97C136,-97 106,-97 106,-97 100,-97 94,-91 94,-85 94,-85 94,-73 94,-73 94,-67 100,-61 106,-61 106,-61 136,-61 136,-61 142,-61 148,-67 148,-73 148,-73 148,-85 148,-85 148,-91 142,-97 136,-97"/>
<text text-anchor="middle" x="121" y="-81.8" font-family="Helvetica,sans-Serif" font-size="9.00">AmtR</text>
<text text-anchor="middle" x="121" y="-71.8" font-family="Helvetica,sans-Serif" font-size="9.00">A1</text>
</g>
<!-- 1&#45;&gt;5 -->
<g id="edge2" class="edge">
<title>1:e&#45;&gt;5:w</title>
<path fill="none" stroke="#585858" stroke-width="2" d="M54,-109C54,-109 76.5,-92.12 87.75,-83.69"/>
<polygon fill="#585858" stroke="#585858" stroke-width="2" points="89.57,-85.6 94,-79 86.42,-81.4 89.57,-85.6"/>
</g>
<!-- 8 -->
<g id="node9" class="node">
<title>8</title>
<path fill="#f6f9fd" stroke="#666666" d="M136,-158C136,-158 106,-158 106,-158 100,-158 94,-152 94,-146 94,-146 94,-134 94,-134 94,-128 100,-122 106,-122 106,-122 136,-122 136,-122 142,-122 148,-128 148,-134 148,-134 148,-146 148,-146 148,-152 142,-158 136,-158"/>
<text text-anchor="middle" x="121" y="-142.8" font-family="Helvetica,sans-Serif" font-size="9.00">BetI</text>
<text text-anchor="middle" x="121" y="-132.8" font-family="Helvetica,sans-Serif" font-size="9.00">E1</text>
</g>
<!-- 1&#45;&gt;8 -->
<g id="edge3" class="edge">
<title>1:e&#45;&gt;8:w</title>
<path fill="none" stroke="#585858" stroke-width="2" d="M54,-109C54,-109 76.5,-126.44 87.75,-135.16"/>
<polygon fill="#585858" stroke="#585858" stroke-width="2" points="86.46,-137.48 94,-140 89.68,-133.33 86.46,-137.48"/>
</g>
<!-- 2 -->
<g id="node3" class="node">
<title>2</title>
<path fill="#f2fef2" stroke="#585858" d="M42,-203C42,-203 12,-203 12,-203 6,-203 0,-197 0,-191 0,-191 0,-179 0,-179 0,-173 6,-167 12,-167 12,-167 42,-167 42,-167 48,-167 54,-173 54,-179 54,-179 54,-191 54,-191 54,-197 48,-203 42,-203"/>
<text text-anchor="middle" x="27" y="-187.8" font-family="Helvetica,sans-Serif" font-size="9.00">2</text>
<text text-anchor="middle" x="27" y="-177.8" font-family="Helvetica,sans-Serif" font-size="9.00">INPUT</text>
</g>
<!-- 2&#45;&gt;5 -->
<g id="edge4" class="edge">
<title>2:e&#45;&gt;5:w</title>
<path fill="none" stroke="#585858" stroke-width="2" d="M54,-185C54,-185 82.21,-110.23 91.25,-86.29"/>
<polygon fill="#585858" stroke="#585858" stroke-width="2" points="93.81,-86.94 94,-79 88.9,-85.09 93.81,-86.94"/>
</g>
<!-- 7 -->
<g id="node8" class="node">
<title>7</title>
<path fill="#dae8f3" stroke="#666666" d="M136,-219C136,-219 106,-219 106,-219 100,-219 94,-213 94,-207 94,-207 94,-195 94,-195 94,-189 100,-183 106,-183 106,-183 136,-183 136,-183 142,-183 148,-189 148,-195 148,-195 148,-207 148,-207 148,-213 142,-219 136,-219"/>
<text text-anchor="middle" x="121" y="-203.8" font-family="Helvetica,sans-Serif" font-size="9.00">SrpR</text>
<text text-anchor="middle" x="121" y="-193.8" font-family="Helvetica,sans-Serif" font-size="9.00">S4</text>
</g>
<!-- 2&#45;&gt;7 -->
<g id="edge5" class="edge">
<title>2:e&#45;&gt;7:w</title>
<path fill="none" stroke="#585858" stroke-width="2" d="M54,-185C54,-185 75.57,-193.63 87.03,-198.21"/>
<polygon fill="#585858" stroke="#585858" stroke-width="2" points="86.06,-200.65 94,-201 88.01,-195.78 86.06,-200.65"/>
</g>
<!-- 3 -->
<g id="node4" class="node">
<title>3</title>
<path fill="#fcffe5" stroke="#585858" d="M326,-127C326,-127 294,-127 294,-127 288,-127 282,-121 282,-115 282,-115 282,-103 282,-103 282,-97 288,-91 294,-91 294,-91 326,-91 326,-91 332,-91 338,-97 338,-103 338,-103 338,-115 338,-115 338,-121 332,-127 326,-127"/>
<text text-anchor="middle" x="310" y="-111.8" font-family="Helvetica,sans-Serif" font-size="9.00">3</text>
<text text-anchor="middle" x="310" y="-101.8" font-family="Helvetica,sans-Serif" font-size="9.00">OR/OUTPUT</text>
</g>
<!-- 4 -->
<g id="node5" class="node">
<title>4</title>
<path fill="#faede4" stroke="#666666" d="M230,-158C230,-158 200,-158 200,-158 194,-158 188,-152 188,-146 188,-146 188,-134 188,-134 188,-128 194,-122 200,-122 200,-122 230,-122 230,-122 236,-122 242,-128 242,-134 242,-134 242,-146 242,-146 242,-152 236,-158 230,-158"/>
<text text-anchor="middle" x="215" y="-142.8" font-family="Helvetica,sans-Serif" font-size="9.00">PhlF</text>
<text text-anchor="middle" x="215" y="-132.8" font-family="Helvetica,sans-Serif" font-size="9.00">P2</text>
</g>
<!-- 4&#45;&gt;3 -->
<g id="edge6" class="edge">
<title>4:e&#45;&gt;3:w</title>
<path fill="none" stroke="#585858" stroke-width="2" d="M242,-140C242,-140 264.5,-122.56 275.75,-113.84"/>
<polygon fill="#585858" stroke="#585858" stroke-width="2" points="277.68,-115.67 282,-109 274.46,-111.52 277.68,-115.67"/>
</g>
<!-- 6 -->
<g id="node7" class="node">
<title>6</title>
<path fill="#fce2e4" stroke="#666666" d="M230,-97C230,-97 200,-97 200,-97 194,-97 188,-91 188,-85 188,-85 188,-73 188,-73 188,-67 194,-61 200,-61 200,-61 230,-61 230,-61 236,-61 242,-67 242,-73 242,-73 242,-85 242,-85 242,-91 236,-97 230,-97"/>
<text text-anchor="middle" x="215" y="-81.8" font-family="Helvetica,sans-Serif" font-size="9.00">QacR</text>
<text text-anchor="middle" x="215" y="-71.8" font-family="Helvetica,sans-Serif" font-size="9.00">Q2</text>
</g>
<!-- 5&#45;&gt;6 -->
<g id="edge7" class="edge">
<title>5:e&#45;&gt;6:w</title>
<path fill="none" stroke="#585858" stroke-width="2" d="M148,-79C148,-79 168.66,-79 180.29,-79"/>
<polygon fill="#585858" stroke="#585858" stroke-width="2" points="180.5,-81.63 188,-79 180.5,-76.38 180.5,-81.63"/>
</g>
<!-- 6&#45;&gt;3 -->
<g id="edge8" class="edge">
<title>6:e&#45;&gt;3:w</title>
<path fill="none" stroke="#585858" stroke-width="2" d="M242,-79C242,-79 264.5,-95.88 275.75,-104.31"/>
<polygon fill="#585858" stroke="#585858" stroke-width="2" points="274.42,-106.6 282,-109 277.57,-102.4 274.42,-106.6"/>
</g>
<!-- 7&#45;&gt;4 -->
<g id="edge9" class="edge">
<title>7:e&#45;&gt;4:w</title>
<path fill="none" stroke="#585858" stroke-width="2" d="M148,-201C148,-201 173.4,-162.26 183.72,-146.53"/>
<polygon fill="#585858" stroke="#585858" stroke-width="2" points="186.08,-147.71 188,-140 181.69,-144.83 186.08,-147.71"/>
</g>
<!-- 8&#45;&gt;4 -->
<g id="edge10" class="edge">
<title>8:e&#45;&gt;4:w</title>
<path fill="none" stroke="#585858" stroke-width="2" d="M148,-140C148,-140 168.66,-140 180.29,-140"/>
<polygon fill="#585858" stroke="#585858" stroke-width="2" points="180.5,-142.63 188,-140 180.5,-137.38 180.5,-142.63"/>
</g>
<!-- 9&#45;&gt;6 -->
<g id="edge11" class="edge">
<title>9:e&#45;&gt;6:w</title>
<path fill="none" stroke="#585858" stroke-width="2" d="M148,-18C148,-18 173.4,-56.74 183.72,-72.47"/>
<polygon fill="#585858" stroke="#585858" stroke-width="2" points="181.69,-74.17 188,-79 186.08,-71.29 181.69,-74.17"/>
</g>
</g>
</svg>
