<?xml version="1.0" encoding="UTF-8" standalone="no"?>
<!DOCTYPE svg PUBLIC "-//W3C//DTD SVG 1.1//EN"
 "http://www.w3.org/Graphics/SVG/1.1/DTD/svg11.dtd">
<!-- Generated by graphviz version 2.43.0 (0)
 -->
<!-- Title: 0x17_optimal_topology_3 Pages: 1 -->
<svg width="538pt" height="197pt"
 viewBox="3.60 3.60 534.80 193.80" xmlns="http://www.w3.org/2000/svg" xmlns:xlink="http://www.w3.org/1999/xlink">
<g id="graph0" class="graph" transform="scale(1 1) rotate(0) translate(7.2 190.2)">
<title>0x17_optimal_topology_3</title>
<polygon fill="white" stroke="transparent" points="-3.6,3.6 -3.6,-186.6 527.6,-186.6 527.6,3.6 -3.6,3.6"/>
<!-- 0 -->
<g id="node1" class="node">
<title>0</title>
<path fill="#f2fef2" stroke="#585858" d="M42,-183C42,-183 12,-183 12,-183 6,-183 0,-177 0,-171 0,-171 0,-159 0,-159 0,-153 6,-147 12,-147 12,-147 42,-147 42,-147 48,-147 54,-153 54,-159 54,-159 54,-171 54,-171 54,-177 48,-183 42,-183"/>
<text text-anchor="middle" x="27" y="-167.8" font-family="Helvetica,sans-Serif" font-size="9.00">0</text>
<text text-anchor="middle" x="27" y="-157.8" font-family="Helvetica,sans-Serif" font-size="9.00">INPUT</text>
</g>
<!-- 21 -->
<g id="node7" class="node">
<title>21</title>
<path fill="#c1e6fb" stroke="#585858" d="M136,-153C136,-153 106,-153 106,-153 100,-153 94,-147 94,-141 94,-141 94,-129 94,-129 94,-123 100,-117 106,-117 106,-117 136,-117 136,-117 142,-117 148,-123 148,-129 148,-129 148,-141 148,-141 148,-147 142,-153 136,-153"/>
<text text-anchor="middle" x="121" y="-137.8" font-family="Helvetica,sans-Serif" font-size="9.00">21</text>
<text text-anchor="middle" x="121" y="-127.8" font-family="Helvetica,sans-Serif" font-size="9.00">NOR</text>
</g>
<!-- 0&#45;&gt;21 -->
<g id="edge4" class="edge">
<title>0:e&#45;&gt;21:w</title>
<path fill="none" stroke="#585858" stroke-width="2" d="M54,-165C54,-165 76.5,-148.12 87.75,-139.69"/>
<polygon fill="#585858" stroke="#585858" stroke-width="2" points="89.57,-141.6 94,-135 86.42,-137.4 89.57,-141.6"/>
</g>
<!-- 23 -->
<g id="node9" class="node">
<title>23</title>
<path fill="#c1e6fb" stroke="#585858" d="M324,-151C324,-151 294,-151 294,-151 288,-151 282,-145 282,-139 282,-139 282,-127 282,-127 282,-121 288,-115 294,-115 294,-115 324,-115 324,-115 330,-115 336,-121 336,-127 336,-127 336,-139 336,-139 336,-145 330,-151 324,-151"/>
<text text-anchor="middle" x="309" y="-135.8" font-family="Helvetica,sans-Serif" font-size="9.00">23</text>
<text text-anchor="middle" x="309" y="-125.8" font-family="Helvetica,sans-Serif" font-size="9.00">NOR</text>
</g>
<!-- 0&#45;&gt;23 -->
<g id="edge5" class="edge">
<title>0:e&#45;&gt;23:w</title>
<path fill="none" stroke="#585858" stroke-width="2" d="M54,-165C54,-165 94,-166 94,-166 94,-166 148,-166 148,-166 148,-166 246.06,-141.85 274.41,-134.87"/>
<polygon fill="#585858" stroke="#585858" stroke-width="2" points="275.35,-137.34 282,-133 274.09,-132.24 275.35,-137.34"/>
</g>
<!-- 1 -->
<g id="node2" class="node">
<title>1</title>
<path fill="#f2fef2" stroke="#585858" d="M42,-36C42,-36 12,-36 12,-36 6,-36 0,-30 0,-24 0,-24 0,-12 0,-12 0,-6 6,0 12,0 12,0 42,0 42,0 48,0 54,-6 54,-12 54,-12 54,-24 54,-24 54,-30 48,-36 42,-36"/>
<text text-anchor="middle" x="27" y="-20.8" font-family="Helvetica,sans-Serif" font-size="9.00">1</text>
<text text-anchor="middle" x="27" y="-10.8" font-family="Helvetica,sans-Serif" font-size="9.00">INPUT</text>
</g>
<!-- 1&#45;&gt;21 -->
<g id="edge1" class="edge">
<title>1:e&#45;&gt;21:w</title>
<path fill="none" stroke="#585858" stroke-width="2" d="M54,-18C54,-18 82.74,-102.07 91.5,-127.68"/>
<polygon fill="#585858" stroke="#585858" stroke-width="2" points="89.09,-128.75 94,-135 94.06,-127.05 89.09,-128.75"/>
</g>
<!-- 24 -->
<g id="node10" class="node">
<title>24</title>
<path fill="#c1e6fb" stroke="#585858" d="M324,-90C324,-90 294,-90 294,-90 288,-90 282,-84 282,-78 282,-78 282,-66 282,-66 282,-60 288,-54 294,-54 294,-54 324,-54 324,-54 330,-54 336,-60 336,-66 336,-66 336,-78 336,-78 336,-84 330,-90 324,-90"/>
<text text-anchor="middle" x="309" y="-74.8" font-family="Helvetica,sans-Serif" font-size="9.00">24</text>
<text text-anchor="middle" x="309" y="-64.8" font-family="Helvetica,sans-Serif" font-size="9.00">NOR</text>
</g>
<!-- 1&#45;&gt;24 -->
<g id="edge2" class="edge">
<title>1:e&#45;&gt;24:w</title>
<path fill="none" stroke="#585858" stroke-width="2" d="M54,-18C54,-18 234.85,-60.83 274.41,-70.2"/>
<polygon fill="#585858" stroke="#585858" stroke-width="2" points="274.1,-72.83 282,-72 275.31,-67.72 274.1,-72.83"/>
</g>
<!-- 2 -->
<g id="node3" class="node">
<title>2</title>
<path fill="#f2fef2" stroke="#585858" d="M42,-97C42,-97 12,-97 12,-97 6,-97 0,-91 0,-85 0,-85 0,-73 0,-73 0,-67 6,-61 12,-61 12,-61 42,-61 42,-61 48,-61 54,-67 54,-73 54,-73 54,-85 54,-85 54,-91 48,-97 42,-97"/>
<text text-anchor="middle" x="27" y="-81.8" font-family="Helvetica,sans-Serif" font-size="9.00">2</text>
<text text-anchor="middle" x="27" y="-71.8" font-family="Helvetica,sans-Serif" font-size="9.00">INPUT</text>
</g>
<!-- 20 -->
<g id="node6" class="node">
<title>20</title>
<path fill="#c1e6fb" stroke="#585858" d="M136,-92C136,-92 106,-92 106,-92 100,-92 94,-86 94,-80 94,-80 94,-68 94,-68 94,-62 100,-56 106,-56 106,-56 136,-56 136,-56 142,-56 148,-62 148,-68 148,-68 148,-80 148,-80 148,-86 142,-92 136,-92"/>
<text text-anchor="middle" x="121" y="-76.8" font-family="Helvetica,sans-Serif" font-size="9.00">20</text>
<text text-anchor="middle" x="121" y="-66.8" font-family="Helvetica,sans-Serif" font-size="9.00">NOT</text>
</g>
<!-- 2&#45;&gt;20 -->
<g id="edge3" class="edge">
<title>2:e&#45;&gt;20:w</title>
<path fill="none" stroke="#585858" stroke-width="2" d="M54,-79C54,-79 74.66,-76.42 86.29,-74.96"/>
<polygon fill="#585858" stroke="#585858" stroke-width="2" points="86.88,-77.54 94,-74 86.23,-72.33 86.88,-77.54"/>
</g>
<!-- 13 -->
<g id="node4" class="node">
<title>13</title>
<path fill="#fcffe5" stroke="#585858" d="M512,-120C512,-120 482,-120 482,-120 476,-120 470,-114 470,-108 470,-108 470,-96 470,-96 470,-90 476,-84 482,-84 482,-84 512,-84 512,-84 518,-84 524,-90 524,-96 524,-96 524,-108 524,-108 524,-114 518,-120 512,-120"/>
<text text-anchor="middle" x="497" y="-104.8" font-family="Helvetica,sans-Serif" font-size="9.00">13</text>
<text text-anchor="middle" x="497" y="-94.8" font-family="Helvetica,sans-Serif" font-size="9.00">OUTPUT</text>
</g>
<!-- 14 -->
<g id="node5" class="node">
<title>14</title>
<path fill="#c1e6fb" stroke="#585858" d="M418,-120C418,-120 388,-120 388,-120 382,-120 376,-114 376,-108 376,-108 376,-96 376,-96 376,-90 382,-84 388,-84 388,-84 418,-84 418,-84 424,-84 430,-90 430,-96 430,-96 430,-108 430,-108 430,-114 424,-120 418,-120"/>
<text text-anchor="middle" x="403" y="-104.8" font-family="Helvetica,sans-Serif" font-size="9.00">14</text>
<text text-anchor="middle" x="403" y="-94.8" font-family="Helvetica,sans-Serif" font-size="9.00">NOR</text>
</g>
<!-- 14&#45;&gt;13 -->
<g id="edge6" class="edge">
<title>14:e&#45;&gt;13:w</title>
<path fill="none" stroke="#585858" stroke-width="2" d="M430,-102C430,-102 450.66,-102 462.29,-102"/>
<polygon fill="#585858" stroke="#585858" stroke-width="2" points="462.5,-104.63 470,-102 462.5,-99.38 462.5,-104.63"/>
</g>
<!-- 22 -->
<g id="node8" class="node">
<title>22</title>
<path fill="#c1e6fb" stroke="#585858" d="M230,-123C230,-123 200,-123 200,-123 194,-123 188,-117 188,-111 188,-111 188,-99 188,-99 188,-93 194,-87 200,-87 200,-87 230,-87 230,-87 236,-87 242,-93 242,-99 242,-99 242,-111 242,-111 242,-117 236,-123 230,-123"/>
<text text-anchor="middle" x="215" y="-107.8" font-family="Helvetica,sans-Serif" font-size="9.00">22</text>
<text text-anchor="middle" x="215" y="-97.8" font-family="Helvetica,sans-Serif" font-size="9.00">NOR</text>
</g>
<!-- 20&#45;&gt;22 -->
<g id="edge7" class="edge">
<title>20:e&#45;&gt;22:w</title>
<path fill="none" stroke="#585858" stroke-width="2" d="M148,-74C148,-74 170.5,-91.44 181.75,-100.16"/>
<polygon fill="#585858" stroke="#585858" stroke-width="2" points="180.46,-102.48 188,-105 183.68,-98.33 180.46,-102.48"/>
</g>
<!-- 21&#45;&gt;22 -->
<g id="edge8" class="edge">
<title>21:e&#45;&gt;22:w</title>
<path fill="none" stroke="#585858" stroke-width="2" d="M148,-135C148,-135 170.5,-118.12 181.75,-109.69"/>
<polygon fill="#585858" stroke="#585858" stroke-width="2" points="183.57,-111.6 188,-105 180.42,-107.4 183.57,-111.6"/>
</g>
<!-- 22&#45;&gt;23 -->
<g id="edge9" class="edge">
<title>22:e&#45;&gt;23:w</title>
<path fill="none" stroke="#585858" stroke-width="2" d="M242,-105C242,-105 264.5,-120.75 275.75,-128.62"/>
<polygon fill="#585858" stroke="#585858" stroke-width="2" points="274.35,-130.85 282,-133 277.36,-126.55 274.35,-130.85"/>
</g>
<!-- 22&#45;&gt;24 -->
<g id="edge10" class="edge">
<title>22:e&#45;&gt;24:w</title>
<path fill="none" stroke="#585858" stroke-width="2" d="M242,-105C242,-105 264.97,-86.05 276.1,-76.87"/>
<polygon fill="#585858" stroke="#585858" stroke-width="2" points="277.89,-78.8 282,-72 274.54,-74.75 277.89,-78.8"/>
</g>
<!-- 23&#45;&gt;14 -->
<g id="edge11" class="edge">
<title>23:e&#45;&gt;14:w</title>
<path fill="none" stroke="#585858" stroke-width="2" d="M336,-133C336,-133 358.5,-115.56 369.75,-106.84"/>
<polygon fill="#585858" stroke="#585858" stroke-width="2" points="371.68,-108.67 376,-102 368.46,-104.52 371.68,-108.67"/>
</g>
<!-- 24&#45;&gt;14 -->
<g id="edge12" class="edge">
<title>24:e&#45;&gt;14:w</title>
<path fill="none" stroke="#585858" stroke-width="2" d="M336,-72C336,-72 358.5,-88.88 369.75,-97.31"/>
<polygon fill="#585858" stroke="#585858" stroke-width="2" points="368.42,-99.6 376,-102 371.57,-95.4 368.42,-99.6"/>
</g>
</g>
</svg>
