<?xml version="1.0" encoding="UTF-8" standalone="no"?>
<!DOCTYPE svg PUBLIC "-//W3C//DTD SVG 1.1//EN"
 "http://www.w3.org/Graphics/SVG/1.1/DTD/svg11.dtd">
<!-- Generated by graphviz version 2.43.0 (0)
 -->
<!-- Title: 0x17_optimal_topology_1 Pages: 1 -->
<svg width="538pt" height="228pt"
 viewBox="3.60 3.60 534.80 224.80" xmlns="http://www.w3.org/2000/svg" xmlns:xlink="http://www.w3.org/1999/xlink">
<g id="graph0" class="graph" transform="scale(1 1) rotate(0) translate(7.2 221.2)">
<title>0x17_optimal_topology_1</title>
<polygon fill="white" stroke="transparent" points="-3.6,3.6 -3.6,-217.6 527.6,-217.6 527.6,3.6 -3.6,3.6"/>
<!-- 0 -->
<g id="node1" class="node">
<title>0</title>
<path fill="#f2fef2" stroke="#585858" d="M42,-36C42,-36 12,-36 12,-36 6,-36 0,-30 0,-24 0,-24 0,-12 0,-12 0,-6 6,0 12,0 12,0 42,0 42,0 48,0 54,-6 54,-12 54,-12 54,-24 54,-24 54,-30 48,-36 42,-36"/>
<text text-anchor="middle" x="27" y="-20.8" font-family="Helvetica,sans-Serif" font-size="9.00">0</text>
<text text-anchor="middle" x="27" y="-10.8" font-family="Helvetica,sans-Serif" font-size="9.00">INPUT</text>
</g>
<!-- 17 -->
<g id="node8" class="node">
<title>17</title>
<path fill="#c1e6fb" stroke="#585858" d="M324,-93C324,-93 294,-93 294,-93 288,-93 282,-87 282,-81 282,-81 282,-69 282,-69 282,-63 288,-57 294,-57 294,-57 324,-57 324,-57 330,-57 336,-63 336,-69 336,-69 336,-81 336,-81 336,-87 330,-93 324,-93"/>
<text text-anchor="middle" x="309" y="-77.8" font-family="Helvetica,sans-Serif" font-size="9.00">17</text>
<text text-anchor="middle" x="309" y="-67.8" font-family="Helvetica,sans-Serif" font-size="9.00">NOR</text>
</g>
<!-- 0&#45;&gt;17 -->
<g id="edge3" class="edge">
<title>0:e&#45;&gt;17:w</title>
<path fill="none" stroke="#585858" stroke-width="2" d="M54,-18C54,-18 242,-45 242,-45 242,-45 264.5,-61.88 275.75,-70.31"/>
<polygon fill="#585858" stroke="#585858" stroke-width="2" points="274.42,-72.6 282,-75 277.57,-68.4 274.42,-72.6"/>
</g>
<!-- 1 -->
<g id="node2" class="node">
<title>1</title>
<path fill="#f2fef2" stroke="#585858" d="M42,-200C42,-200 12,-200 12,-200 6,-200 0,-194 0,-188 0,-188 0,-176 0,-176 0,-170 6,-164 12,-164 12,-164 42,-164 42,-164 48,-164 54,-170 54,-176 54,-176 54,-188 54,-188 54,-194 48,-200 42,-200"/>
<text text-anchor="middle" x="27" y="-184.8" font-family="Helvetica,sans-Serif" font-size="9.00">1</text>
<text text-anchor="middle" x="27" y="-174.8" font-family="Helvetica,sans-Serif" font-size="9.00">INPUT</text>
</g>
<!-- 15 -->
<g id="node6" class="node">
<title>15</title>
<path fill="#c1e6fb" stroke="#585858" d="M136,-153C136,-153 106,-153 106,-153 100,-153 94,-147 94,-141 94,-141 94,-129 94,-129 94,-123 100,-117 106,-117 106,-117 136,-117 136,-117 142,-117 148,-123 148,-129 148,-129 148,-141 148,-141 148,-147 142,-153 136,-153"/>
<text text-anchor="middle" x="121" y="-137.8" font-family="Helvetica,sans-Serif" font-size="9.00">15</text>
<text text-anchor="middle" x="121" y="-127.8" font-family="Helvetica,sans-Serif" font-size="9.00">NOR</text>
</g>
<!-- 1&#45;&gt;15 -->
<g id="edge1" class="edge">
<title>1:e&#45;&gt;15:w</title>
<path fill="none" stroke="#585858" stroke-width="2" d="M54,-182C54,-182 78.41,-153.31 89.1,-140.76"/>
<polygon fill="#585858" stroke="#585858" stroke-width="2" points="91.14,-142.41 94,-135 87.14,-139.01 91.14,-142.41"/>
</g>
<!-- 19 -->
<g id="node10" class="node">
<title>19</title>
<path fill="#c1e6fb" stroke="#585858" d="M136,-214C136,-214 106,-214 106,-214 100,-214 94,-208 94,-202 94,-202 94,-190 94,-190 94,-184 100,-178 106,-178 106,-178 136,-178 136,-178 142,-178 148,-184 148,-190 148,-190 148,-202 148,-202 148,-208 142,-214 136,-214"/>
<text text-anchor="middle" x="121" y="-198.8" font-family="Helvetica,sans-Serif" font-size="9.00">19</text>
<text text-anchor="middle" x="121" y="-188.8" font-family="Helvetica,sans-Serif" font-size="9.00">NOT</text>
</g>
<!-- 1&#45;&gt;19 -->
<g id="edge2" class="edge">
<title>1:e&#45;&gt;19:w</title>
<path fill="none" stroke="#585858" stroke-width="2" d="M54,-182C54,-182 75.12,-189.39 86.66,-193.43"/>
<polygon fill="#585858" stroke="#585858" stroke-width="2" points="86.05,-196 94,-196 87.79,-191.04 86.05,-196"/>
</g>
<!-- 2 -->
<g id="node3" class="node">
<title>2</title>
<path fill="#f2fef2" stroke="#585858" d="M42,-125C42,-125 12,-125 12,-125 6,-125 0,-119 0,-113 0,-113 0,-101 0,-101 0,-95 6,-89 12,-89 12,-89 42,-89 42,-89 48,-89 54,-95 54,-101 54,-101 54,-113 54,-113 54,-119 48,-125 42,-125"/>
<text text-anchor="middle" x="27" y="-109.8" font-family="Helvetica,sans-Serif" font-size="9.00">2</text>
<text text-anchor="middle" x="27" y="-99.8" font-family="Helvetica,sans-Serif" font-size="9.00">INPUT</text>
</g>
<!-- 2&#45;&gt;15 -->
<g id="edge4" class="edge">
<title>2:e&#45;&gt;15:w</title>
<path fill="none" stroke="#585858" stroke-width="2" d="M54,-107C54,-107 76.5,-122.75 87.75,-130.62"/>
<polygon fill="#585858" stroke="#585858" stroke-width="2" points="86.35,-132.85 94,-135 89.36,-128.55 86.35,-132.85"/>
</g>
<!-- 18 -->
<g id="node9" class="node">
<title>18</title>
<path fill="#c1e6fb" stroke="#585858" d="M136,-92C136,-92 106,-92 106,-92 100,-92 94,-86 94,-80 94,-80 94,-68 94,-68 94,-62 100,-56 106,-56 106,-56 136,-56 136,-56 142,-56 148,-62 148,-68 148,-68 148,-80 148,-80 148,-86 142,-92 136,-92"/>
<text text-anchor="middle" x="121" y="-76.8" font-family="Helvetica,sans-Serif" font-size="9.00">18</text>
<text text-anchor="middle" x="121" y="-66.8" font-family="Helvetica,sans-Serif" font-size="9.00">NOT</text>
</g>
<!-- 2&#45;&gt;18 -->
<g id="edge5" class="edge">
<title>2:e&#45;&gt;18:w</title>
<path fill="none" stroke="#585858" stroke-width="2" d="M54,-107C54,-107 76.97,-88.05 88.1,-78.87"/>
<polygon fill="#585858" stroke="#585858" stroke-width="2" points="89.89,-80.8 94,-74 86.54,-76.75 89.89,-80.8"/>
</g>
<!-- 13 -->
<g id="node4" class="node">
<title>13</title>
<path fill="#fcffe5" stroke="#585858" d="M512,-121C512,-121 482,-121 482,-121 476,-121 470,-115 470,-109 470,-109 470,-97 470,-97 470,-91 476,-85 482,-85 482,-85 512,-85 512,-85 518,-85 524,-91 524,-97 524,-97 524,-109 524,-109 524,-115 518,-121 512,-121"/>
<text text-anchor="middle" x="497" y="-105.8" font-family="Helvetica,sans-Serif" font-size="9.00">13</text>
<text text-anchor="middle" x="497" y="-95.8" font-family="Helvetica,sans-Serif" font-size="9.00">OUTPUT</text>
</g>
<!-- 14 -->
<g id="node5" class="node">
<title>14</title>
<path fill="#c1e6fb" stroke="#585858" d="M418,-121C418,-121 388,-121 388,-121 382,-121 376,-115 376,-109 376,-109 376,-97 376,-97 376,-91 382,-85 388,-85 388,-85 418,-85 418,-85 424,-85 430,-91 430,-97 430,-97 430,-109 430,-109 430,-115 424,-121 418,-121"/>
<text text-anchor="middle" x="403" y="-105.8" font-family="Helvetica,sans-Serif" font-size="9.00">14</text>
<text text-anchor="middle" x="403" y="-95.8" font-family="Helvetica,sans-Serif" font-size="9.00">NOR</text>
</g>
<!-- 14&#45;&gt;13 -->
<g id="edge6" class="edge">
<title>14:e&#45;&gt;13:w</title>
<path fill="none" stroke="#585858" stroke-width="2" d="M430,-103C430,-103 450.66,-103 462.29,-103"/>
<polygon fill="#585858" stroke="#585858" stroke-width="2" points="462.5,-105.63 470,-103 462.5,-100.38 462.5,-105.63"/>
</g>
<!-- 15&#45;&gt;14 -->
<g id="edge7" class="edge">
<title>15:e&#45;&gt;14:w</title>
<path fill="none" stroke="#585858" stroke-width="2" d="M148,-135C148,-135 328.85,-109.62 368.41,-104.06"/>
<polygon fill="#585858" stroke="#585858" stroke-width="2" points="368.94,-106.64 376,-103 368.21,-101.44 368.94,-106.64"/>
</g>
<!-- 16 -->
<g id="node7" class="node">
<title>16</title>
<path fill="#c1e6fb" stroke="#585858" d="M230,-93C230,-93 200,-93 200,-93 194,-93 188,-87 188,-81 188,-81 188,-69 188,-69 188,-63 194,-57 200,-57 200,-57 230,-57 230,-57 236,-57 242,-63 242,-69 242,-69 242,-81 242,-81 242,-87 236,-93 230,-93"/>
<text text-anchor="middle" x="215" y="-77.8" font-family="Helvetica,sans-Serif" font-size="9.00">16</text>
<text text-anchor="middle" x="215" y="-67.8" font-family="Helvetica,sans-Serif" font-size="9.00">NOR</text>
</g>
<!-- 16&#45;&gt;17 -->
<g id="edge8" class="edge">
<title>16:e&#45;&gt;17:w</title>
<path fill="none" stroke="#585858" stroke-width="2" d="M242,-75C242,-75 262.66,-75 274.29,-75"/>
<polygon fill="#585858" stroke="#585858" stroke-width="2" points="274.5,-77.63 282,-75 274.5,-72.38 274.5,-77.63"/>
</g>
<!-- 17&#45;&gt;14 -->
<g id="edge9" class="edge">
<title>17:e&#45;&gt;14:w</title>
<path fill="none" stroke="#585858" stroke-width="2" d="M336,-75C336,-75 358.5,-90.75 369.75,-98.62"/>
<polygon fill="#585858" stroke="#585858" stroke-width="2" points="368.35,-100.85 376,-103 371.36,-96.55 368.35,-100.85"/>
</g>
<!-- 18&#45;&gt;16 -->
<g id="edge10" class="edge">
<title>18:e&#45;&gt;16:w</title>
<path fill="none" stroke="#585858" stroke-width="2" d="M148,-74C148,-74 168.66,-74.52 180.29,-74.81"/>
<polygon fill="#585858" stroke="#585858" stroke-width="2" points="180.44,-77.44 188,-75 180.57,-72.19 180.44,-77.44"/>
</g>
<!-- 19&#45;&gt;16 -->
<g id="edge11" class="edge">
<title>19:e&#45;&gt;16:w</title>
<path fill="none" stroke="#585858" stroke-width="2" d="M148,-196C148,-196 177.01,-108.26 185.62,-82.21"/>
<polygon fill="#585858" stroke="#585858" stroke-width="2" points="188.14,-82.94 188,-75 183.15,-81.3 188.14,-82.94"/>
</g>
</g>
</svg>
