<?xml version="1.0" encoding="UTF-8" standalone="no"?>
<!DOCTYPE svg PUBLIC "-//W3C//DTD SVG 1.1//EN"
 "http://www.w3.org/Graphics/SVG/1.1/DTD/svg11.dtd">
<!-- Generated by graphviz version 2.43.0 (0)
 -->
<!-- Title: 0x17_optimal_topology_4 Pages: 1 -->
<svg width="538pt" height="172pt"
 viewBox="3.60 3.60 534.80 168.80" xmlns="http://www.w3.org/2000/svg" xmlns:xlink="http://www.w3.org/1999/xlink">
<g id="graph0" class="graph" transform="scale(1 1) rotate(0) translate(7.2 165.2)">
<title>0x17_optimal_topology_4</title>
<polygon fill="white" stroke="transparent" points="-3.6,3.6 -3.6,-161.6 527.6,-161.6 527.6,3.6 -3.6,3.6"/>
<!-- 0 -->
<g id="node1" class="node">
<title>0</title>
<path fill="#f2fef2" stroke="#585858" d="M42,-97C42,-97 12,-97 12,-97 6,-97 0,-91 0,-85 0,-85 0,-73 0,-73 0,-67 6,-61 12,-61 12,-61 42,-61 42,-61 48,-61 54,-67 54,-73 54,-73 54,-85 54,-85 54,-91 48,-97 42,-97"/>
<text text-anchor="middle" x="27" y="-81.8" font-family="Helvetica,sans-Serif" font-size="9.00">0</text>
<text text-anchor="middle" x="27" y="-71.8" font-family="Helvetica,sans-Serif" font-size="9.00">INPUT</text>
</g>
<!-- 15 -->
<g id="node6" class="node">
<title>15</title>
<path fill="#c1e6fb" stroke="#585858" d="M136,-158C136,-158 106,-158 106,-158 100,-158 94,-152 94,-146 94,-146 94,-134 94,-134 94,-128 100,-122 106,-122 106,-122 136,-122 136,-122 142,-122 148,-128 148,-134 148,-134 148,-146 148,-146 148,-152 142,-158 136,-158"/>
<text text-anchor="middle" x="121" y="-142.8" font-family="Helvetica,sans-Serif" font-size="9.00">15</text>
<text text-anchor="middle" x="121" y="-132.8" font-family="Helvetica,sans-Serif" font-size="9.00">NOR</text>
</g>
<!-- 0&#45;&gt;15 -->
<g id="edge5" class="edge">
<title>0:e&#45;&gt;15:w</title>
<path fill="none" stroke="#585858" stroke-width="2" d="M54,-79C54,-79 79.4,-117.74 89.72,-133.47"/>
<polygon fill="#585858" stroke="#585858" stroke-width="2" points="87.69,-135.17 94,-140 92.08,-132.29 87.69,-135.17"/>
</g>
<!-- 18 -->
<g id="node8" class="node">
<title>18</title>
<path fill="#c1e6fb" stroke="#585858" d="M136,-36C136,-36 106,-36 106,-36 100,-36 94,-30 94,-24 94,-24 94,-12 94,-12 94,-6 100,0 106,0 106,0 136,0 136,0 142,0 148,-6 148,-12 148,-12 148,-24 148,-24 148,-30 142,-36 136,-36"/>
<text text-anchor="middle" x="121" y="-20.8" font-family="Helvetica,sans-Serif" font-size="9.00">18</text>
<text text-anchor="middle" x="121" y="-10.8" font-family="Helvetica,sans-Serif" font-size="9.00">NOR</text>
</g>
<!-- 0&#45;&gt;18 -->
<g id="edge6" class="edge">
<title>0:e&#45;&gt;18:w</title>
<path fill="none" stroke="#585858" stroke-width="2" d="M54,-79C54,-79 79.4,-40.26 89.72,-24.53"/>
<polygon fill="#585858" stroke="#585858" stroke-width="2" points="92.08,-25.71 94,-18 87.69,-22.83 92.08,-25.71"/>
</g>
<!-- 1 -->
<g id="node2" class="node">
<title>1</title>
<path fill="#f2fef2" stroke="#585858" d="M42,-158C42,-158 12,-158 12,-158 6,-158 0,-152 0,-146 0,-146 0,-134 0,-134 0,-128 6,-122 12,-122 12,-122 42,-122 42,-122 48,-122 54,-128 54,-134 54,-134 54,-146 54,-146 54,-152 48,-158 42,-158"/>
<text text-anchor="middle" x="27" y="-142.8" font-family="Helvetica,sans-Serif" font-size="9.00">1</text>
<text text-anchor="middle" x="27" y="-132.8" font-family="Helvetica,sans-Serif" font-size="9.00">INPUT</text>
</g>
<!-- 1&#45;&gt;15 -->
<g id="edge1" class="edge">
<title>1:e&#45;&gt;15:w</title>
<path fill="none" stroke="#585858" stroke-width="2" d="M54,-140C54,-140 74.66,-140 86.29,-140"/>
<polygon fill="#585858" stroke="#585858" stroke-width="2" points="86.5,-142.63 94,-140 86.5,-137.38 86.5,-142.63"/>
</g>
<!-- 20 -->
<g id="node10" class="node">
<title>20</title>
<path fill="#c1e6fb" stroke="#585858" d="M136,-97C136,-97 106,-97 106,-97 100,-97 94,-91 94,-85 94,-85 94,-73 94,-73 94,-67 100,-61 106,-61 106,-61 136,-61 136,-61 142,-61 148,-67 148,-73 148,-73 148,-85 148,-85 148,-91 142,-97 136,-97"/>
<text text-anchor="middle" x="121" y="-81.8" font-family="Helvetica,sans-Serif" font-size="9.00">20</text>
<text text-anchor="middle" x="121" y="-71.8" font-family="Helvetica,sans-Serif" font-size="9.00">NOR</text>
</g>
<!-- 1&#45;&gt;20 -->
<g id="edge2" class="edge">
<title>1:e&#45;&gt;20:w</title>
<path fill="none" stroke="#585858" stroke-width="2" d="M54,-140C54,-140 79.4,-101.26 89.72,-85.53"/>
<polygon fill="#585858" stroke="#585858" stroke-width="2" points="92.08,-86.71 94,-79 87.69,-83.83 92.08,-86.71"/>
</g>
<!-- 2 -->
<g id="node3" class="node">
<title>2</title>
<path fill="#f2fef2" stroke="#585858" d="M42,-36C42,-36 12,-36 12,-36 6,-36 0,-30 0,-24 0,-24 0,-12 0,-12 0,-6 6,0 12,0 12,0 42,0 42,0 48,0 54,-6 54,-12 54,-12 54,-24 54,-24 54,-30 48,-36 42,-36"/>
<text text-anchor="middle" x="27" y="-20.8" font-family="Helvetica,sans-Serif" font-size="9.00">2</text>
<text text-anchor="middle" x="27" y="-10.8" font-family="Helvetica,sans-Serif" font-size="9.00">INPUT</text>
</g>
<!-- 2&#45;&gt;18 -->
<g id="edge3" class="edge">
<title>2:e&#45;&gt;18:w</title>
<path fill="none" stroke="#585858" stroke-width="2" d="M54,-18C54,-18 74.66,-18 86.29,-18"/>
<polygon fill="#585858" stroke="#585858" stroke-width="2" points="86.5,-20.63 94,-18 86.5,-15.38 86.5,-20.63"/>
</g>
<!-- 2&#45;&gt;20 -->
<g id="edge4" class="edge">
<title>2:e&#45;&gt;20:w</title>
<path fill="none" stroke="#585858" stroke-width="2" d="M54,-18C54,-18 79.4,-56.74 89.72,-72.47"/>
<polygon fill="#585858" stroke="#585858" stroke-width="2" points="87.69,-74.17 94,-79 92.08,-71.29 87.69,-74.17"/>
</g>
<!-- 13 -->
<g id="node4" class="node">
<title>13</title>
<path fill="#fcffe5" stroke="#585858" d="M512,-127C512,-127 482,-127 482,-127 476,-127 470,-121 470,-115 470,-115 470,-103 470,-103 470,-97 476,-91 482,-91 482,-91 512,-91 512,-91 518,-91 524,-97 524,-103 524,-103 524,-115 524,-115 524,-121 518,-127 512,-127"/>
<text text-anchor="middle" x="497" y="-111.8" font-family="Helvetica,sans-Serif" font-size="9.00">13</text>
<text text-anchor="middle" x="497" y="-101.8" font-family="Helvetica,sans-Serif" font-size="9.00">OUTPUT</text>
</g>
<!-- 14 -->
<g id="node5" class="node">
<title>14</title>
<path fill="#c1e6fb" stroke="#585858" d="M418,-127C418,-127 388,-127 388,-127 382,-127 376,-121 376,-115 376,-115 376,-103 376,-103 376,-97 382,-91 388,-91 388,-91 418,-91 418,-91 424,-91 430,-97 430,-103 430,-103 430,-115 430,-115 430,-121 424,-127 418,-127"/>
<text text-anchor="middle" x="403" y="-111.8" font-family="Helvetica,sans-Serif" font-size="9.00">14</text>
<text text-anchor="middle" x="403" y="-101.8" font-family="Helvetica,sans-Serif" font-size="9.00">NOR</text>
</g>
<!-- 14&#45;&gt;13 -->
<g id="edge7" class="edge">
<title>14:e&#45;&gt;13:w</title>
<path fill="none" stroke="#585858" stroke-width="2" d="M430,-109C430,-109 450.66,-109 462.29,-109"/>
<polygon fill="#585858" stroke="#585858" stroke-width="2" points="462.5,-111.63 470,-109 462.5,-106.38 462.5,-111.63"/>
</g>
<!-- 15&#45;&gt;14 -->
<g id="edge8" class="edge">
<title>15:e&#45;&gt;14:w</title>
<path fill="none" stroke="#585858" stroke-width="2" d="M148,-140C148,-140 328.85,-115.41 368.41,-110.03"/>
<polygon fill="#585858" stroke="#585858" stroke-width="2" points="368.92,-112.61 376,-109 368.21,-107.41 368.92,-112.61"/>
</g>
<!-- 17 -->
<g id="node7" class="node">
<title>17</title>
<path fill="#c1e6fb" stroke="#585858" d="M324,-99C324,-99 294,-99 294,-99 288,-99 282,-93 282,-87 282,-87 282,-75 282,-75 282,-69 288,-63 294,-63 294,-63 324,-63 324,-63 330,-63 336,-69 336,-75 336,-75 336,-87 336,-87 336,-93 330,-99 324,-99"/>
<text text-anchor="middle" x="309" y="-83.8" font-family="Helvetica,sans-Serif" font-size="9.00">17</text>
<text text-anchor="middle" x="309" y="-73.8" font-family="Helvetica,sans-Serif" font-size="9.00">NOT</text>
</g>
<!-- 17&#45;&gt;14 -->
<g id="edge9" class="edge">
<title>17:e&#45;&gt;14:w</title>
<path fill="none" stroke="#585858" stroke-width="2" d="M336,-81C336,-81 358.5,-96.75 369.75,-104.62"/>
<polygon fill="#585858" stroke="#585858" stroke-width="2" points="368.35,-106.85 376,-109 371.36,-102.55 368.35,-106.85"/>
</g>
<!-- 19 -->
<g id="node9" class="node">
<title>19</title>
<path fill="#c1e6fb" stroke="#585858" d="M230,-97C230,-97 200,-97 200,-97 194,-97 188,-91 188,-85 188,-85 188,-73 188,-73 188,-67 194,-61 200,-61 200,-61 230,-61 230,-61 236,-61 242,-67 242,-73 242,-73 242,-85 242,-85 242,-91 236,-97 230,-97"/>
<text text-anchor="middle" x="215" y="-81.8" font-family="Helvetica,sans-Serif" font-size="9.00">19</text>
<text text-anchor="middle" x="215" y="-71.8" font-family="Helvetica,sans-Serif" font-size="9.00">NOR</text>
</g>
<!-- 18&#45;&gt;19 -->
<g id="edge10" class="edge">
<title>18:e&#45;&gt;19:w</title>
<path fill="none" stroke="#585858" stroke-width="2" d="M148,-18C148,-18 173.4,-56.74 183.72,-72.47"/>
<polygon fill="#585858" stroke="#585858" stroke-width="2" points="181.69,-74.17 188,-79 186.08,-71.29 181.69,-74.17"/>
</g>
<!-- 19&#45;&gt;17 -->
<g id="edge11" class="edge">
<title>19:e&#45;&gt;17:w</title>
<path fill="none" stroke="#585858" stroke-width="2" d="M242,-79C242,-79 262.66,-80.03 274.29,-80.61"/>
<polygon fill="#585858" stroke="#585858" stroke-width="2" points="274.38,-83.25 282,-81 274.64,-78 274.38,-83.25"/>
</g>
<!-- 20&#45;&gt;19 -->
<g id="edge12" class="edge">
<title>20:e&#45;&gt;19:w</title>
<path fill="none" stroke="#585858" stroke-width="2" d="M148,-79C148,-79 168.66,-79 180.29,-79"/>
<polygon fill="#585858" stroke="#585858" stroke-width="2" points="180.5,-81.63 188,-79 180.5,-76.38 180.5,-81.63"/>
</g>
</g>
</svg>
