<?xml version="1.0" encoding="UTF-8" standalone="no"?>
<!DOCTYPE svg PUBLIC "-//W3C//DTD SVG 1.1//EN"
 "http://www.w3.org/Graphics/SVG/1.1/DTD/svg11.dtd">
<!-- Generated by graphviz version 2.43.0 (0)
 -->
<!-- Title: 0x17_optimal_topology_2 Pages: 1 -->
<svg width="632pt" height="215pt"
 viewBox="3.60 3.60 628.80 211.80" xmlns="http://www.w3.org/2000/svg" xmlns:xlink="http://www.w3.org/1999/xlink">
<g id="graph0" class="graph" transform="scale(1 1) rotate(0) translate(7.2 208.2)">
<title>0x17_optimal_topology_2</title>
<polygon fill="white" stroke="transparent" points="-3.6,3.6 -3.6,-204.6 621.6,-204.6 621.6,3.6 -3.6,3.6"/>
<!-- 0 -->
<g id="node1" class="node">
<title>0</title>
<path fill="#f2fef2" stroke="#585858" d="M42,-201C42,-201 12,-201 12,-201 6,-201 0,-195 0,-189 0,-189 0,-177 0,-177 0,-171 6,-165 12,-165 12,-165 42,-165 42,-165 48,-165 54,-171 54,-177 54,-177 54,-189 54,-189 54,-195 48,-201 42,-201"/>
<text text-anchor="middle" x="27" y="-185.8" font-family="Helvetica,sans-Serif" font-size="9.00">0</text>
<text text-anchor="middle" x="27" y="-175.8" font-family="Helvetica,sans-Serif" font-size="9.00">INPUT</text>
</g>
<!-- 28 -->
<g id="node7" class="node">
<title>28</title>
<path fill="#c1e6fb" stroke="#585858" d="M230,-145C230,-145 200,-145 200,-145 194,-145 188,-139 188,-133 188,-133 188,-121 188,-121 188,-115 194,-109 200,-109 200,-109 230,-109 230,-109 236,-109 242,-115 242,-121 242,-121 242,-133 242,-133 242,-139 236,-145 230,-145"/>
<text text-anchor="middle" x="215" y="-129.8" font-family="Helvetica,sans-Serif" font-size="9.00">28</text>
<text text-anchor="middle" x="215" y="-119.8" font-family="Helvetica,sans-Serif" font-size="9.00">NOR</text>
</g>
<!-- 0&#45;&gt;28 -->
<g id="edge1" class="edge">
<title>0:e&#45;&gt;28:w</title>
<path fill="none" stroke="#585858" stroke-width="2" d="M122,-183C122,-183 165.57,-146.03 181.91,-132.17"/>
<polygon fill="#585858" stroke="#585858" stroke-width="2" points="183.98,-133.85 188,-127 180.58,-129.85 183.98,-133.85"/>
<path fill="none" stroke="#585858" stroke-width="2" d="M54,-183C54,-183 120,-183 120,-183"/>
</g>
<!-- 29 -->
<g id="node8" class="node">
<title>29</title>
<path fill="#c1e6fb" stroke="#585858" d="M324,-153C324,-153 294,-153 294,-153 288,-153 282,-147 282,-141 282,-141 282,-129 282,-129 282,-123 288,-117 294,-117 294,-117 324,-117 324,-117 330,-117 336,-123 336,-129 336,-129 336,-141 336,-141 336,-147 330,-153 324,-153"/>
<text text-anchor="middle" x="309" y="-137.8" font-family="Helvetica,sans-Serif" font-size="9.00">29</text>
<text text-anchor="middle" x="309" y="-127.8" font-family="Helvetica,sans-Serif" font-size="9.00">NOR</text>
</g>
<!-- 0&#45;&gt;29 -->
<g id="edge2" class="edge">
<title>0:e&#45;&gt;29:w</title>
<path fill="none" stroke="#585858" stroke-width="2" d="M122,-183C122,-183 242,-158 242,-158 242,-158 264.03,-145.33 275.39,-138.8"/>
<polygon fill="#585858" stroke="#585858" stroke-width="2" points="276.81,-141.01 282,-135 274.19,-136.46 276.81,-141.01"/>
</g>
<!-- 1 -->
<g id="node2" class="node">
<title>1</title>
<path fill="#f2fef2" stroke="#585858" d="M42,-36C42,-36 12,-36 12,-36 6,-36 0,-30 0,-24 0,-24 0,-12 0,-12 0,-6 6,0 12,0 12,0 42,0 42,0 48,0 54,-6 54,-12 54,-12 54,-24 54,-24 54,-30 48,-36 42,-36"/>
<text text-anchor="middle" x="27" y="-20.8" font-family="Helvetica,sans-Serif" font-size="9.00">1</text>
<text text-anchor="middle" x="27" y="-10.8" font-family="Helvetica,sans-Serif" font-size="9.00">INPUT</text>
</g>
<!-- 31 -->
<g id="node10" class="node">
<title>31</title>
<path fill="#c1e6fb" stroke="#585858" d="M418,-92C418,-92 388,-92 388,-92 382,-92 376,-86 376,-80 376,-80 376,-68 376,-68 376,-62 382,-56 388,-56 388,-56 418,-56 418,-56 424,-56 430,-62 430,-68 430,-68 430,-80 430,-80 430,-86 424,-92 418,-92"/>
<text text-anchor="middle" x="403" y="-76.8" font-family="Helvetica,sans-Serif" font-size="9.00">31</text>
<text text-anchor="middle" x="403" y="-66.8" font-family="Helvetica,sans-Serif" font-size="9.00">NOR</text>
</g>
<!-- 1&#45;&gt;31 -->
<g id="edge3" class="edge">
<title>1:e&#45;&gt;31:w</title>
<path fill="none" stroke="#585858" stroke-width="2" d="M54,-18C54,-18 336,-44 336,-44 336,-44 358.5,-60.88 369.75,-69.31"/>
<polygon fill="#585858" stroke="#585858" stroke-width="2" points="368.42,-71.6 376,-74 371.57,-67.4 368.42,-71.6"/>
</g>
<!-- 2 -->
<g id="node3" class="node">
<title>2</title>
<path fill="#f2fef2" stroke="#585858" d="M42,-120C42,-120 12,-120 12,-120 6,-120 0,-114 0,-108 0,-108 0,-96 0,-96 0,-90 6,-84 12,-84 12,-84 42,-84 42,-84 48,-84 54,-90 54,-96 54,-96 54,-108 54,-108 54,-114 48,-120 42,-120"/>
<text text-anchor="middle" x="27" y="-104.8" font-family="Helvetica,sans-Serif" font-size="9.00">2</text>
<text text-anchor="middle" x="27" y="-94.8" font-family="Helvetica,sans-Serif" font-size="9.00">INPUT</text>
</g>
<!-- 27 -->
<g id="node6" class="node">
<title>27</title>
<path fill="#c1e6fb" stroke="#585858" d="M136,-120C136,-120 106,-120 106,-120 100,-120 94,-114 94,-108 94,-108 94,-96 94,-96 94,-90 100,-84 106,-84 106,-84 136,-84 136,-84 142,-84 148,-90 148,-96 148,-96 148,-108 148,-108 148,-114 142,-120 136,-120"/>
<text text-anchor="middle" x="121" y="-104.8" font-family="Helvetica,sans-Serif" font-size="9.00">27</text>
<text text-anchor="middle" x="121" y="-94.8" font-family="Helvetica,sans-Serif" font-size="9.00">NOT</text>
</g>
<!-- 2&#45;&gt;27 -->
<g id="edge4" class="edge">
<title>2:e&#45;&gt;27:w</title>
<path fill="none" stroke="#585858" stroke-width="2" d="M54,-102C54,-102 74.66,-102 86.29,-102"/>
<polygon fill="#585858" stroke="#585858" stroke-width="2" points="86.5,-104.63 94,-102 86.5,-99.38 86.5,-104.63"/>
</g>
<!-- 13 -->
<g id="node4" class="node">
<title>13</title>
<path fill="#fcffe5" stroke="#585858" d="M606,-120C606,-120 576,-120 576,-120 570,-120 564,-114 564,-108 564,-108 564,-96 564,-96 564,-90 570,-84 576,-84 576,-84 606,-84 606,-84 612,-84 618,-90 618,-96 618,-96 618,-108 618,-108 618,-114 612,-120 606,-120"/>
<text text-anchor="middle" x="591" y="-104.8" font-family="Helvetica,sans-Serif" font-size="9.00">13</text>
<text text-anchor="middle" x="591" y="-94.8" font-family="Helvetica,sans-Serif" font-size="9.00">OUTPUT</text>
</g>
<!-- 14 -->
<g id="node5" class="node">
<title>14</title>
<path fill="#c1e6fb" stroke="#585858" d="M512,-120C512,-120 482,-120 482,-120 476,-120 470,-114 470,-108 470,-108 470,-96 470,-96 470,-90 476,-84 482,-84 482,-84 512,-84 512,-84 518,-84 524,-90 524,-96 524,-96 524,-108 524,-108 524,-114 518,-120 512,-120"/>
<text text-anchor="middle" x="497" y="-104.8" font-family="Helvetica,sans-Serif" font-size="9.00">14</text>
<text text-anchor="middle" x="497" y="-94.8" font-family="Helvetica,sans-Serif" font-size="9.00">NOR</text>
</g>
<!-- 14&#45;&gt;13 -->
<g id="edge5" class="edge">
<title>14:e&#45;&gt;13:w</title>
<path fill="none" stroke="#585858" stroke-width="2" d="M524,-102C524,-102 544.66,-102 556.29,-102"/>
<polygon fill="#585858" stroke="#585858" stroke-width="2" points="556.5,-104.63 564,-102 556.5,-99.38 556.5,-104.63"/>
</g>
<!-- 27&#45;&gt;28 -->
<g id="edge6" class="edge">
<title>27:e&#45;&gt;28:w</title>
<path fill="none" stroke="#585858" stroke-width="2" d="M148,-102C148,-102 170.03,-115.77 181.39,-122.87"/>
<polygon fill="#585858" stroke="#585858" stroke-width="2" points="180.25,-125.25 188,-127 183.03,-120.8 180.25,-125.25"/>
</g>
<!-- 30 -->
<g id="node9" class="node">
<title>30</title>
<path fill="#c1e6fb" stroke="#585858" d="M324,-92C324,-92 294,-92 294,-92 288,-92 282,-86 282,-80 282,-80 282,-68 282,-68 282,-62 288,-56 294,-56 294,-56 324,-56 324,-56 330,-56 336,-62 336,-68 336,-68 336,-80 336,-80 336,-86 330,-92 324,-92"/>
<text text-anchor="middle" x="309" y="-76.8" font-family="Helvetica,sans-Serif" font-size="9.00">30</text>
<text text-anchor="middle" x="309" y="-66.8" font-family="Helvetica,sans-Serif" font-size="9.00">NOR</text>
</g>
<!-- 27&#45;&gt;30 -->
<g id="edge7" class="edge">
<title>27:e&#45;&gt;30:w</title>
<path fill="none" stroke="#585858" stroke-width="2" d="M148,-102C148,-102 246.06,-81.51 274.41,-75.59"/>
<polygon fill="#585858" stroke="#585858" stroke-width="2" points="275.2,-78.1 282,-74 274.12,-72.96 275.2,-78.1"/>
</g>
<!-- 28&#45;&gt;29 -->
<g id="edge8" class="edge">
<title>28:e&#45;&gt;29:w</title>
<path fill="none" stroke="#585858" stroke-width="2" d="M242,-127C242,-127 262.66,-131.13 274.29,-133.46"/>
<polygon fill="#585858" stroke="#585858" stroke-width="2" points="274.13,-136.1 282,-135 275.16,-130.96 274.13,-136.1"/>
</g>
<!-- 28&#45;&gt;30 -->
<g id="edge9" class="edge">
<title>28:e&#45;&gt;30:w</title>
<path fill="none" stroke="#585858" stroke-width="2" d="M242,-127C242,-127 266.9,-94 277.41,-80.08"/>
<polygon fill="#585858" stroke="#585858" stroke-width="2" points="279.58,-81.57 282,-74 275.39,-78.41 279.58,-81.57"/>
</g>
<!-- 29&#45;&gt;14 -->
<g id="edge10" class="edge">
<title>29:e&#45;&gt;14:w</title>
<path fill="none" stroke="#585858" stroke-width="2" d="M336,-135C336,-135 434.06,-110.85 462.41,-103.87"/>
<polygon fill="#585858" stroke="#585858" stroke-width="2" points="463.35,-106.34 470,-102 462.09,-101.24 463.35,-106.34"/>
</g>
<!-- 30&#45;&gt;31 -->
<g id="edge11" class="edge">
<title>30:e&#45;&gt;31:w</title>
<path fill="none" stroke="#585858" stroke-width="2" d="M336,-74C336,-74 356.66,-74 368.29,-74"/>
<polygon fill="#585858" stroke="#585858" stroke-width="2" points="368.5,-76.63 376,-74 368.5,-71.38 368.5,-76.63"/>
</g>
<!-- 31&#45;&gt;14 -->
<g id="edge12" class="edge">
<title>31:e&#45;&gt;14:w</title>
<path fill="none" stroke="#585858" stroke-width="2" d="M430,-74C430,-74 452.5,-89.75 463.75,-97.62"/>
<polygon fill="#585858" stroke="#585858" stroke-width="2" points="462.35,-99.85 470,-102 465.36,-95.55 462.35,-99.85"/>
</g>
</g>
</svg>
