<?xml version="1.0" encoding="UTF-8" standalone="no"?>
<!DOCTYPE svg PUBLIC "-//W3C//DTD SVG 1.1//EN"
 "http://www.w3.org/Graphics/SVG/1.1/DTD/svg11.dtd">
<!-- Generated by graphviz version 2.43.0 (0)
 -->
<!-- Title: 0x17_optimal_topology_5 Pages: 1 -->
<svg width="540pt" height="196pt"
 viewBox="3.60 3.60 536.80 192.80" xmlns="http://www.w3.org/2000/svg" xmlns:xlink="http://www.w3.org/1999/xlink">
<g id="graph0" class="graph" transform="scale(1 1) rotate(0) translate(7.2 189.2)">
<title>0x17_optimal_topology_5</title>
<polygon fill="white" stroke="transparent" points="-3.6,3.6 -3.6,-185.6 529.6,-185.6 529.6,3.6 -3.6,3.6"/>
<!-- 0 -->
<g id="node1" class="node">
<title>0</title>
<path fill="#f2fef2" stroke="#585858" d="M42,-182C42,-182 12,-182 12,-182 6,-182 0,-176 0,-170 0,-170 0,-158 0,-158 0,-152 6,-146 12,-146 12,-146 42,-146 42,-146 48,-146 54,-152 54,-158 54,-158 54,-170 54,-170 54,-176 48,-182 42,-182"/>
<text text-anchor="middle" x="27" y="-166.8" font-family="Helvetica,sans-Serif" font-size="9.00">0</text>
<text text-anchor="middle" x="27" y="-156.8" font-family="Helvetica,sans-Serif" font-size="9.00">INPUT</text>
</g>
<!-- 20 -->
<g id="node5" class="node">
<title>20</title>
<path fill="#c1e6fb" stroke="#585858" d="M136,-182C136,-182 106,-182 106,-182 100,-182 94,-176 94,-170 94,-170 94,-158 94,-158 94,-152 100,-146 106,-146 106,-146 136,-146 136,-146 142,-146 148,-152 148,-158 148,-158 148,-170 148,-170 148,-176 142,-182 136,-182"/>
<text text-anchor="middle" x="121" y="-166.8" font-family="Helvetica,sans-Serif" font-size="9.00">20</text>
<text text-anchor="middle" x="121" y="-156.8" font-family="Helvetica,sans-Serif" font-size="9.00">NOT</text>
</g>
<!-- 0&#45;&gt;20 -->
<g id="edge1" class="edge">
<title>0:e&#45;&gt;20:w</title>
<path fill="none" stroke="#585858" stroke-width="2" d="M54,-164C54,-164 74.66,-164 86.29,-164"/>
<polygon fill="#585858" stroke="#585858" stroke-width="2" points="86.5,-166.63 94,-164 86.5,-161.38 86.5,-166.63"/>
</g>
<!-- 1 -->
<g id="node2" class="node">
<title>1</title>
<path fill="#f2fef2" stroke="#585858" d="M42,-97C42,-97 12,-97 12,-97 6,-97 0,-91 0,-85 0,-85 0,-73 0,-73 0,-67 6,-61 12,-61 12,-61 42,-61 42,-61 48,-61 54,-67 54,-73 54,-73 54,-85 54,-85 54,-91 48,-97 42,-97"/>
<text text-anchor="middle" x="27" y="-81.8" font-family="Helvetica,sans-Serif" font-size="9.00">1</text>
<text text-anchor="middle" x="27" y="-71.8" font-family="Helvetica,sans-Serif" font-size="9.00">INPUT</text>
</g>
<!-- 21 -->
<g id="node6" class="node">
<title>21</title>
<path fill="#c1e6fb" stroke="#585858" d="M230,-151C230,-151 200,-151 200,-151 194,-151 188,-145 188,-139 188,-139 188,-127 188,-127 188,-121 194,-115 200,-115 200,-115 230,-115 230,-115 236,-115 242,-121 242,-127 242,-127 242,-139 242,-139 242,-145 236,-151 230,-151"/>
<text text-anchor="middle" x="215" y="-135.8" font-family="Helvetica,sans-Serif" font-size="9.00">21</text>
<text text-anchor="middle" x="215" y="-125.8" font-family="Helvetica,sans-Serif" font-size="9.00">NOR</text>
</g>
<!-- 1&#45;&gt;21 -->
<g id="edge2" class="edge">
<title>1:e&#45;&gt;21:w</title>
<path fill="none" stroke="#585858" stroke-width="2" d="M122,-77C122,-77 165.57,-113.97 181.91,-127.83"/>
<polygon fill="#585858" stroke="#585858" stroke-width="2" points="180.58,-130.15 188,-133 183.98,-126.15 180.58,-130.15"/>
</g>
<!-- 23 -->
<g id="node8" class="node">
<title>23</title>
<path fill="#c1e6fb" stroke="#585858" d="M324,-95C324,-95 294,-95 294,-95 288,-95 282,-89 282,-83 282,-83 282,-71 282,-71 282,-65 288,-59 294,-59 294,-59 324,-59 324,-59 330,-59 336,-65 336,-71 336,-71 336,-83 336,-83 336,-89 330,-95 324,-95"/>
<text text-anchor="middle" x="309" y="-79.8" font-family="Helvetica,sans-Serif" font-size="9.00">23</text>
<text text-anchor="middle" x="309" y="-69.8" font-family="Helvetica,sans-Serif" font-size="9.00">NOR</text>
</g>
<!-- 1&#45;&gt;23 -->
<g id="edge3" class="edge">
<title>1:e&#45;&gt;23:w</title>
<path fill="none" stroke="#585858" stroke-width="2" d="M54,-79C54,-79 120,-77 120,-77"/>
<path fill="none" stroke="#585858" stroke-width="2" d="M122,-77C122,-77 242.32,-77 274.28,-77"/>
<polygon fill="#585858" stroke="#585858" stroke-width="2" points="274.5,-79.63 282,-77 274.5,-74.38 274.5,-79.63"/>
</g>
<!-- 2 -->
<g id="node3" class="node">
<title>2</title>
<path fill="#f2fef2" stroke="#585858" d="M42,-36C42,-36 12,-36 12,-36 6,-36 0,-30 0,-24 0,-24 0,-12 0,-12 0,-6 6,0 12,0 12,0 42,0 42,0 48,0 54,-6 54,-12 54,-12 54,-24 54,-24 54,-30 48,-36 42,-36"/>
<text text-anchor="middle" x="27" y="-20.8" font-family="Helvetica,sans-Serif" font-size="9.00">2</text>
<text text-anchor="middle" x="27" y="-10.8" font-family="Helvetica,sans-Serif" font-size="9.00">INPUT</text>
</g>
<!-- 24 -->
<g id="node9" class="node">
<title>24</title>
<path fill="#c1e6fb" stroke="#585858" d="M136,-37C136,-37 106,-37 106,-37 100,-37 94,-31 94,-25 94,-25 94,-13 94,-13 94,-7 100,-1 106,-1 106,-1 136,-1 136,-1 142,-1 148,-7 148,-13 148,-13 148,-25 148,-25 148,-31 142,-37 136,-37"/>
<text text-anchor="middle" x="121" y="-21.8" font-family="Helvetica,sans-Serif" font-size="9.00">24</text>
<text text-anchor="middle" x="121" y="-11.8" font-family="Helvetica,sans-Serif" font-size="9.00">NOT</text>
</g>
<!-- 2&#45;&gt;24 -->
<g id="edge4" class="edge">
<title>2:e&#45;&gt;24:w</title>
<path fill="none" stroke="#585858" stroke-width="2" d="M54,-18C54,-18 74.66,-18.52 86.29,-18.81"/>
<polygon fill="#585858" stroke="#585858" stroke-width="2" points="86.44,-21.44 94,-19 86.57,-16.19 86.44,-21.44"/>
</g>
<!-- 13 -->
<g id="node4" class="node">
<title>13</title>
<path fill="#fcffe5" stroke="#585858" d="M514,-123C514,-123 482,-123 482,-123 476,-123 470,-117 470,-111 470,-111 470,-99 470,-99 470,-93 476,-87 482,-87 482,-87 514,-87 514,-87 520,-87 526,-93 526,-99 526,-99 526,-111 526,-111 526,-117 520,-123 514,-123"/>
<text text-anchor="middle" x="498" y="-107.8" font-family="Helvetica,sans-Serif" font-size="9.00">13</text>
<text text-anchor="middle" x="498" y="-97.8" font-family="Helvetica,sans-Serif" font-size="9.00">OR/OUTPUT</text>
</g>
<!-- 20&#45;&gt;21 -->
<g id="edge5" class="edge">
<title>20:e&#45;&gt;21:w</title>
<path fill="none" stroke="#585858" stroke-width="2" d="M148,-164C148,-164 170.5,-146.56 181.75,-137.84"/>
<polygon fill="#585858" stroke="#585858" stroke-width="2" points="183.68,-139.67 188,-133 180.46,-135.52 183.68,-139.67"/>
</g>
<!-- 22 -->
<g id="node7" class="node">
<title>22</title>
<path fill="#c1e6fb" stroke="#585858" d="M324,-156C324,-156 294,-156 294,-156 288,-156 282,-150 282,-144 282,-144 282,-132 282,-132 282,-126 288,-120 294,-120 294,-120 324,-120 324,-120 330,-120 336,-126 336,-132 336,-132 336,-144 336,-144 336,-150 330,-156 324,-156"/>
<text text-anchor="middle" x="309" y="-140.8" font-family="Helvetica,sans-Serif" font-size="9.00">22</text>
<text text-anchor="middle" x="309" y="-130.8" font-family="Helvetica,sans-Serif" font-size="9.00">NOR</text>
</g>
<!-- 20&#45;&gt;22 -->
<g id="edge6" class="edge">
<title>20:e&#45;&gt;22:w</title>
<path fill="none" stroke="#585858" stroke-width="2" d="M148,-164C148,-164 242,-164 242,-164 242,-164 264.03,-149.68 275.39,-142.29"/>
<polygon fill="#585858" stroke="#585858" stroke-width="2" points="277.14,-144.29 282,-138 274.28,-139.89 277.14,-144.29"/>
</g>
<!-- 21&#45;&gt;22 -->
<g id="edge7" class="edge">
<title>21:e&#45;&gt;22:w</title>
<path fill="none" stroke="#585858" stroke-width="2" d="M242,-133C242,-133 262.66,-135.58 274.29,-137.04"/>
<polygon fill="#585858" stroke="#585858" stroke-width="2" points="274.23,-139.67 282,-138 274.88,-134.46 274.23,-139.67"/>
</g>
<!-- 21&#45;&gt;23 -->
<g id="edge8" class="edge">
<title>21:e&#45;&gt;23:w</title>
<path fill="none" stroke="#585858" stroke-width="2" d="M242,-133C242,-133 266.9,-98.13 277.41,-83.42"/>
<polygon fill="#585858" stroke="#585858" stroke-width="2" points="279.78,-84.63 282,-77 275.5,-81.58 279.78,-84.63"/>
</g>
<!-- 22&#45;&gt;13 -->
<g id="edge9" class="edge">
<title>22:e&#45;&gt;13:w</title>
<path fill="none" stroke="#585858" stroke-width="2" d="M336,-138C336,-138 434.06,-113.85 462.41,-106.87"/>
<polygon fill="#585858" stroke="#585858" stroke-width="2" points="463.35,-109.34 470,-105 462.09,-104.24 463.35,-109.34"/>
</g>
<!-- 25 -->
<g id="node10" class="node">
<title>25</title>
<path fill="#c1e6fb" stroke="#585858" d="M418,-95C418,-95 388,-95 388,-95 382,-95 376,-89 376,-83 376,-83 376,-71 376,-71 376,-65 382,-59 388,-59 388,-59 418,-59 418,-59 424,-59 430,-65 430,-71 430,-71 430,-83 430,-83 430,-89 424,-95 418,-95"/>
<text text-anchor="middle" x="403" y="-79.8" font-family="Helvetica,sans-Serif" font-size="9.00">25</text>
<text text-anchor="middle" x="403" y="-69.8" font-family="Helvetica,sans-Serif" font-size="9.00">NOR</text>
</g>
<!-- 23&#45;&gt;25 -->
<g id="edge10" class="edge">
<title>23:e&#45;&gt;25:w</title>
<path fill="none" stroke="#585858" stroke-width="2" d="M336,-77C336,-77 356.66,-77 368.29,-77"/>
<polygon fill="#585858" stroke="#585858" stroke-width="2" points="368.5,-79.63 376,-77 368.5,-74.38 368.5,-79.63"/>
</g>
<!-- 24&#45;&gt;25 -->
<g id="edge11" class="edge">
<title>24:e&#45;&gt;25:w</title>
<path fill="none" stroke="#585858" stroke-width="2" d="M148,-19C148,-19 336,-47 336,-47 336,-47 358.5,-63.88 369.75,-72.31"/>
<polygon fill="#585858" stroke="#585858" stroke-width="2" points="368.42,-74.6 376,-77 371.57,-70.4 368.42,-74.6"/>
</g>
<!-- 25&#45;&gt;13 -->
<g id="edge12" class="edge">
<title>25:e&#45;&gt;13:w</title>
<path fill="none" stroke="#585858" stroke-width="2" d="M430,-77C430,-77 452.5,-92.75 463.75,-100.62"/>
<polygon fill="#585858" stroke="#585858" stroke-width="2" points="462.35,-102.85 470,-105 465.36,-98.55 462.35,-102.85"/>
</g>
</g>
</svg>
