<?xml version="1.0" encoding="utf-8" standalone="no"?>
<!DOCTYPE svg PUBLIC "-//W3C//DTD SVG 1.1//EN"
  "http://www.w3.org/Graphics/SVG/1.1/DTD/svg11.dtd">
<svg xmlns:xlink="http://www.w3.org/1999/xlink" width="130pt" height="110pt" viewBox="0 0 130 110" xmlns="http://www.w3.org/2000/svg" version="1.1">
 <metadata>
  <rdf:RDF xmlns:dc="http://purl.org/dc/elements/1.1/" xmlns:cc="http://creativecommons.org/ns#" xmlns:rdf="http://www.w3.org/1999/02/22-rdf-syntax-ns#">
   <cc:Work>
    <dc:type rdf:resource="http://purl.org/dc/dcmitype/StillImage"/>
    <dc:date>2025-10-25T23:00:28.081943</dc:date>
    <dc:format>image/svg+xml</dc:format>
    <dc:creator>
     <cc:Agent>
      <dc:title>Matplotlib v3.7.1, https://matplotlib.org/</dc:title>
     </cc:Agent>
    </dc:creator>
   </cc:Work>
  </rdf:RDF>
 </metadata>
 <defs>
  <style type="text/css">*{stroke-linejoin: round; stroke-linecap: butt}</style>
 </defs>
 <g id="figure_1">
  <g id="patch_1">
   <path d="M 0 110 
L 130 110 
L 130 0 
L 0 0 
z
" style="fill: #ffffff"/>
  </g>
  <g id="axes_1">
   <g id="patch_2">
    <path d="M 29.9 81.54 
L 123.52 81.54 
L 123.52 6.48 
L 29.9 6.48 
z
" style="fill: #ffffff"/>
   </g>
   <g id="matplotlib.axis_1">
    <g id="xtick_1">
     <g id="line2d_1">
      <defs>
       <path id="mcd9bef59e7" d="M 0 0 
L 0 2 
" style="stroke: #262626; stroke-width: 0.5"/>
      </defs>
      <g>
       <use xlink:href="#mcd9bef59e7" x="31.41" y="81.54" style="fill: #262626; stroke: #262626; stroke-width: 0.5"/>
      </g>
     </g>
     <g id="text_1">
      <text style="fill: #262626; font: 6px 'DejaVu Sans', sans-serif; text-anchor: middle" x="31.41" y="91.599062" transform="rotate(-0 31.41 91.599062)">0k</text>
     </g>
    </g>
    <g id="xtick_2">
     <g id="line2d_2">
      <g>
       <use xlink:href="#mcd9bef59e7" x="48.569091" y="81.54" style="fill: #262626; stroke: #262626; stroke-width: 0.5"/>
      </g>
     </g>
     <g id="text_2">
      <text style="fill: #262626; font: 6px 'DejaVu Sans', sans-serif; text-anchor: middle" x="48.569091" y="91.599062" transform="rotate(-0 48.569091 91.599062)">10k</text>
     </g>
    </g>
    <g id="xtick_3">
     <g id="line2d_3">
      <g>
       <use xlink:href="#mcd9bef59e7" x="65.728182" y="81.54" style="fill: #262626; stroke: #262626; stroke-width: 0.5"/>
      </g>
     </g>
     <g id="text_3">
      <text style="fill: #262626; font: 6px 'DejaVu Sans', sans-serif; text-anchor: middle" x="65.728182" y="91.599062" transform="rotate(-0 65.728182 91.599062)">20k</text>
     </g>
    </g>
    <g id="xtick_4">
     <g id="line2d_4">
      <g>
       <use xlink:href="#mcd9bef59e7" x="82.887273" y="81.54" style="fill: #262626; stroke: #262626; stroke-width: 0.5"/>
      </g>
     </g>
     <g id="text_4">
      <text style="fill: #262626; font: 6px 'DejaVu Sans', sans-serif; text-anchor: middle" x="82.887273" y="91.599062" transform="rotate(-0 82.887273 91.599062)">30k</text>
     </g>
    </g>
    <g id="xtick_5">
     <g id="line2d_5">
      <g>
       <use xlink:href="#mcd9bef59e7" x="100.046364" y="81.54" style="fill: #262626; stroke: #262626; stroke-width: 0.5"/>
      </g>
     </g>
     <g id="text_5">
      <text style="fill: #262626; font: 6px 'DejaVu Sans', sans-serif; text-anchor: middle" x="100.046364" y="91.599062" transform="rotate(-0 100.046364 91.599062)">40k</text>
     </g>
    </g>
    <g id="xtick_6">
     <g id="line2d_6">
      <g>
       <use xlink:href="#mcd9bef59e7" x="117.205455" y="81.54" style="fill: #262626; stroke: #262626; stroke-width: 0.5"/>
      </g>
     </g>
     <g id="text_6">
      <text style="fill: #262626; font: 6px 'DejaVu Sans', sans-serif; text-anchor: middle" x="117.205455" y="91.599062" transform="rotate(-0 117.205455 91.599062)">50k</text>
     </g>
    </g>
    <g id="text_7">
     <text style="fill: #262626; font: 6px 'DejaVu Sans', sans-serif; text-anchor: middle" x="76.71" y="101.405937" transform="rotate(-0 76.71 101.405937)">Training Steps</text>
    </g>
   </g>
   <g id="matplotlib.axis_2">
    <g id="ytick_1">
     <g id="line2d_7">
      <defs>
       <path id="m0bf9f8e0be" d="M 0 0 
L -2 0 
" style="stroke: #262626; stroke-width: 0.5"/>
      </defs>
      <g>
       <use xlink:href="#m0bf9f8e0be" x="29.9" y="66.638382" style="fill: #262626; stroke: #262626; stroke-width: 0.5"/>
      </g>
     </g>
     <g id="text_8">
      <text style="fill: #262626; font: 6px 'DejaVu Sans', sans-serif; text-anchor: end" x="24.4" y="68.917914" transform="rotate(-0 24.4 68.917914)">4</text>
     </g>
    </g>
    <g id="ytick_2">
     <g id="line2d_8">
      <g>
       <use xlink:href="#m0bf9f8e0be" x="29.9" y="44.561912" style="fill: #262626; stroke: #262626; stroke-width: 0.5"/>
      </g>
     </g>
     <g id="text_9">
      <text style="fill: #262626; font: 6px 'DejaVu Sans', sans-serif; text-anchor: end" x="24.4" y="46.841443" transform="rotate(-0 24.4 46.841443)">8</text>
     </g>
    </g>
    <g id="ytick_3">
     <g id="line2d_9">
      <g>
       <use xlink:href="#m0bf9f8e0be" x="29.9" y="22.485441" style="fill: #262626; stroke: #262626; stroke-width: 0.5"/>
      </g>
     </g>
     <g id="text_10">
      <text style="fill: #262626; font: 6px 'DejaVu Sans', sans-serif; text-anchor: end" x="24.4" y="24.764972" transform="rotate(-0 24.4 24.764972)">12</text>
     </g>
    </g>
    <g id="text_11">
     <text style="fill: #262626; font: 6px 'DejaVu Sans', sans-serif; text-anchor: middle" x="11.517188" y="44.01" transform="rotate(-90 11.517188 44.01)">Mean Episode Reward</text>
    </g>
   </g>
   <g id="line2d_10">
    <path d="M 34.155455 78.195666 
L 36.900909 78.218332 
L 39.646364 77.850595 
L 42.391818 76.237863 
L 45.137273 73.449738 
L 47.882727 72.513864 
L 50.628182 67.896922 
L 53.373636 69.120408 
L 56.119091 61.505549 
L 58.864545 52.428277 
L 61.61 52.464639 
L 64.355455 43.260021 
L 67.100909 37.888985 
L 69.846364 36.00051 
L 72.591818 34.064806 
L 75.337273 32.678626 
L 78.082727 31.780335 
L 80.828182 28.3725 
L 83.573636 28.092164 
L 86.319091 23.410012 
L 89.064545 21.504267 
L 91.81 19.311313 
L 94.555455 15.725157 
L 97.300909 11.50853 
L 100.046364 10.921578 
L 102.791818 10.282059 
L 105.537273 11.10323 
L 108.282727 9.870316 
L 111.028182 10.282059 
L 113.773636 9.870316 
L 116.519091 9.870316 
L 119.264545 9.870316 
" clip-path="url(#pee8dba8ab7)" style="fill: none; stroke: #417ff1; stroke-width: 0.5; stroke-linecap: round"/>
   </g>
   <g id="patch_3">
    <path d="M 29.9 81.54 
L 29.9 6.48 
" style="fill: none; stroke: #262626; stroke-width: 0.5; stroke-linejoin: miter; stroke-linecap: square"/>
   </g>
   <g id="patch_4">
    <path d="M 123.52 81.54 
L 123.52 6.48 
" style="fill: none; stroke: #262626; stroke-width: 0.5; stroke-linejoin: miter; stroke-linecap: square"/>
   </g>
   <g id="patch_5">
    <path d="M 29.9 81.54 
L 123.52 81.54 
" style="fill: none; stroke: #262626; stroke-width: 0.5; stroke-linejoin: miter; stroke-linecap: square"/>
   </g>
   <g id="patch_6">
    <path d="M 29.9 6.48 
L 123.52 6.48 
" style="fill: none; stroke: #262626; stroke-width: 0.5; stroke-linejoin: miter; stroke-linecap: square"/>
   </g>
   <g id="legend_1">
    <g id="line2d_11">
     <path d="M 53.502812 72.792187 
L 59.502812 72.792187 
L 65.502812 72.792187 
" style="fill: none; stroke: #417ff1; stroke-width: 0.5; stroke-linecap: round"/>
    </g>
    <g id="text_12">
     <text style="fill: #262626; font: 6px 'DejaVu Sans', sans-serif; text-anchor: start" x="70.302812" y="74.892187" transform="rotate(-0 70.302812 74.892187)">Episode Reward</text>
    </g>
   </g>
  </g>
 </g>
 <defs>
  <clipPath id="pee8dba8ab7">
   <rect x="29.9" y="6.48" width="93.62" height="75.06"/>
  </clipPath>
 </defs>
</svg>
